{"glyphs":{"0":{"ha":897,"x_min":78,"x_max":819,"o":"m 449 -17 q 249 45 332 -16 q 122 223 166 106 q 78 505 78 340 q 123 785 78 669 q 250 963 167 902 q 449 1024 333 1024 q 648 963 565 1024 q 775 785 730 901 q 819 505 819 669 q 775 223 819 339 q 648 45 731 106 q 449 -17 565 -17 m 449 115 q 609 215 551 115 q 667 505 667 315 q 641 717 667 630 q 565 850 615 804 q 449 895 516 895 q 289 794 347 895 q 230 505 230 693 q 256 291 230 378 q 331 160 283 204 q 449 115 380 115 z "},"1":{"ha":656,"x_min":80,"x_max":480,"o":"m 480 1010 l 480 0 l 327 0 l 327 857 l 322 857 l 80 699 l 80 845 l 332 1010 l 480 1010 z "},"2":{"ha":852,"x_min":96,"x_max":762,"o":"m 97 0 l 97 110 l 439 465 q 529 566 494 522 q 583 649 565 610 q 601 733 601 689 q 577 820 601 783 q 512 877 553 857 q 420 897 472 897 q 326 874 366 897 q 263 812 285 852 q 242 717 242 771 l 96 717 q 139 878 96 809 q 255 986 181 947 q 423 1024 329 1024 q 591 986 518 1024 q 705 884 664 948 q 746 737 746 819 q 725 627 746 681 q 652 508 704 574 q 508 348 600 442 l 307 138 l 307 131 l 762 131 l 762 0 l 97 0 z "},"3":{"ha":895,"x_min":92,"x_max":806,"o":"m 449 -14 q 268 21 347 -14 q 142 119 188 56 q 92 263 96 181 l 247 263 q 277 186 250 218 q 349 135 305 153 q 448 117 394 117 q 554 138 508 117 q 626 196 600 159 q 652 282 652 233 q 626 372 652 333 q 551 433 600 410 q 431 455 501 455 l 346 455 l 346 579 l 431 579 q 530 599 487 579 q 597 656 573 619 q 621 741 621 692 q 600 822 621 788 q 541 877 579 857 q 451 897 503 897 q 359 879 401 897 q 290 827 316 861 q 261 748 263 794 l 113 748 q 162 892 116 830 q 284 989 208 954 q 453 1024 360 1024 q 621 986 550 1024 q 730 886 691 948 q 768 749 769 823 q 721 605 769 664 q 595 525 674 545 l 595 517 q 751 437 695 502 q 806 277 806 373 q 760 128 806 194 q 633 24 713 62 q 449 -14 552 -14 z "},"4":{"ha":908,"x_min":76,"x_max":834,"o":"m 76 197 l 76 321 l 512 1010 l 610 1010 l 610 829 l 548 829 l 236 334 l 236 327 l 834 327 l 834 197 l 76 197 m 555 0 l 555 235 l 556 291 l 556 1010 l 700 1010 l 700 0 l 555 0 z "},"5":{"ha":861,"x_min":100,"x_max":779,"o":"m 431 -14 q 264 22 338 -14 q 146 120 190 58 q 100 263 103 183 l 248 263 q 305 156 253 198 q 431 114 358 114 q 534 141 489 114 q 605 216 579 168 q 631 324 631 263 q 604 434 631 385 q 531 509 578 482 q 424 538 484 537 q 332 522 378 538 q 257 480 286 506 l 117 501 l 174 1010 l 729 1010 l 729 879 l 301 879 l 269 597 l 275 597 q 353 645 304 625 q 459 664 402 664 q 623 620 551 664 q 737 500 695 576 q 778 327 779 425 q 734 151 779 228 q 611 30 690 74 q 431 -14 532 -14 z "},"6":{"ha":883,"x_min":81,"x_max":800,"o":"m 450 -14 q 317 11 382 -13 q 198 90 252 35 q 113 238 145 145 q 81 471 81 331 q 108 706 81 603 q 184 879 134 808 q 304 987 234 950 q 463 1024 375 1024 q 623 988 553 1024 q 737 890 693 953 q 792 748 780 828 l 642 748 q 581 851 626 811 q 463 891 536 891 q 290 794 352 891 q 227 525 228 697 l 235 525 q 299 599 261 568 q 385 645 337 629 q 485 662 433 662 q 644 619 573 662 q 758 502 716 577 q 800 330 800 427 q 757 155 800 233 q 634 31 713 76 q 450 -14 555 -15 m 449 114 q 553 143 508 114 q 626 220 599 172 q 653 328 653 268 q 627 434 653 386 q 556 510 601 482 q 453 538 510 538 q 372 521 409 538 q 306 475 334 505 q 262 407 278 445 q 246 327 246 369 q 273 221 246 270 q 345 144 299 173 q 449 114 391 114 z "},"7":{"ha":804,"x_min":62,"x_max":730,"o":"m 131 0 l 572 872 l 572 879 l 62 879 l 62 1010 l 730 1010 l 730 875 l 291 0 l 131 0 z "},"8":{"ha":877,"x_min":78,"x_max":798,"o":"m 438 -14 q 251 23 332 -14 q 124 123 170 59 q 79 269 78 187 q 105 387 78 333 q 179 478 132 441 q 282 524 225 514 l 282 530 q 161 611 207 548 q 116 755 116 673 q 158 893 116 832 q 272 989 199 954 q 438 1024 345 1024 q 603 989 531 1024 q 718 892 676 953 q 761 755 760 832 q 714 611 760 673 q 595 530 668 548 l 595 524 q 697 478 652 514 q 770 387 743 441 q 798 269 798 333 q 752 123 798 187 q 625 23 706 59 q 438 -14 544 -14 m 438 111 q 547 132 501 111 q 618 191 593 153 q 644 279 643 228 q 616 372 643 332 q 544 436 589 413 q 438 459 498 459 q 332 436 379 459 q 259 372 286 413 q 233 279 233 332 q 258 191 233 228 q 329 132 283 153 q 438 111 375 111 m 438 581 q 528 601 489 581 q 589 657 567 621 q 612 742 612 693 q 590 825 612 789 q 529 880 568 860 q 438 899 490 899 q 347 880 386 899 q 286 825 308 860 q 265 742 264 789 q 287 657 264 693 q 348 601 309 621 q 438 581 387 581 z "},"9":{"ha":883,"x_min":82,"x_max":802,"o":"m 433 1024 q 566 999 501 1023 q 685 920 632 975 q 770 773 738 866 q 802 542 801 680 q 775 306 802 409 q 699 131 749 202 q 579 23 650 60 q 420 -14 509 -14 q 260 22 330 -14 q 146 120 190 57 q 91 265 102 183 l 242 265 q 302 160 256 200 q 420 119 348 119 q 593 216 531 119 q 656 487 655 313 l 648 487 q 584 414 622 445 q 499 367 546 384 q 398 350 451 350 q 239 393 310 350 q 125 511 167 436 q 82 682 82 586 q 126 856 82 778 q 248 979 170 934 q 433 1024 327 1025 m 434 896 q 330 867 376 896 q 257 791 284 839 q 230 684 230 743 q 256 578 230 625 q 327 502 282 530 q 431 474 372 474 q 511 491 474 474 q 577 538 549 508 q 621 606 605 568 q 637 686 637 644 q 610 789 637 741 q 538 866 584 837 q 434 896 492 896 z "},"A":{"ha":972,"x_min":35,"x_max":938,"o":"m 196 0 l 35 0 l 398 1010 l 574 1010 l 938 0 l 776 0 l 490 827 l 482 827 l 196 0 m 223 396 l 748 396 l 748 267 l 223 267 l 223 396 z "},"Ä":{"ha":972,"x_min":35,"x_max":938,"o":"m 196 0 l 35 0 l 398 1010 l 574 1010 l 938 0 l 776 0 l 490 827 l 482 827 l 196 0 m 223 396 l 748 396 l 748 267 l 223 267 l 223 396 m 341 1129 q 280 1155 306 1129 q 254 1215 254 1181 q 280 1276 254 1252 q 341 1301 306 1301 q 403 1276 378 1301 q 428 1215 428 1252 q 403 1155 428 1181 q 341 1129 378 1129 m 631 1129 q 570 1155 596 1129 q 544 1215 544 1181 q 570 1276 544 1252 q 631 1301 596 1301 q 693 1276 668 1301 q 718 1215 718 1252 q 693 1155 718 1181 q 631 1129 668 1129 z "},"Ã":{"ha":972,"x_min":35,"x_max":938,"o":"m 196 0 l 35 0 l 398 1010 l 574 1010 l 938 0 l 776 0 l 490 827 l 482 827 l 196 0 m 223 396 l 748 396 l 748 267 l 223 267 l 223 396 m 338 1110 l 238 1114 q 283 1244 238 1195 q 392 1293 327 1293 q 445 1283 422 1293 q 487 1260 468 1273 q 527 1236 507 1246 q 572 1226 547 1226 q 618 1248 600 1227 q 636 1302 636 1270 l 734 1295 q 689 1166 733 1213 q 581 1119 645 1119 q 522 1129 545 1119 q 481 1152 499 1139 q 445 1175 464 1165 q 400 1185 426 1185 q 355 1164 373 1185 q 338 1110 338 1143 z "},"À":{"ha":972,"x_min":35,"x_max":938,"o":"m 196 0 l 35 0 l 398 1010 l 574 1010 l 938 0 l 776 0 l 490 827 l 482 827 l 196 0 m 223 396 l 748 396 l 748 267 l 223 267 l 223 396 m 429 1111 l 276 1339 l 432 1339 l 546 1111 l 429 1111 z "},"Á":{"ha":972,"x_min":35,"x_max":938,"o":"m 196 0 l 35 0 l 398 1010 l 574 1010 l 938 0 l 776 0 l 490 827 l 482 827 l 196 0 m 223 396 l 748 396 l 748 267 l 223 267 l 223 396 m 425 1111 l 541 1339 l 696 1339 l 543 1111 l 425 1111 z "},"Â":{"ha":972,"x_min":35,"x_max":938,"o":"m 196 0 l 35 0 l 398 1010 l 574 1010 l 938 0 l 776 0 l 490 827 l 482 827 l 196 0 m 223 396 l 748 396 l 748 267 l 223 267 l 223 396 m 587 1101 l 486 1233 l 385 1101 l 252 1101 l 252 1108 l 425 1317 l 547 1317 l 721 1108 l 721 1101 l 587 1101 z "},"Å":{"ha":972,"x_min":35,"x_max":938,"o":"m 196 0 l 35 0 l 398 1010 l 574 1010 l 938 0 l 776 0 l 490 827 l 482 827 l 196 0 m 223 396 l 748 396 l 748 267 l 223 267 l 223 396 m 486 1076 q 383 1118 426 1076 q 340 1220 340 1161 q 360 1293 340 1260 q 413 1346 379 1326 q 486 1365 446 1365 q 560 1346 526 1365 q 613 1293 593 1326 q 632 1220 632 1260 q 613 1147 632 1180 q 560 1095 593 1115 q 486 1076 526 1076 m 486 1151 q 536 1171 516 1151 q 555 1220 555 1192 q 536 1270 555 1249 q 486 1290 516 1290 q 437 1270 457 1290 q 417 1220 417 1249 q 436 1171 417 1192 q 486 1151 456 1151 z "},"Ǻ":{"ha":972,"x_min":35,"x_max":938,"o":"m 196 0 l 35 0 l 398 1010 l 574 1010 l 938 0 l 776 0 l 490 827 l 482 827 l 196 0 m 223 396 l 748 396 l 748 267 l 223 267 l 223 396 m 431 1395 l 530 1524 l 671 1524 l 540 1395 l 431 1395 m 486 1078 q 383 1118 426 1078 q 340 1216 340 1159 q 360 1285 340 1254 q 413 1335 379 1316 q 486 1353 446 1353 q 589 1313 546 1353 q 632 1216 632 1272 q 613 1146 632 1178 q 560 1097 593 1115 q 486 1078 527 1078 m 486 1150 q 536 1169 516 1150 q 556 1216 556 1188 q 536 1262 556 1243 q 486 1282 516 1282 q 437 1262 457 1281 q 417 1216 417 1243 q 437 1169 417 1188 q 486 1150 457 1149 z "},"":{"ha":972,"x_min":35,"x_max":951,"o":"m 196 0 l 35 0 l 398 1010 l 574 1010 l 938 0 l 776 0 l 490 827 l 482 827 l 196 0 m 223 396 l 748 396 l 748 267 l 223 267 l 223 396 m 486 1076 q 383 1118 426 1076 q 340 1220 340 1161 q 360 1293 340 1260 q 413 1346 379 1326 q 486 1365 446 1365 q 560 1346 526 1365 q 613 1293 593 1326 q 632 1220 632 1260 q 613 1147 632 1180 q 560 1095 593 1115 q 486 1076 526 1076 m 486 1151 q 536 1171 516 1151 q 555 1220 555 1192 q 536 1270 555 1249 q 486 1290 516 1290 q 437 1270 457 1290 q 417 1220 417 1249 q 436 1171 417 1192 q 486 1151 456 1151 m 843 -291 q 740 -258 781 -291 q 695 -161 699 -225 q 707 -86 692 -124 q 757 -14 722 -48 q 850 46 792 20 l 938 0 q 859 -62 892 -29 q 826 -136 826 -94 q 837 -171 826 -158 q 876 -184 849 -184 q 912 -179 897 -184 q 938 -168 928 -173 l 951 -262 q 907 -282 934 -272 q 843 -291 880 -291 z "},"Ā":{"ha":972,"x_min":35,"x_max":938,"o":"m 196 0 l 35 0 l 398 1010 l 574 1010 l 938 0 l 776 0 l 490 827 l 482 827 l 196 0 m 223 396 l 748 396 l 748 267 l 223 267 l 223 396 m 720 1263 l 720 1159 l 252 1159 l 252 1263 l 720 1263 z "},"Ă":{"ha":972,"x_min":35,"x_max":938,"o":"m 196 0 l 35 0 l 398 1010 l 574 1010 l 938 0 l 776 0 l 490 827 l 482 827 l 196 0 m 223 396 l 748 396 l 748 267 l 223 267 l 223 396 m 583 1267 l 704 1267 q 645 1131 704 1183 q 486 1079 586 1079 q 328 1131 387 1079 q 269 1267 269 1183 l 390 1267 q 412 1201 390 1230 q 486 1173 434 1173 q 561 1201 538 1173 q 583 1267 583 1229 z "},"Ą":{"ha":972,"x_min":35,"x_max":951,"o":"m 196 0 l 35 0 l 398 1010 l 574 1010 l 938 0 l 776 0 l 490 827 l 482 827 l 196 0 m 223 396 l 748 396 l 748 267 l 223 267 l 223 396 m 843 -291 q 740 -258 781 -291 q 695 -161 699 -225 q 707 -86 692 -124 q 757 -14 722 -48 q 850 46 792 20 l 938 0 q 859 -62 892 -29 q 826 -136 826 -94 q 837 -171 826 -158 q 876 -184 849 -184 q 912 -179 897 -184 q 938 -168 928 -173 l 951 -262 q 907 -282 934 -272 q 843 -291 880 -291 z "},"Ǎ":{"ha":972,"x_min":35,"x_max":938,"o":"m 196 0 l 35 0 l 398 1010 l 574 1010 l 938 0 l 776 0 l 490 827 l 482 827 l 196 0 m 223 396 l 748 396 l 748 267 l 223 267 l 223 396 m 385 1317 l 486 1185 l 587 1317 l 721 1317 l 721 1310 l 547 1101 l 425 1101 l 252 1310 l 252 1317 l 385 1317 z "},"Ǟ":{"ha":972,"x_min":35,"x_max":938,"o":"m 196 0 l 35 0 l 398 1010 l 574 1010 l 938 0 l 776 0 l 490 827 l 482 827 l 196 0 m 223 396 l 748 396 l 748 267 l 223 267 l 223 396 m 341 1129 q 280 1155 306 1129 q 254 1215 254 1181 q 280 1276 254 1252 q 341 1301 306 1301 q 403 1276 378 1301 q 428 1215 428 1252 q 403 1155 428 1181 q 341 1129 378 1129 m 631 1129 q 570 1155 596 1129 q 544 1215 544 1181 q 570 1276 544 1252 q 631 1301 596 1301 q 693 1276 668 1301 q 718 1215 718 1252 q 693 1155 718 1181 q 631 1129 668 1129 m 720 1515 l 720 1412 l 252 1412 l 252 1515 l 720 1515 z "},"Ǡ":{"ha":972,"x_min":35,"x_max":938,"o":"m 196 0 l 35 0 l 398 1010 l 574 1010 l 938 0 l 776 0 l 490 827 l 482 827 l 196 0 m 223 396 l 748 396 l 748 267 l 223 267 l 223 396 m 486 1129 q 422 1154 449 1129 q 396 1215 396 1179 q 422 1275 396 1250 q 486 1301 449 1301 q 550 1275 523 1301 q 577 1215 577 1250 q 550 1154 577 1179 q 486 1129 523 1129 m 720 1515 l 720 1412 l 252 1412 l 252 1515 l 720 1515 z "},"Ȁ":{"ha":972,"x_min":35,"x_max":938,"o":"m 196 0 l 35 0 l 398 1010 l 574 1010 l 938 0 l 776 0 l 490 827 l 482 827 l 196 0 m 223 396 l 748 396 l 748 267 l 223 267 l 223 396 m 321 1111 l 161 1339 l 324 1339 l 439 1111 l 321 1111 m 542 1111 l 427 1339 l 589 1339 l 658 1111 l 542 1111 z "},"Ȃ":{"ha":972,"x_min":35,"x_max":938,"o":"m 196 0 l 35 0 l 398 1010 l 574 1010 l 938 0 l 776 0 l 490 827 l 482 827 l 196 0 m 223 396 l 748 396 l 748 267 l 223 267 l 223 396 m 267 1135 q 326 1272 267 1218 q 485 1325 385 1325 q 644 1272 586 1325 q 702 1135 702 1218 l 581 1135 q 559 1201 581 1173 q 485 1230 537 1230 q 410 1201 432 1230 q 389 1135 388 1172 l 267 1135 z "},"Ȧ":{"ha":972,"x_min":35,"x_max":938,"o":"m 196 0 l 35 0 l 398 1010 l 574 1010 l 938 0 l 776 0 l 490 827 l 482 827 l 196 0 m 223 396 l 748 396 l 748 267 l 223 267 l 223 396 m 486 1127 q 420 1153 448 1127 q 393 1215 393 1179 q 420 1277 393 1251 q 486 1303 448 1303 q 552 1277 525 1303 q 580 1215 580 1251 q 552 1153 580 1179 q 486 1127 525 1127 z "},"Ḁ":{"ha":972,"x_min":35,"x_max":938,"o":"m 196 0 l 35 0 l 398 1010 l 574 1010 l 938 0 l 776 0 l 490 827 l 482 827 l 196 0 m 223 396 l 748 396 l 748 267 l 223 267 l 223 396 m 362 -162 q 398 -79 362 -112 q 486 -47 434 -47 q 573 -79 536 -47 q 610 -162 610 -112 q 573 -245 610 -214 q 486 -277 536 -277 q 398 -245 434 -277 q 362 -162 362 -213 m 429 -162 q 445 -202 429 -186 q 486 -218 462 -218 q 525 -202 508 -218 q 542 -162 542 -186 q 525 -122 542 -138 q 486 -106 508 -106 q 445 -122 462 -106 q 429 -162 429 -138 z "},"Ạ":{"ha":972,"x_min":35,"x_max":938,"o":"m 196 0 l 35 0 l 398 1010 l 574 1010 l 938 0 l 776 0 l 490 827 l 482 827 l 196 0 m 223 396 l 748 396 l 748 267 l 223 267 l 223 396 m 486 -261 q 420 -236 448 -261 q 393 -174 393 -210 q 420 -111 393 -137 q 486 -86 448 -86 q 552 -111 524 -86 q 579 -174 579 -137 q 552 -236 579 -210 q 486 -261 524 -261 z "},"Ả":{"ha":972,"x_min":35,"x_max":938,"o":"m 196 0 l 35 0 l 398 1010 l 574 1010 l 938 0 l 776 0 l 490 827 l 482 827 l 196 0 m 223 396 l 748 396 l 748 267 l 223 267 l 223 396 m 546 1115 l 430 1115 l 426 1215 q 500 1229 478 1218 q 521 1263 522 1241 q 491 1301 522 1290 q 418 1312 461 1312 l 422 1394 q 592 1358 534 1394 q 650 1263 650 1323 q 618 1191 650 1214 q 546 1162 585 1168 l 546 1115 z "},"Ấ":{"ha":972,"x_min":35,"x_max":943,"o":"m 196 0 l 35 0 l 398 1010 l 574 1010 l 938 0 l 776 0 l 490 827 l 482 827 l 196 0 m 223 396 l 748 396 l 748 267 l 223 267 l 223 396 m 231 1101 l 431 1272 l 541 1272 l 742 1101 l 597 1101 l 487 1199 l 377 1101 l 231 1101 m 689 1210 l 792 1390 l 943 1390 l 797 1210 l 689 1210 z "},"Ầ":{"ha":972,"x_min":30,"x_max":938,"o":"m 196 0 l 35 0 l 398 1010 l 574 1010 l 938 0 l 776 0 l 490 827 l 482 827 l 196 0 m 223 396 l 748 396 l 748 267 l 223 267 l 223 396 m 540 1270 l 741 1098 l 596 1098 l 486 1196 l 376 1098 l 231 1098 l 430 1270 l 540 1270 m 181 1389 l 283 1208 l 177 1208 l 30 1389 l 181 1389 z "},"Ẩ":{"ha":972,"x_min":35,"x_max":938,"o":"m 196 0 l 35 0 l 398 1010 l 574 1010 l 938 0 l 776 0 l 490 827 l 482 827 l 196 0 m 223 396 l 748 396 l 748 267 l 223 267 l 223 396 m 550 1261 l 740 1090 l 611 1090 l 484 1201 l 360 1090 l 230 1090 l 419 1261 l 550 1261 m 768 1182 l 677 1182 l 674 1267 q 735 1278 715 1270 q 755 1307 755 1286 q 729 1339 755 1330 q 664 1348 703 1348 l 669 1418 q 809 1389 762 1418 q 857 1308 857 1359 q 830 1246 857 1266 q 768 1221 802 1226 l 768 1182 z "},"Ẫ":{"ha":972,"x_min":35,"x_max":938,"o":"m 196 0 l 35 0 l 398 1010 l 574 1010 l 938 0 l 776 0 l 490 827 l 482 827 l 196 0 m 223 396 l 748 396 l 748 267 l 223 267 l 223 396 m 535 1241 l 740 1080 l 610 1080 l 485 1177 l 361 1080 l 230 1080 l 435 1241 l 535 1241 m 602 1413 l 663 1393 q 633 1320 663 1353 q 557 1287 603 1287 q 515 1294 533 1287 q 482 1310 497 1301 q 452 1326 468 1319 q 417 1333 437 1333 q 382 1318 398 1333 q 367 1284 367 1303 l 308 1300 q 337 1374 308 1340 q 412 1408 366 1408 q 450 1401 433 1408 q 484 1386 468 1394 q 517 1370 500 1377 q 552 1363 534 1363 q 587 1379 572 1363 q 602 1413 602 1394 z "},"Ậ":{"ha":972,"x_min":35,"x_max":938,"o":"m 196 0 l 35 0 l 398 1010 l 574 1010 l 938 0 l 776 0 l 490 827 l 482 827 l 196 0 m 223 396 l 748 396 l 748 267 l 223 267 l 223 396 m 587 1101 l 486 1233 l 385 1101 l 252 1101 l 252 1108 l 425 1317 l 547 1317 l 721 1108 l 721 1101 l 587 1101 m 486 -261 q 420 -236 448 -261 q 393 -174 393 -210 q 420 -111 393 -137 q 486 -86 448 -86 q 552 -111 524 -86 q 579 -174 579 -137 q 552 -236 579 -210 q 486 -261 524 -261 z "},"Ắ":{"ha":972,"x_min":35,"x_max":938,"o":"m 196 0 l 35 0 l 398 1010 l 574 1010 l 938 0 l 776 0 l 490 827 l 482 827 l 196 0 m 223 396 l 748 396 l 748 267 l 223 267 l 223 396 m 583 1244 l 702 1244 q 643 1137 702 1178 q 482 1095 584 1095 q 322 1137 381 1095 q 263 1244 263 1178 l 381 1244 q 404 1190 381 1213 q 482 1167 427 1167 q 560 1190 537 1167 q 583 1244 583 1213 m 437 1254 l 515 1385 l 637 1385 l 522 1254 l 437 1254 z "},"Ằ":{"ha":972,"x_min":35,"x_max":938,"o":"m 196 0 l 35 0 l 398 1010 l 574 1010 l 938 0 l 776 0 l 490 827 l 482 827 l 196 0 m 223 396 l 748 396 l 748 267 l 223 267 l 223 396 m 583 1244 l 702 1244 q 643 1138 702 1179 q 482 1096 584 1096 q 322 1138 381 1096 q 263 1244 263 1179 l 381 1244 q 404 1191 381 1214 q 482 1167 427 1167 q 560 1191 537 1167 q 583 1244 583 1214 m 452 1254 l 337 1385 l 459 1385 l 537 1254 l 452 1254 z "},"Ẳ":{"ha":972,"x_min":35,"x_max":938,"o":"m 196 0 l 35 0 l 398 1010 l 574 1010 l 938 0 l 776 0 l 490 827 l 482 827 l 196 0 m 223 396 l 748 396 l 748 267 l 223 267 l 223 396 m 578 1251 l 694 1251 q 637 1144 694 1185 q 479 1103 579 1103 q 322 1144 380 1103 q 264 1251 264 1185 l 380 1251 q 403 1198 381 1220 q 479 1175 426 1175 q 555 1198 533 1175 q 578 1251 578 1220 m 535 1268 l 431 1268 l 425 1348 q 497 1358 474 1350 q 518 1383 519 1365 q 490 1412 519 1404 q 416 1420 460 1420 l 422 1483 q 582 1456 528 1483 q 635 1384 635 1429 q 604 1329 635 1346 q 535 1308 573 1312 l 535 1268 z "},"Ẵ":{"ha":972,"x_min":35,"x_max":938,"o":"m 196 0 l 35 0 l 398 1010 l 574 1010 l 938 0 l 776 0 l 490 827 l 482 827 l 196 0 m 223 396 l 748 396 l 748 267 l 223 267 l 223 396 m 580 1256 l 697 1256 q 639 1147 697 1189 q 480 1104 581 1104 q 323 1147 381 1104 q 264 1256 264 1189 l 381 1256 q 403 1202 381 1225 q 480 1179 426 1179 q 557 1202 534 1179 q 580 1256 580 1225 m 612 1459 l 680 1438 q 648 1352 680 1389 q 566 1316 616 1316 q 506 1328 529 1316 q 461 1352 482 1340 q 411 1364 440 1364 q 375 1347 390 1364 q 360 1305 360 1330 l 291 1322 q 323 1409 291 1371 q 405 1448 355 1448 q 446 1440 427 1448 q 483 1424 465 1433 q 519 1407 501 1414 q 560 1400 538 1400 q 596 1417 581 1400 q 612 1459 612 1434 z "},"Ặ":{"ha":972,"x_min":35,"x_max":938,"o":"m 196 0 l 35 0 l 398 1010 l 574 1010 l 938 0 l 776 0 l 490 827 l 482 827 l 196 0 m 223 396 l 748 396 l 748 267 l 223 267 l 223 396 m 583 1267 l 704 1267 q 645 1131 704 1183 q 486 1079 586 1079 q 328 1131 387 1079 q 269 1267 269 1183 l 390 1267 q 412 1201 390 1230 q 486 1173 434 1173 q 561 1201 538 1173 q 583 1267 583 1229 m 486 -261 q 420 -236 448 -261 q 393 -174 393 -210 q 420 -111 393 -137 q 486 -86 448 -86 q 552 -111 524 -86 q 579 -174 579 -137 q 552 -236 579 -210 q 486 -261 524 -261 z "},"Α":{"ha":972,"x_min":35,"x_max":938,"o":"m 196 0 l 35 0 l 398 1010 l 574 1010 l 938 0 l 776 0 l 490 827 l 482 827 l 196 0 m 223 396 l 748 396 l 748 267 l 223 267 l 223 396 z "},"Ά":{"ha":972,"x_min":35,"x_max":938,"o":"m 196 0 l 35 0 l 398 1010 l 574 1010 l 938 0 l 776 0 l 490 827 l 482 827 l 196 0 m 223 396 l 748 396 l 748 267 l 223 267 l 223 396 m 140 844 l 180 1076 l 327 1076 l 235 844 l 140 844 z "},"Ἀ":{"ha":972,"x_min":35,"x_max":938,"o":"m 196 0 l 35 0 l 398 1010 l 574 1010 l 938 0 l 776 0 l 490 827 l 482 827 l 196 0 m 223 396 l 748 396 l 748 267 l 223 267 l 223 396 m 288 1010 l 288 952 q 273 876 288 911 q 232 813 259 841 q 167 765 205 785 l 112 814 q 144 853 132 832 q 162 900 156 874 q 167 956 167 925 l 167 1010 l 288 1010 z "},"Ἁ":{"ha":972,"x_min":35,"x_max":938,"o":"m 196 0 l 35 0 l 398 1010 l 574 1010 l 938 0 l 776 0 l 490 827 l 482 827 l 196 0 m 223 396 l 748 396 l 748 267 l 223 267 l 223 396 m 126 952 l 126 1010 l 248 1010 l 248 956 q 254 901 248 926 q 271 854 259 875 q 302 814 283 833 l 248 765 q 159 843 192 795 q 126 952 127 891 z "},"Ἂ":{"ha":972,"x_min":-151,"x_max":938,"o":"m 196 0 l 35 0 l 398 1010 l 574 1010 l 938 0 l 776 0 l 490 827 l 482 827 l 196 0 m 223 396 l 748 396 l 748 267 l 223 267 l 223 396 m 282 794 l 282 784 l 218 784 l 60 999 l 60 1013 l 204 1013 l 282 794 m 29 1013 l 29 958 q 14 883 29 918 q -29 819 -1 848 q -97 768 -57 790 l -151 810 q -109 877 -124 841 q -95 962 -95 913 l -95 1013 l 29 1013 z "},"Ἃ":{"ha":972,"x_min":-104,"x_max":938,"o":"m 196 0 l 35 0 l 398 1010 l 574 1010 l 938 0 l 776 0 l 490 827 l 482 827 l 196 0 m 223 396 l 748 396 l 748 267 l 223 267 l 223 396 m 288 793 l 288 781 l 224 781 l 67 996 l 67 1010 l 212 1010 l 288 793 m -104 952 l -104 1010 l 18 1010 l 18 956 q 31 877 18 911 q 73 814 43 842 l 18 765 q -71 843 -38 795 q -104 952 -104 891 z "},"Ἄ":{"ha":972,"x_min":-100,"x_max":938,"o":"m 196 0 l 35 0 l 398 1010 l 574 1010 l 938 0 l 776 0 l 490 827 l 482 827 l 196 0 m 223 396 l 748 396 l 748 267 l 223 267 l 223 396 m 90 781 l 90 793 l 168 1010 l 311 1010 l 311 996 l 154 781 l 90 781 m 76 1010 l 76 952 q 62 876 76 911 q 19 813 47 841 q -45 765 -8 785 l -100 814 q -58 877 -72 842 q -45 956 -45 911 l -45 1010 l 76 1010 z "},"Ἅ":{"ha":972,"x_min":-123,"x_max":938,"o":"m 196 0 l 35 0 l 398 1010 l 574 1010 l 938 0 l 776 0 l 490 827 l 482 827 l 196 0 m 223 396 l 748 396 l 748 267 l 223 267 l 223 396 m 83 781 l 83 793 l 159 1010 l 304 1010 l 304 996 l 146 781 l 83 781 m -1 765 q -90 842 -57 795 q -123 952 -123 890 l -123 1010 l -1 1010 l -1 956 q 12 876 -1 910 q 53 814 26 841 l -1 765 z "},"Ἆ":{"ha":972,"x_min":-17,"x_max":938,"o":"m 196 0 l 35 0 l 398 1010 l 574 1010 l 938 0 l 776 0 l 490 827 l 482 827 l 196 0 m 223 396 l 748 396 l 748 267 l 223 267 l 223 396 m 302 1173 l 370 1152 q 338 1067 370 1103 q 255 1030 306 1030 q 209 1037 228 1030 q 174 1054 189 1044 q 141 1071 158 1063 q 102 1078 124 1078 q 65 1061 80 1078 q 50 1019 50 1044 l -17 1037 q 14 1125 -17 1086 q 96 1163 45 1163 q 137 1156 118 1163 q 174 1139 156 1149 q 210 1121 192 1128 q 250 1114 228 1114 q 287 1131 271 1114 q 302 1173 302 1148 m 242 996 l 242 946 q 218 861 242 904 q 152 793 195 819 l 94 832 q 127 885 118 857 q 136 946 136 914 l 136 996 l 242 996 z "},"Ἇ":{"ha":972,"x_min":-28,"x_max":938,"o":"m 196 0 l 35 0 l 398 1010 l 574 1010 l 938 0 l 776 0 l 490 827 l 482 827 l 196 0 m 223 396 l 748 396 l 748 267 l 223 267 l 223 396 m 121 946 l 121 996 l 227 996 l 227 946 q 236 885 227 914 q 269 832 245 857 l 209 793 q 145 861 168 819 q 121 946 121 903 m 292 1173 l 360 1152 q 327 1067 360 1103 q 245 1030 295 1030 q 199 1037 218 1030 q 163 1054 179 1044 q 130 1071 147 1063 q 91 1078 113 1078 q 55 1061 70 1078 q 40 1019 40 1044 l -28 1037 q 4 1125 -28 1086 q 85 1163 35 1163 q 127 1156 108 1163 q 164 1139 146 1149 q 200 1121 182 1128 q 239 1114 218 1114 q 276 1131 261 1114 q 292 1173 292 1148 z "},"Ᾰ":{"ha":972,"x_min":35,"x_max":938,"o":"m 196 0 l 35 0 l 398 1010 l 574 1010 l 938 0 l 776 0 l 490 827 l 482 827 l 196 0 m 223 396 l 748 396 l 748 267 l 223 267 l 223 396 m 583 1267 l 704 1267 q 645 1131 704 1183 q 486 1079 586 1079 q 328 1131 387 1079 q 269 1267 269 1183 l 390 1267 q 412 1201 390 1230 q 486 1173 434 1173 q 561 1201 538 1173 q 583 1267 583 1229 z "},"Ᾱ":{"ha":972,"x_min":35,"x_max":938,"o":"m 196 0 l 35 0 l 398 1010 l 574 1010 l 938 0 l 776 0 l 490 827 l 482 827 l 196 0 m 223 396 l 748 396 l 748 267 l 223 267 l 223 396 m 720 1263 l 720 1159 l 252 1159 l 252 1263 l 720 1263 z "},"Ὰ":{"ha":972,"x_min":35,"x_max":938,"o":"m 196 0 l 35 0 l 398 1010 l 574 1010 l 938 0 l 776 0 l 490 827 l 482 827 l 196 0 m 223 396 l 748 396 l 748 267 l 223 267 l 223 396 m 218 779 l 60 996 l 60 1010 l 204 1010 l 281 794 l 281 779 l 218 779 z "},"Ⱥ":{"ha":972,"x_min":35,"x_max":938,"o":"m 799 1138 l 363 -128 l 245 -128 l 682 1138 l 799 1138 m 196 0 l 35 0 l 398 1010 l 574 1010 l 938 0 l 776 0 l 490 827 l 482 827 l 196 0 m 223 396 l 748 396 l 748 267 l 223 267 l 223 396 z "},"Ά":{"ha":972,"x_min":35,"x_max":938,"o":"m 196 0 l 35 0 l 398 1010 l 574 1010 l 938 0 l 776 0 l 490 827 l 482 827 l 196 0 m 223 396 l 748 396 l 748 267 l 223 267 l 223 396 m 143 852 l 143 867 l 218 1083 l 377 1083 l 377 1069 l 219 852 l 143 852 z "},"А":{"ha":972,"x_min":35,"x_max":938,"o":"m 196 0 l 35 0 l 398 1010 l 574 1010 l 938 0 l 776 0 l 490 827 l 482 827 l 196 0 m 223 396 l 748 396 l 748 267 l 223 267 l 223 396 z "},"Ӑ":{"ha":972,"x_min":35,"x_max":938,"o":"m 196 0 l 35 0 l 398 1010 l 574 1010 l 938 0 l 776 0 l 490 827 l 482 827 l 196 0 m 223 396 l 748 396 l 748 267 l 223 267 l 223 396 m 583 1267 l 704 1267 q 645 1131 704 1183 q 486 1079 586 1079 q 328 1131 387 1079 q 269 1267 269 1183 l 390 1267 q 412 1201 390 1230 q 486 1173 434 1173 q 561 1201 538 1173 q 583 1267 583 1229 z "},"Ӓ":{"ha":972,"x_min":35,"x_max":938,"o":"m 196 0 l 35 0 l 398 1010 l 574 1010 l 938 0 l 776 0 l 490 827 l 482 827 l 196 0 m 223 396 l 748 396 l 748 267 l 223 267 l 223 396 m 341 1129 q 280 1155 306 1129 q 254 1215 254 1181 q 280 1276 254 1252 q 341 1301 306 1301 q 403 1276 378 1301 q 428 1215 428 1252 q 403 1155 428 1181 q 341 1129 378 1129 m 631 1129 q 570 1155 596 1129 q 544 1215 544 1181 q 570 1276 544 1252 q 631 1301 596 1301 q 693 1276 668 1301 q 718 1215 718 1252 q 693 1155 718 1181 q 631 1129 668 1129 z "},"ᾈ":{"ha":972,"x_min":35,"x_max":938,"o":"m 196 0 l 35 0 l 398 1010 l 574 1010 l 938 0 l 776 0 l 490 827 l 482 827 l 196 0 m 223 396 l 748 396 l 748 267 l 223 267 l 223 396 m 550 -335 q 465 -306 499 -335 q 432 -209 432 -276 l 432 -61 l 542 -61 l 542 -207 q 550 -245 542 -234 q 576 -256 559 -256 q 593 -255 584 -256 q 606 -254 602 -254 l 606 -327 q 583 -333 597 -330 q 550 -335 570 -335 m 288 1010 l 288 952 q 273 876 288 911 q 232 813 259 841 q 167 765 205 785 l 112 814 q 144 853 132 832 q 162 900 156 874 q 167 956 167 925 l 167 1010 l 288 1010 z "},"ᾉ":{"ha":972,"x_min":35,"x_max":938,"o":"m 196 0 l 35 0 l 398 1010 l 574 1010 l 938 0 l 776 0 l 490 827 l 482 827 l 196 0 m 223 396 l 748 396 l 748 267 l 223 267 l 223 396 m 550 -335 q 465 -306 499 -335 q 432 -209 432 -276 l 432 -61 l 542 -61 l 542 -207 q 550 -245 542 -234 q 576 -256 559 -256 q 593 -255 584 -256 q 606 -254 602 -254 l 606 -327 q 583 -333 597 -330 q 550 -335 570 -335 m 126 952 l 126 1010 l 248 1010 l 248 956 q 254 901 248 926 q 271 854 259 875 q 302 814 283 833 l 248 765 q 159 843 192 795 q 126 952 127 891 z "},"ᾊ":{"ha":972,"x_min":-151,"x_max":938,"o":"m 196 0 l 35 0 l 398 1010 l 574 1010 l 938 0 l 776 0 l 490 827 l 482 827 l 196 0 m 223 396 l 748 396 l 748 267 l 223 267 l 223 396 m 550 -335 q 465 -306 499 -335 q 432 -209 432 -276 l 432 -61 l 542 -61 l 542 -207 q 550 -245 542 -234 q 576 -256 559 -256 q 593 -255 584 -256 q 606 -254 602 -254 l 606 -327 q 583 -333 597 -330 q 550 -335 570 -335 m 282 794 l 282 784 l 218 784 l 60 999 l 60 1013 l 204 1013 l 282 794 m 29 1013 l 29 958 q 14 883 29 918 q -29 819 -1 848 q -97 768 -57 790 l -151 810 q -109 877 -124 841 q -95 962 -95 913 l -95 1013 l 29 1013 z "},"ᾋ":{"ha":972,"x_min":-104,"x_max":938,"o":"m 196 0 l 35 0 l 398 1010 l 574 1010 l 938 0 l 776 0 l 490 827 l 482 827 l 196 0 m 223 396 l 748 396 l 748 267 l 223 267 l 223 396 m 550 -335 q 465 -306 499 -335 q 432 -209 432 -276 l 432 -61 l 542 -61 l 542 -207 q 550 -245 542 -234 q 576 -256 559 -256 q 593 -255 584 -256 q 606 -254 602 -254 l 606 -327 q 583 -333 597 -330 q 550 -335 570 -335 m 288 793 l 288 781 l 224 781 l 67 996 l 67 1010 l 212 1010 l 288 793 m -104 952 l -104 1010 l 18 1010 l 18 956 q 31 877 18 911 q 73 814 43 842 l 18 765 q -71 843 -38 795 q -104 952 -104 891 z "},"ᾌ":{"ha":972,"x_min":-100,"x_max":938,"o":"m 196 0 l 35 0 l 398 1010 l 574 1010 l 938 0 l 776 0 l 490 827 l 482 827 l 196 0 m 223 396 l 748 396 l 748 267 l 223 267 l 223 396 m 90 781 l 90 793 l 168 1010 l 311 1010 l 311 996 l 154 781 l 90 781 m 76 1010 l 76 952 q 62 876 76 911 q 19 813 47 841 q -45 765 -8 785 l -100 814 q -58 877 -72 842 q -45 956 -45 911 l -45 1010 l 76 1010 m 550 -335 q 465 -306 499 -335 q 432 -209 432 -276 l 432 -61 l 542 -61 l 542 -207 q 550 -245 542 -234 q 576 -256 559 -256 q 593 -255 584 -256 q 606 -254 602 -254 l 606 -327 q 583 -333 597 -330 q 550 -335 570 -335 z "},"ᾍ":{"ha":972,"x_min":-123,"x_max":938,"o":"m 196 0 l 35 0 l 398 1010 l 574 1010 l 938 0 l 776 0 l 490 827 l 482 827 l 196 0 m 223 396 l 748 396 l 748 267 l 223 267 l 223 396 m 550 -335 q 465 -306 499 -335 q 432 -209 432 -276 l 432 -61 l 542 -61 l 542 -207 q 550 -245 542 -234 q 576 -256 559 -256 q 593 -255 584 -256 q 606 -254 602 -254 l 606 -327 q 583 -333 597 -330 q 550 -335 570 -335 m 83 781 l 83 793 l 159 1010 l 304 1010 l 304 996 l 146 781 l 83 781 m -1 765 q -90 842 -57 795 q -123 952 -123 890 l -123 1010 l -1 1010 l -1 956 q 12 876 -1 910 q 53 814 26 841 l -1 765 z "},"ᾎ":{"ha":972,"x_min":-17,"x_max":938,"o":"m 196 0 l 35 0 l 398 1010 l 574 1010 l 938 0 l 776 0 l 490 827 l 482 827 l 196 0 m 223 396 l 748 396 l 748 267 l 223 267 l 223 396 m 302 1173 l 370 1152 q 338 1067 370 1103 q 255 1030 306 1030 q 209 1037 228 1030 q 174 1054 189 1044 q 141 1071 158 1063 q 102 1078 124 1078 q 65 1061 80 1078 q 50 1019 50 1044 l -17 1037 q 14 1125 -17 1086 q 96 1163 45 1163 q 137 1156 118 1163 q 174 1139 156 1149 q 210 1121 192 1128 q 250 1114 228 1114 q 287 1131 271 1114 q 302 1173 302 1148 m 242 996 l 242 946 q 218 861 242 904 q 152 793 195 819 l 94 832 q 127 885 118 857 q 136 946 136 914 l 136 996 l 242 996 m 550 -335 q 465 -306 499 -335 q 432 -209 432 -276 l 432 -61 l 542 -61 l 542 -207 q 550 -245 542 -234 q 576 -256 559 -256 q 593 -255 584 -256 q 606 -254 602 -254 l 606 -327 q 583 -333 597 -330 q 550 -335 570 -335 z "},"ᾏ":{"ha":972,"x_min":-28,"x_max":938,"o":"m 196 0 l 35 0 l 398 1010 l 574 1010 l 938 0 l 776 0 l 490 827 l 482 827 l 196 0 m 223 396 l 748 396 l 748 267 l 223 267 l 223 396 m 550 -335 q 465 -306 499 -335 q 432 -209 432 -276 l 432 -61 l 542 -61 l 542 -207 q 550 -245 542 -234 q 576 -256 559 -256 q 593 -255 584 -256 q 606 -254 602 -254 l 606 -327 q 583 -333 597 -330 q 550 -335 570 -335 m 121 946 l 121 996 l 227 996 l 227 946 q 236 885 227 914 q 269 832 245 857 l 209 793 q 145 861 168 819 q 121 946 121 903 m 292 1173 l 360 1152 q 327 1067 360 1103 q 245 1030 295 1030 q 199 1037 218 1030 q 163 1054 179 1044 q 130 1071 147 1063 q 91 1078 113 1078 q 55 1061 70 1078 q 40 1019 40 1044 l -28 1037 q 4 1125 -28 1086 q 85 1163 35 1163 q 127 1156 108 1163 q 164 1139 146 1149 q 200 1121 182 1128 q 239 1114 218 1114 q 276 1131 261 1114 q 292 1173 292 1148 z "},"ᾼ":{"ha":972,"x_min":35,"x_max":938,"o":"m 196 0 l 35 0 l 398 1010 l 574 1010 l 938 0 l 776 0 l 490 827 l 482 827 l 196 0 m 223 396 l 748 396 l 748 267 l 223 267 l 223 396 m 550 -335 q 465 -306 499 -335 q 432 -209 432 -276 l 432 -61 l 542 -61 l 542 -207 q 550 -245 542 -234 q 576 -256 559 -256 q 593 -255 584 -256 q 606 -254 602 -254 l 606 -327 q 583 -333 597 -330 q 550 -335 570 -335 z "},"Λ":{"ha":972,"x_min":35,"x_max":938,"o":"m 196 0 l 35 0 l 398 1010 l 574 1010 l 938 0 l 776 0 l 490 827 l 482 827 l 196 0 z "},"Æ":{"ha":1394,"x_min":35,"x_max":1307,"o":"m 35 0 l 505 1010 l 1301 1010 l 1301 879 l 820 879 l 820 571 l 1268 571 l 1268 440 l 820 440 l 820 131 l 1307 131 l 1307 0 l 667 0 l 667 868 l 595 868 l 202 0 l 35 0 m 255 267 l 255 396 l 749 396 l 749 267 l 255 267 z "},"Ǣ":{"ha":1394,"x_min":35,"x_max":1307,"o":"m 35 0 l 505 1010 l 1301 1010 l 1301 879 l 820 879 l 820 571 l 1268 571 l 1268 440 l 820 440 l 820 131 l 1307 131 l 1307 0 l 667 0 l 667 868 l 595 868 l 202 0 l 35 0 m 255 267 l 255 396 l 749 396 l 749 267 l 255 267 m 1136 1263 l 1136 1159 l 668 1159 l 668 1263 l 1136 1263 z "},"Ǽ":{"ha":1394,"x_min":35,"x_max":1307,"o":"m 35 0 l 505 1010 l 1301 1010 l 1301 879 l 820 879 l 820 571 l 1268 571 l 1268 440 l 820 440 l 820 131 l 1307 131 l 1307 0 l 667 0 l 667 868 l 595 868 l 202 0 l 35 0 m 255 267 l 255 396 l 749 396 l 749 267 l 255 267 m 841 1111 l 956 1339 l 1112 1339 l 959 1111 l 841 1111 z "},"Ӕ":{"ha":1394,"x_min":35,"x_max":1307,"o":"m 35 0 l 505 1010 l 1301 1010 l 1301 879 l 820 879 l 820 571 l 1268 571 l 1268 440 l 820 440 l 820 131 l 1307 131 l 1307 0 l 667 0 l 667 868 l 595 868 l 202 0 l 35 0 m 255 267 l 255 396 l 749 396 l 749 267 l 255 267 z "},"B":{"ha":908,"x_min":111,"x_max":839,"o":"m 111 0 l 111 1010 l 481 1010 q 659 975 588 1010 q 764 880 729 940 q 799 745 799 820 q 776 638 799 682 q 714 569 753 595 q 629 532 676 544 l 629 522 q 728 490 680 519 q 807 405 776 460 q 839 272 839 350 q 803 133 839 194 q 691 36 766 72 q 498 0 616 0 l 111 0 m 263 131 l 483 131 q 640 173 593 131 q 688 279 688 216 q 663 367 688 327 q 595 431 639 407 q 489 454 550 454 l 263 454 l 263 131 m 263 573 l 468 573 q 560 593 519 573 q 626 648 601 613 q 650 733 650 684 q 606 838 650 796 q 472 880 562 880 l 263 880 l 263 573 z "},"Ḃ":{"ha":908,"x_min":111,"x_max":839,"o":"m 111 0 l 111 1010 l 481 1010 q 659 975 588 1010 q 764 880 729 940 q 799 745 799 820 q 776 638 799 682 q 714 569 753 595 q 629 532 676 544 l 629 522 q 728 490 680 519 q 807 405 776 460 q 839 272 839 350 q 803 133 839 194 q 691 36 766 72 q 498 0 616 0 l 111 0 m 263 131 l 483 131 q 640 173 593 131 q 688 279 688 216 q 663 367 688 327 q 595 431 639 407 q 489 454 550 454 l 263 454 l 263 131 m 263 573 l 468 573 q 560 593 519 573 q 626 648 601 613 q 650 733 650 684 q 606 838 650 796 q 472 880 562 880 l 263 880 l 263 573 m 436 1127 q 370 1153 398 1127 q 343 1215 343 1179 q 370 1277 343 1251 q 436 1303 398 1303 q 502 1277 474 1303 q 529 1215 529 1251 q 502 1153 529 1179 q 436 1127 474 1127 z "},"Ḅ":{"ha":908,"x_min":111,"x_max":839,"o":"m 111 0 l 111 1010 l 481 1010 q 659 975 588 1010 q 764 880 729 940 q 799 745 799 820 q 776 638 799 682 q 714 569 753 595 q 629 532 676 544 l 629 522 q 728 490 680 519 q 807 405 776 460 q 839 272 839 350 q 803 133 839 194 q 691 36 766 72 q 498 0 616 0 l 111 0 m 263 131 l 483 131 q 640 173 593 131 q 688 279 688 216 q 663 367 688 327 q 595 431 639 407 q 489 454 550 454 l 263 454 l 263 131 m 263 573 l 468 573 q 560 593 519 573 q 626 648 601 613 q 650 733 650 684 q 606 838 650 796 q 472 880 562 880 l 263 880 l 263 573 m 440 -261 q 375 -236 402 -261 q 347 -174 347 -210 q 375 -111 347 -137 q 440 -86 402 -86 q 506 -111 479 -86 q 534 -174 534 -137 q 506 -236 534 -210 q 440 -261 479 -261 z "},"Ḇ":{"ha":908,"x_min":111,"x_max":839,"o":"m 111 0 l 111 1010 l 481 1010 q 659 975 588 1010 q 764 880 729 940 q 799 745 799 820 q 776 638 799 682 q 714 569 753 595 q 629 532 676 544 l 629 522 q 728 490 680 519 q 807 405 776 460 q 839 272 839 350 q 803 133 839 194 q 691 36 766 72 q 498 0 616 0 l 111 0 m 263 131 l 483 131 q 640 173 593 131 q 688 279 688 216 q 663 367 688 327 q 595 431 639 407 q 489 454 550 454 l 263 454 l 263 131 m 263 573 l 468 573 q 560 593 519 573 q 626 648 601 613 q 650 733 650 684 q 606 838 650 796 q 472 880 562 880 l 263 880 l 263 573 m 674 -125 l 674 -229 l 206 -229 l 206 -125 l 674 -125 z "},"Ƀ":{"ha":989,"x_min":39,"x_max":919,"o":"m 191 0 l 191 1010 l 561 1010 q 739 975 669 1010 q 845 880 810 940 q 880 745 880 820 q 857 638 880 682 q 795 569 834 595 q 710 532 756 544 l 710 522 q 808 490 760 519 q 888 405 856 460 q 919 272 919 350 q 883 133 919 194 q 771 36 847 72 q 579 0 696 0 l 191 0 m 344 131 l 564 131 q 721 173 673 131 q 768 279 768 216 q 744 367 768 327 q 675 431 720 407 q 569 454 630 454 l 344 454 l 344 131 m 344 573 l 548 573 q 640 593 599 573 q 706 648 682 613 q 730 733 730 684 q 687 838 730 796 q 552 880 643 880 l 344 880 l 344 573 m 39 241 l 39 343 l 492 343 l 492 241 l 39 241 z "},"Ɓ":{"ha":1144,"x_min":61,"x_max":1075,"o":"m 406 879 l 293 879 q 233 861 253 879 q 207 815 214 843 q 201 756 201 787 l 201 711 l 61 711 l 61 789 q 88 902 61 852 q 167 981 115 952 q 291 1010 218 1010 l 406 1010 l 406 879 m 347 0 l 347 1010 l 717 1010 q 895 975 825 1010 q 1000 880 966 940 q 1035 745 1035 820 q 1012 638 1035 682 q 950 569 989 595 q 865 532 912 544 l 865 522 q 963 490 915 519 q 1043 405 1012 460 q 1075 272 1075 350 q 1038 133 1075 194 q 927 36 1002 72 q 734 0 851 0 l 347 0 m 500 131 l 719 131 q 876 173 829 131 q 924 279 924 216 q 900 367 924 327 q 831 431 875 407 q 725 454 786 454 l 500 454 l 500 131 m 500 573 l 703 573 q 796 593 755 573 q 862 648 837 613 q 886 733 886 684 q 842 838 886 796 q 707 880 798 880 l 500 880 l 500 573 z "},"В":{"ha":908,"x_min":111,"x_max":839,"o":"m 111 0 l 111 1010 l 481 1010 q 659 975 588 1010 q 764 880 729 940 q 799 745 799 820 q 776 638 799 682 q 714 569 753 595 q 629 532 676 544 l 629 522 q 728 490 680 519 q 807 405 776 460 q 839 272 839 350 q 803 133 839 194 q 691 36 766 72 q 498 0 616 0 l 111 0 m 263 131 l 483 131 q 640 173 593 131 q 688 279 688 216 q 663 367 688 327 q 595 431 639 407 q 489 454 550 454 l 263 454 l 263 131 m 263 573 l 468 573 q 560 593 519 573 q 626 648 601 613 q 650 733 650 684 q 606 838 650 796 q 472 880 562 880 l 263 880 l 263 573 z "},"Β":{"ha":908,"x_min":111,"x_max":839,"o":"m 111 0 l 111 1010 l 481 1010 q 659 975 588 1010 q 764 880 729 940 q 799 745 799 820 q 776 638 799 682 q 714 569 753 595 q 629 532 676 544 l 629 522 q 728 490 680 519 q 807 405 776 460 q 839 272 839 350 q 803 133 839 194 q 691 36 766 72 q 498 0 616 0 l 111 0 m 263 131 l 483 131 q 640 173 593 131 q 688 279 688 216 q 663 367 688 327 q 595 431 639 407 q 489 454 550 454 l 263 454 l 263 131 m 263 573 l 468 573 q 560 593 519 573 q 626 648 601 613 q 650 733 650 684 q 606 838 650 796 q 472 880 562 880 l 263 880 l 263 573 z "},"C":{"ha":1021,"x_min":78,"x_max":950,"o":"m 950 682 l 796 682 q 763 768 787 731 q 704 832 739 806 q 626 872 669 858 q 534 885 582 885 q 378 841 447 885 q 270 712 309 797 q 230 505 230 627 q 270 297 230 382 q 378 169 309 212 q 534 125 447 125 q 625 138 581 125 q 703 177 668 151 q 762 240 738 203 q 796 326 787 277 l 950 325 q 902 188 938 251 q 812 81 867 126 q 687 11 757 36 q 533 -14 616 -14 q 299 49 401 -14 q 137 227 196 111 q 78 505 78 344 q 138 783 78 667 q 299 962 197 899 q 533 1024 402 1024 q 683 1001 613 1024 q 808 934 753 978 q 901 826 864 890 q 950 682 937 763 z "},"Ƈ":{"ha":1102,"x_min":78,"x_max":1114,"o":"m 950 682 l 804 682 l 804 803 q 835 927 804 876 q 919 1003 867 977 q 1036 1029 972 1029 q 1076 1029 1056 1029 q 1114 1023 1096 1028 l 1114 901 q 1092 904 1105 903 q 1069 905 1080 905 q 1010 895 1037 905 q 966 861 983 885 q 950 794 950 836 l 950 682 m 950 682 l 796 682 q 763 768 787 731 q 704 832 739 806 q 626 872 669 858 q 534 885 582 885 q 378 841 447 885 q 270 712 309 797 q 230 505 230 627 q 270 297 230 382 q 378 169 309 212 q 534 125 447 125 q 625 138 581 125 q 703 177 668 151 q 762 240 738 203 q 796 326 787 277 l 950 325 q 902 188 938 251 q 812 81 867 126 q 687 11 757 36 q 533 -14 616 -14 q 299 49 401 -14 q 137 227 196 111 q 78 505 78 344 q 138 783 78 667 q 299 962 197 899 q 533 1024 402 1024 q 683 1001 613 1024 q 808 934 753 978 q 901 826 864 890 q 950 682 937 763 z "},"Ç":{"ha":1021,"x_min":78,"x_max":950,"o":"m 950 682 l 796 682 q 763 768 787 731 q 704 832 739 806 q 626 872 669 858 q 534 885 582 885 q 378 841 447 885 q 270 712 309 797 q 230 505 230 627 q 270 297 230 382 q 378 169 309 212 q 534 125 447 125 q 625 138 581 125 q 703 177 668 151 q 762 240 738 203 q 796 326 787 277 l 950 325 q 902 188 938 251 q 812 81 867 126 q 687 11 757 36 q 533 -14 616 -14 q 299 49 401 -14 q 137 227 196 111 q 78 505 78 344 q 138 783 78 667 q 299 962 197 899 q 533 1024 402 1024 q 683 1001 613 1024 q 808 934 753 978 q 901 826 864 890 q 950 682 937 763 m 481 -1 l 578 -1 l 570 -42 q 645 -76 613 -49 q 677 -160 677 -104 q 619 -268 677 -226 q 452 -309 561 -309 l 449 -227 q 532 -212 500 -227 q 564 -164 564 -197 q 540 -118 565 -131 q 461 -99 515 -105 l 481 -1 z "},"Ć":{"ha":1021,"x_min":78,"x_max":950,"o":"m 950 682 l 796 682 q 763 768 787 731 q 704 832 739 806 q 626 872 669 858 q 534 885 582 885 q 378 841 447 885 q 270 712 309 797 q 230 505 230 627 q 270 297 230 382 q 378 169 309 212 q 534 125 447 125 q 625 138 581 125 q 703 177 668 151 q 762 240 738 203 q 796 326 787 277 l 950 325 q 902 188 938 251 q 812 81 867 126 q 687 11 757 36 q 533 -14 616 -14 q 299 49 401 -14 q 137 227 196 111 q 78 505 78 344 q 138 783 78 667 q 299 962 197 899 q 533 1024 402 1024 q 683 1001 613 1024 q 808 934 753 978 q 901 826 864 890 q 950 682 937 763 m 472 1111 l 587 1339 l 743 1339 l 590 1111 l 472 1111 z "},"Ĉ":{"ha":1021,"x_min":78,"x_max":950,"o":"m 950 682 l 796 682 q 763 768 787 731 q 704 832 739 806 q 626 872 669 858 q 534 885 582 885 q 378 841 447 885 q 270 712 309 797 q 230 505 230 627 q 270 297 230 382 q 378 169 309 212 q 534 125 447 125 q 625 138 581 125 q 703 177 668 151 q 762 240 738 203 q 796 326 787 277 l 950 325 q 902 188 938 251 q 812 81 867 126 q 687 11 757 36 q 533 -14 616 -14 q 299 49 401 -14 q 137 227 196 111 q 78 505 78 344 q 138 783 78 667 q 299 962 197 899 q 533 1024 402 1024 q 683 1001 613 1024 q 808 934 753 978 q 901 826 864 890 q 950 682 937 763 m 634 1101 l 533 1233 l 431 1101 l 298 1101 l 298 1108 l 471 1317 l 594 1317 l 767 1108 l 767 1101 l 634 1101 z "},"Ċ":{"ha":1021,"x_min":78,"x_max":950,"o":"m 950 682 l 796 682 q 763 768 787 731 q 704 832 739 806 q 626 872 669 858 q 534 885 582 885 q 378 841 447 885 q 270 712 309 797 q 230 505 230 627 q 270 297 230 382 q 378 169 309 212 q 534 125 447 125 q 625 138 581 125 q 703 177 668 151 q 762 240 738 203 q 796 326 787 277 l 950 325 q 902 188 938 251 q 812 81 867 126 q 687 11 757 36 q 533 -14 616 -14 q 299 49 401 -14 q 137 227 196 111 q 78 505 78 344 q 138 783 78 667 q 299 962 197 899 q 533 1024 402 1024 q 683 1001 613 1024 q 808 934 753 978 q 901 826 864 890 q 950 682 937 763 m 533 1127 q 467 1153 494 1127 q 439 1215 439 1179 q 467 1277 439 1251 q 533 1303 494 1303 q 599 1277 571 1303 q 626 1215 626 1251 q 599 1153 626 1179 q 533 1127 571 1127 z "},"Č":{"ha":1021,"x_min":78,"x_max":950,"o":"m 950 682 l 796 682 q 763 768 787 731 q 704 832 739 806 q 626 872 669 858 q 534 885 582 885 q 378 841 447 885 q 270 712 309 797 q 230 505 230 627 q 270 297 230 382 q 378 169 309 212 q 534 125 447 125 q 625 138 581 125 q 703 177 668 151 q 762 240 738 203 q 796 326 787 277 l 950 325 q 902 188 938 251 q 812 81 867 126 q 687 11 757 36 q 533 -14 616 -14 q 299 49 401 -14 q 137 227 196 111 q 78 505 78 344 q 138 783 78 667 q 299 962 197 899 q 533 1024 402 1024 q 683 1001 613 1024 q 808 934 753 978 q 901 826 864 890 q 950 682 937 763 m 431 1317 l 533 1185 l 634 1317 l 767 1317 l 767 1310 l 594 1101 l 471 1101 l 298 1310 l 298 1317 l 431 1317 z "},"Ḉ":{"ha":1021,"x_min":78,"x_max":950,"o":"m 950 682 l 796 682 q 763 768 787 731 q 704 832 739 806 q 626 872 669 858 q 534 885 582 885 q 378 841 447 885 q 270 712 309 797 q 230 505 230 627 q 270 297 230 382 q 378 169 309 212 q 534 125 447 125 q 625 138 581 125 q 703 177 668 151 q 762 240 738 203 q 796 326 787 277 l 950 325 q 902 188 938 251 q 812 81 867 126 q 687 11 757 36 q 533 -14 616 -14 q 299 49 401 -14 q 137 227 196 111 q 78 505 78 344 q 138 783 78 667 q 299 962 197 899 q 533 1024 402 1024 q 683 1001 613 1024 q 808 934 753 978 q 901 826 864 890 q 950 682 937 763 m 481 -1 l 578 -1 l 570 -42 q 645 -76 613 -49 q 677 -160 677 -104 q 619 -268 677 -226 q 452 -309 561 -309 l 449 -227 q 532 -212 500 -227 q 564 -164 564 -197 q 540 -118 565 -131 q 461 -99 515 -105 l 481 -1 m 472 1111 l 587 1339 l 743 1339 l 590 1111 l 472 1111 z "},"Ȼ":{"ha":1021,"x_min":78,"x_max":950,"o":"m 238 -128 l 674 1138 l 792 1138 l 356 -128 l 238 -128 m 950 682 l 796 682 q 763 768 787 731 q 704 832 739 806 q 626 872 669 858 q 534 885 582 885 q 378 841 447 885 q 270 712 309 797 q 230 505 230 627 q 270 297 230 382 q 378 169 309 212 q 534 125 447 125 q 625 138 581 125 q 703 177 668 151 q 762 240 738 203 q 796 326 787 277 l 950 325 q 902 188 938 251 q 812 81 867 126 q 687 11 757 36 q 533 -14 616 -14 q 299 49 401 -14 q 137 227 196 111 q 78 505 78 344 q 138 783 78 667 q 299 962 197 899 q 533 1024 402 1024 q 683 1001 613 1024 q 808 934 753 978 q 901 826 864 890 q 950 682 937 763 z "},"Ɔ":{"ha":1021,"x_min":72,"x_max":943,"o":"m 72 328 l 225 328 q 259 242 235 280 q 318 178 283 204 q 396 139 353 152 q 487 125 439 125 q 643 169 575 125 q 752 298 712 213 q 792 505 792 383 q 752 713 792 628 q 643 841 712 798 q 488 885 575 885 q 397 872 440 885 q 319 833 354 859 q 259 770 284 807 q 225 685 235 733 l 72 685 q 120 822 84 760 q 210 929 155 884 q 335 999 264 975 q 489 1024 406 1024 q 723 962 620 1024 q 884 783 825 899 q 943 505 943 666 q 884 227 943 343 q 722 49 825 111 q 489 -14 619 -14 q 339 9 409 -14 q 213 76 269 32 q 121 184 158 120 q 72 328 85 248 z "},"Ϲ":{"ha":1021,"x_min":78,"x_max":950,"o":"m 950 682 l 796 682 q 763 768 787 731 q 704 832 739 806 q 626 872 669 858 q 534 885 582 885 q 378 841 447 885 q 270 712 309 797 q 230 505 230 627 q 270 297 230 382 q 378 169 309 212 q 534 125 447 125 q 625 138 581 125 q 703 177 668 151 q 762 240 738 203 q 796 326 787 277 l 950 325 q 902 188 938 251 q 812 81 867 126 q 687 11 757 36 q 533 -14 616 -14 q 299 49 401 -14 q 137 227 196 111 q 78 505 78 344 q 138 783 78 667 q 299 962 197 899 q 533 1024 402 1024 q 683 1001 613 1024 q 808 934 753 978 q 901 826 864 890 q 950 682 937 763 z "},"D":{"ha":1002,"x_min":111,"x_max":924,"o":"m 438 0 l 111 0 l 111 1010 l 448 1010 q 703 950 597 1010 q 867 777 810 889 q 924 507 924 664 q 866 235 924 349 q 700 61 809 122 q 438 0 592 0 m 263 133 l 430 133 q 621 177 545 133 q 736 304 698 220 q 774 507 774 387 q 736 708 774 625 q 624 834 698 791 q 439 877 549 877 l 263 877 l 263 133 z "},"Ɗ":{"ha":1245,"x_min":61,"x_max":1166,"o":"m 61 711 l 61 789 q 88 902 61 852 q 167 981 115 952 q 291 1010 218 1010 l 406 1010 l 406 877 l 293 877 q 233 860 253 877 q 207 815 214 842 q 201 756 201 787 l 201 711 l 61 711 m 681 0 l 354 0 l 354 1010 l 691 1010 q 946 950 839 1010 q 1109 777 1053 889 q 1166 507 1166 664 q 1109 235 1166 349 q 943 61 1052 122 q 681 0 835 0 m 506 133 l 672 133 q 864 177 788 133 q 979 304 941 220 q 1017 507 1017 387 q 979 708 1017 625 q 867 834 941 791 q 682 877 792 877 l 506 877 l 506 133 z "},"Ď":{"ha":1002,"x_min":111,"x_max":924,"o":"m 438 0 l 111 0 l 111 1010 l 448 1010 q 703 950 597 1010 q 867 777 810 889 q 924 507 924 664 q 866 235 924 349 q 700 61 809 122 q 438 0 592 0 m 263 133 l 430 133 q 621 177 545 133 q 736 304 698 220 q 774 507 774 387 q 736 708 774 625 q 624 834 698 791 q 439 877 549 877 l 263 877 l 263 133 m 314 1317 l 415 1185 l 516 1317 l 650 1317 l 650 1310 l 476 1101 l 354 1101 l 181 1310 l 181 1317 l 314 1317 z "},"Ḋ":{"ha":1002,"x_min":111,"x_max":924,"o":"m 438 0 l 111 0 l 111 1010 l 448 1010 q 703 950 597 1010 q 867 777 810 889 q 924 507 924 664 q 866 235 924 349 q 700 61 809 122 q 438 0 592 0 m 263 133 l 430 133 q 621 177 545 133 q 736 304 698 220 q 774 507 774 387 q 736 708 774 625 q 624 834 698 791 q 439 877 549 877 l 263 877 l 263 133 m 415 1127 q 349 1153 377 1127 q 322 1215 322 1179 q 349 1277 322 1251 q 415 1303 377 1303 q 481 1277 454 1303 q 509 1215 509 1251 q 481 1153 509 1179 q 415 1127 454 1127 z "},"Ḍ":{"ha":1002,"x_min":111,"x_max":924,"o":"m 438 0 l 111 0 l 111 1010 l 448 1010 q 703 950 597 1010 q 867 777 810 889 q 924 507 924 664 q 866 235 924 349 q 700 61 809 122 q 438 0 592 0 m 263 133 l 430 133 q 621 177 545 133 q 736 304 698 220 q 774 507 774 387 q 736 708 774 625 q 624 834 698 791 q 439 877 549 877 l 263 877 l 263 133 m 429 -261 q 363 -236 391 -261 q 336 -174 336 -210 q 363 -111 336 -137 q 429 -86 391 -86 q 495 -111 468 -86 q 522 -174 522 -137 q 495 -236 522 -210 q 429 -261 468 -261 z "},"Ḏ":{"ha":1002,"x_min":111,"x_max":924,"o":"m 438 0 l 111 0 l 111 1010 l 448 1010 q 703 950 597 1010 q 867 777 810 889 q 924 507 924 664 q 866 235 924 349 q 700 61 809 122 q 438 0 592 0 m 263 133 l 430 133 q 621 177 545 133 q 736 304 698 220 q 774 507 774 387 q 736 708 774 625 q 624 834 698 791 q 439 877 549 877 l 263 877 l 263 133 m 663 -125 l 663 -229 l 195 -229 l 195 -125 l 663 -125 z "},"Ḑ":{"ha":1002,"x_min":111,"x_max":924,"o":"m 438 0 l 111 0 l 111 1010 l 448 1010 q 703 950 597 1010 q 867 777 810 889 q 924 507 924 664 q 866 235 924 349 q 700 61 809 122 q 438 0 592 0 m 263 133 l 430 133 q 621 177 545 133 q 736 304 698 220 q 774 507 774 387 q 736 708 774 625 q 624 834 698 791 q 439 877 549 877 l 263 877 l 263 133 m 300 -331 l 357 -80 l 502 -80 l 409 -331 l 300 -331 z "},"Ḓ":{"ha":1002,"x_min":111,"x_max":924,"o":"m 438 0 l 111 0 l 111 1010 l 448 1010 q 703 950 597 1010 q 867 777 810 889 q 924 507 924 664 q 866 235 924 349 q 700 61 809 122 q 438 0 592 0 m 263 133 l 430 133 q 621 177 545 133 q 736 304 698 220 q 774 507 774 387 q 736 708 774 625 q 624 834 698 791 q 439 877 549 877 l 263 877 l 263 133 m 531 -280 l 429 -147 l 328 -280 l 194 -280 l 194 -272 l 368 -63 l 491 -63 l 664 -272 l 664 -280 l 531 -280 z "},"Ɖ":{"ha":1002,"x_min":-40,"x_max":924,"o":"m 438 0 l 188 0 l 188 133 l 430 133 q 621 177 545 133 q 736 304 698 220 q 774 507 774 387 q 736 708 774 625 q 624 834 698 791 q 439 877 549 877 l 183 877 l 183 1010 l 448 1010 q 703 950 597 1010 q 867 777 810 889 q 924 507 924 664 q 866 235 924 349 q 700 61 809 122 q 438 0 592 0 m 263 1010 l 263 0 l 111 0 l 111 1010 l 263 1010 m -40 474 l -40 576 l 413 576 l 413 474 l -40 474 z "},"ǲ":{"ha":1768,"x_min":111,"x_max":1694,"o":"m 438 0 l 111 0 l 111 1010 l 448 1010 q 703 950 597 1010 q 867 777 810 889 q 924 507 924 664 q 866 235 924 349 q 700 61 809 122 q 438 0 592 0 m 263 133 l 430 133 q 621 177 545 133 q 736 304 698 220 q 774 507 774 387 q 736 708 774 625 q 624 834 698 791 q 439 877 549 877 l 263 877 l 263 133 m 1086 0 l 1086 101 l 1496 622 l 1496 629 l 1099 629 l 1099 758 l 1680 758 l 1680 650 l 1285 135 l 1285 128 l 1694 128 l 1694 0 l 1086 0 z "},"ǅ":{"ha":1768,"x_min":111,"x_max":1694,"o":"m 438 0 l 111 0 l 111 1010 l 448 1010 q 703 950 597 1010 q 867 777 810 889 q 924 507 924 664 q 866 235 924 349 q 700 61 809 122 q 438 0 592 0 m 263 133 l 430 133 q 621 177 545 133 q 736 304 698 220 q 774 507 774 387 q 736 708 774 625 q 624 834 698 791 q 439 877 549 877 l 263 877 l 263 133 m 1086 0 l 1086 101 l 1496 622 l 1496 629 l 1099 629 l 1099 758 l 1680 758 l 1680 650 l 1285 135 l 1285 128 l 1694 128 l 1694 0 l 1086 0 m 1283 1065 l 1384 933 l 1486 1065 l 1619 1065 l 1619 1057 l 1446 848 l 1323 848 l 1149 1057 l 1149 1065 l 1283 1065 z "},"E":{"ha":837,"x_min":111,"x_max":750,"o":"m 111 0 l 111 1010 l 744 1010 l 744 879 l 263 879 l 263 571 l 711 571 l 711 440 l 263 440 l 263 131 l 750 131 l 750 0 l 111 0 z "},"È":{"ha":837,"x_min":111,"x_max":750,"o":"m 111 0 l 111 1010 l 744 1010 l 744 879 l 263 879 l 263 571 l 711 571 l 711 440 l 263 440 l 263 131 l 750 131 l 750 0 l 111 0 m 370 1111 l 218 1339 l 373 1339 l 488 1111 l 370 1111 z "},"É":{"ha":837,"x_min":111,"x_max":750,"o":"m 111 0 l 111 1010 l 744 1010 l 744 879 l 263 879 l 263 571 l 711 571 l 711 440 l 263 440 l 263 131 l 750 131 l 750 0 l 111 0 m 366 1111 l 482 1339 l 637 1339 l 484 1111 l 366 1111 z "},"Ê":{"ha":837,"x_min":111,"x_max":750,"o":"m 111 0 l 111 1010 l 744 1010 l 744 879 l 263 879 l 263 571 l 711 571 l 711 440 l 263 440 l 263 131 l 750 131 l 750 0 l 111 0 m 529 1101 l 428 1233 l 326 1101 l 193 1101 l 193 1108 l 366 1317 l 489 1317 l 662 1108 l 662 1101 l 529 1101 z "},"Ë":{"ha":837,"x_min":111,"x_max":750,"o":"m 111 0 l 111 1010 l 744 1010 l 744 879 l 263 879 l 263 571 l 711 571 l 711 440 l 263 440 l 263 131 l 750 131 l 750 0 l 111 0 m 283 1129 q 221 1155 248 1129 q 195 1215 195 1181 q 221 1276 195 1252 q 283 1301 248 1301 q 345 1276 320 1301 q 369 1215 369 1252 q 345 1155 369 1181 q 283 1129 320 1129 m 573 1129 q 511 1155 538 1129 q 485 1215 485 1181 q 511 1276 485 1252 q 573 1301 538 1301 q 635 1276 610 1301 q 659 1215 659 1252 q 635 1155 659 1181 q 573 1129 610 1129 z "},"Ē":{"ha":837,"x_min":111,"x_max":750,"o":"m 111 0 l 111 1010 l 744 1010 l 744 879 l 263 879 l 263 571 l 711 571 l 711 440 l 263 440 l 263 131 l 750 131 l 750 0 l 111 0 m 661 1263 l 661 1159 l 193 1159 l 193 1263 l 661 1263 z "},"Ĕ":{"ha":837,"x_min":111,"x_max":750,"o":"m 111 0 l 111 1010 l 744 1010 l 744 879 l 263 879 l 263 571 l 711 571 l 711 440 l 263 440 l 263 131 l 750 131 l 750 0 l 111 0 m 524 1267 l 646 1267 q 587 1131 646 1183 q 428 1079 528 1079 q 269 1131 328 1079 q 211 1267 211 1183 l 331 1267 q 353 1201 331 1230 q 428 1173 375 1173 q 502 1201 479 1173 q 524 1267 524 1229 z "},"Ė":{"ha":837,"x_min":111,"x_max":750,"o":"m 111 0 l 111 1010 l 744 1010 l 744 879 l 263 879 l 263 571 l 711 571 l 711 440 l 263 440 l 263 131 l 750 131 l 750 0 l 111 0 m 428 1127 q 362 1153 389 1127 q 334 1215 334 1179 q 362 1277 334 1251 q 428 1303 389 1303 q 493 1277 466 1303 q 521 1215 521 1251 q 493 1153 521 1179 q 428 1127 466 1127 z "},"Ę":{"ha":837,"x_min":111,"x_max":763,"o":"m 111 0 l 111 1010 l 744 1010 l 744 879 l 263 879 l 263 571 l 711 571 l 711 440 l 263 440 l 263 131 l 750 131 l 750 0 l 111 0 m 656 -291 q 553 -258 594 -291 q 508 -161 511 -225 q 520 -86 505 -124 q 570 -14 535 -48 q 662 46 605 20 l 750 0 q 672 -62 705 -29 q 639 -136 639 -94 q 650 -171 639 -158 q 689 -184 661 -184 q 725 -179 709 -184 q 751 -168 741 -173 l 763 -262 q 719 -282 746 -272 q 656 -291 692 -291 z "},"Ě":{"ha":837,"x_min":111,"x_max":750,"o":"m 111 0 l 111 1010 l 744 1010 l 744 879 l 263 879 l 263 571 l 711 571 l 711 440 l 263 440 l 263 131 l 750 131 l 750 0 l 111 0 m 326 1317 l 428 1185 l 529 1317 l 662 1317 l 662 1310 l 489 1101 l 366 1101 l 193 1310 l 193 1317 l 326 1317 z "},"Ȅ":{"ha":837,"x_min":103,"x_max":750,"o":"m 111 0 l 111 1010 l 744 1010 l 744 879 l 263 879 l 263 571 l 711 571 l 711 440 l 263 440 l 263 131 l 750 131 l 750 0 l 111 0 m 262 1111 l 102 1339 l 265 1339 l 380 1111 l 262 1111 m 483 1111 l 367 1339 l 530 1339 l 599 1111 l 483 1111 z "},"Ȇ":{"ha":837,"x_min":111,"x_max":750,"o":"m 111 0 l 111 1010 l 744 1010 l 744 879 l 263 879 l 263 571 l 711 571 l 711 440 l 263 440 l 263 131 l 750 131 l 750 0 l 111 0 m 209 1135 q 267 1272 209 1218 q 427 1325 326 1325 q 585 1272 527 1325 q 644 1135 644 1218 l 523 1135 q 500 1201 523 1173 q 427 1230 478 1230 q 351 1201 373 1230 q 330 1135 329 1172 l 209 1135 z "},"Ȩ":{"ha":837,"x_min":111,"x_max":750,"o":"m 111 0 l 111 1010 l 744 1010 l 744 879 l 263 879 l 263 571 l 711 571 l 711 440 l 263 440 l 263 131 l 750 131 l 750 0 l 111 0 m 371 4 l 468 4 l 460 -36 q 535 -71 503 -43 q 567 -154 567 -99 q 509 -262 567 -221 q 342 -304 451 -304 l 339 -221 q 422 -207 390 -221 q 454 -159 454 -192 q 430 -112 455 -126 q 351 -94 405 -99 l 371 4 z "},"Ḕ":{"ha":837,"x_min":111,"x_max":750,"o":"m 111 0 l 111 1010 l 744 1010 l 744 879 l 263 879 l 263 571 l 711 571 l 711 440 l 263 440 l 263 131 l 750 131 l 750 0 l 111 0 m 370 1309 l 202 1467 l 359 1467 l 503 1309 l 370 1309 m 661 1236 l 661 1133 l 193 1133 l 193 1236 l 661 1236 z "},"Ḗ":{"ha":837,"x_min":111,"x_max":750,"o":"m 111 0 l 111 1010 l 744 1010 l 744 879 l 263 879 l 263 571 l 711 571 l 711 440 l 263 440 l 263 131 l 750 131 l 750 0 l 111 0 m 352 1309 l 496 1467 l 653 1467 l 485 1309 l 352 1309 m 661 1236 l 661 1133 l 193 1133 l 193 1236 l 661 1236 z "},"Ḙ":{"ha":837,"x_min":111,"x_max":750,"o":"m 111 0 l 111 1010 l 744 1010 l 744 879 l 263 879 l 263 571 l 711 571 l 711 440 l 263 440 l 263 131 l 750 131 l 750 0 l 111 0 m 521 -280 l 419 -147 l 318 -280 l 184 -280 l 184 -272 l 358 -63 l 481 -63 l 654 -272 l 654 -280 l 521 -280 z "},"Ḛ":{"ha":837,"x_min":111,"x_max":750,"o":"m 111 0 l 111 1010 l 744 1010 l 744 879 l 263 879 l 263 571 l 711 571 l 711 440 l 263 440 l 263 131 l 750 131 l 750 0 l 111 0 m 306 -257 l 207 -254 q 251 -124 207 -173 q 361 -74 295 -74 q 413 -85 391 -74 q 456 -108 436 -95 q 496 -131 476 -121 q 541 -141 516 -141 q 587 -120 569 -141 q 605 -66 605 -98 l 702 -72 q 658 -202 702 -155 q 549 -249 614 -249 q 491 -239 514 -249 q 450 -216 468 -229 q 414 -193 433 -203 q 369 -182 395 -182 q 324 -204 341 -182 q 306 -257 306 -225 z "},"Ḝ":{"ha":837,"x_min":111,"x_max":750,"o":"m 111 0 l 111 1010 l 744 1010 l 744 879 l 263 879 l 263 571 l 711 571 l 711 440 l 263 440 l 263 131 l 750 131 l 750 0 l 111 0 m 371 4 l 468 4 l 460 -36 q 535 -71 503 -43 q 567 -154 567 -99 q 509 -262 567 -221 q 342 -304 451 -304 l 339 -221 q 422 -207 390 -221 q 454 -159 454 -192 q 430 -112 455 -126 q 351 -94 405 -99 l 371 4 m 524 1267 l 646 1267 q 587 1131 646 1183 q 428 1079 528 1079 q 269 1131 328 1079 q 211 1267 211 1183 l 331 1267 q 353 1201 331 1230 q 428 1173 375 1173 q 502 1201 479 1173 q 524 1267 524 1229 z "},"Ẹ":{"ha":837,"x_min":111,"x_max":750,"o":"m 111 0 l 111 1010 l 744 1010 l 744 879 l 263 879 l 263 571 l 711 571 l 711 440 l 263 440 l 263 131 l 750 131 l 750 0 l 111 0 m 419 -261 q 354 -236 381 -261 q 326 -174 326 -210 q 354 -111 326 -137 q 419 -86 381 -86 q 485 -111 458 -86 q 512 -174 512 -137 q 485 -236 512 -210 q 419 -261 458 -261 z "},"Ẻ":{"ha":837,"x_min":111,"x_max":750,"o":"m 111 0 l 111 1010 l 744 1010 l 744 879 l 263 879 l 263 571 l 711 571 l 711 440 l 263 440 l 263 131 l 750 131 l 750 0 l 111 0 m 487 1115 l 371 1115 l 367 1215 q 441 1229 419 1218 q 462 1263 463 1241 q 432 1301 463 1290 q 359 1312 402 1312 l 363 1394 q 533 1358 475 1394 q 590 1263 591 1323 q 559 1191 591 1214 q 487 1162 526 1168 l 487 1115 z "},"Ẽ":{"ha":837,"x_min":111,"x_max":750,"o":"m 111 0 l 111 1010 l 744 1010 l 744 879 l 263 879 l 263 571 l 711 571 l 711 440 l 263 440 l 263 131 l 750 131 l 750 0 l 111 0 m 279 1102 l 180 1105 q 224 1235 180 1187 q 333 1284 268 1284 q 386 1274 363 1284 q 428 1251 408 1264 q 468 1228 448 1238 q 513 1218 488 1218 q 560 1239 542 1218 q 578 1293 578 1261 l 675 1287 q 630 1157 675 1204 q 521 1110 586 1110 q 463 1120 486 1110 q 423 1143 440 1130 q 386 1166 405 1156 q 341 1177 367 1177 q 296 1155 314 1177 q 279 1102 279 1134 z "},"Ế":{"ha":837,"x_min":111,"x_max":884,"o":"m 111 0 l 111 1010 l 744 1010 l 744 879 l 263 879 l 263 571 l 711 571 l 711 440 l 263 440 l 263 131 l 750 131 l 750 0 l 111 0 m 172 1101 l 372 1272 l 482 1272 l 683 1101 l 538 1101 l 429 1199 l 318 1101 l 172 1101 m 630 1210 l 733 1390 l 884 1390 l 738 1210 l 630 1210 z "},"Ề":{"ha":837,"x_min":-29,"x_max":750,"o":"m 111 0 l 111 1010 l 744 1010 l 744 879 l 263 879 l 263 571 l 711 571 l 711 440 l 263 440 l 263 131 l 750 131 l 750 0 l 111 0 m 481 1270 l 683 1098 l 537 1098 l 428 1196 l 318 1098 l 173 1098 l 371 1270 l 481 1270 m 122 1389 l 224 1208 l 118 1208 l -29 1389 l 122 1389 z "},"Ể":{"ha":837,"x_min":111,"x_max":798,"o":"m 111 0 l 111 1010 l 744 1010 l 744 879 l 263 879 l 263 571 l 711 571 l 711 440 l 263 440 l 263 131 l 750 131 l 750 0 l 111 0 m 492 1261 l 682 1090 l 552 1090 l 426 1201 l 301 1090 l 171 1090 l 361 1261 l 492 1261 m 710 1182 l 618 1182 l 615 1267 q 676 1278 656 1270 q 696 1307 696 1286 q 670 1339 696 1330 q 606 1348 645 1348 l 610 1418 q 751 1389 703 1418 q 799 1308 799 1359 q 771 1246 799 1266 q 710 1221 743 1226 l 710 1182 z "},"Ễ":{"ha":837,"x_min":111,"x_max":750,"o":"m 111 0 l 111 1010 l 744 1010 l 744 879 l 263 879 l 263 571 l 711 571 l 711 440 l 263 440 l 263 131 l 750 131 l 750 0 l 111 0 m 476 1241 l 681 1080 l 550 1080 l 426 1177 l 301 1080 l 171 1080 l 375 1241 l 476 1241 m 543 1413 l 604 1393 q 574 1320 604 1353 q 498 1287 544 1287 q 455 1294 473 1287 q 423 1310 437 1301 q 393 1326 408 1319 q 358 1333 378 1333 q 323 1318 339 1333 q 308 1284 308 1303 l 249 1300 q 278 1374 249 1340 q 353 1408 307 1408 q 391 1401 373 1408 q 425 1386 408 1394 q 458 1370 441 1377 q 493 1363 474 1363 q 528 1379 512 1363 q 543 1413 543 1394 z "},"Ệ":{"ha":837,"x_min":111,"x_max":750,"o":"m 111 0 l 111 1010 l 744 1010 l 744 879 l 263 879 l 263 571 l 711 571 l 711 440 l 263 440 l 263 131 l 750 131 l 750 0 l 111 0 m 529 1101 l 428 1233 l 326 1101 l 193 1101 l 193 1108 l 366 1317 l 489 1317 l 662 1108 l 662 1101 l 529 1101 m 419 -261 q 354 -236 381 -261 q 326 -174 326 -210 q 354 -111 326 -137 q 419 -86 381 -86 q 485 -111 458 -86 q 512 -174 512 -137 q 485 -236 512 -210 q 419 -261 458 -261 z "},"Ɇ":{"ha":837,"x_min":111,"x_max":750,"o":"m 696 1138 l 331 -128 l 219 -128 l 584 1138 l 696 1138 m 111 0 l 111 1010 l 744 1010 l 744 879 l 263 879 l 263 571 l 711 571 l 711 440 l 263 440 l 263 131 l 750 131 l 750 0 l 111 0 z "},"Ǝ":{"ha":837,"x_min":87,"x_max":727,"o":"m 727 1010 l 727 0 l 93 0 l 93 131 l 574 131 l 574 439 l 126 439 l 126 570 l 574 570 l 574 879 l 87 879 l 87 1010 l 727 1010 z "},"Ε":{"ha":837,"x_min":111,"x_max":750,"o":"m 111 0 l 111 1010 l 744 1010 l 744 879 l 263 879 l 263 571 l 711 571 l 711 440 l 263 440 l 263 131 l 750 131 l 750 0 l 111 0 z "},"Έ":{"ha":1003,"x_min":55,"x_max":915,"o":"m 276 0 l 276 1010 l 909 1010 l 909 879 l 429 879 l 429 571 l 876 571 l 876 440 l 429 440 l 429 131 l 915 131 l 915 0 l 276 0 m 55 844 l 95 1076 l 241 1076 l 150 844 l 55 844 z "},"Ἐ":{"ha":1021,"x_min":46,"x_max":934,"o":"m 295 0 l 295 1010 l 929 1010 l 929 879 l 448 879 l 448 571 l 896 571 l 896 440 l 448 440 l 448 131 l 935 131 l 935 0 l 295 0 m 221 1010 l 221 952 q 207 876 221 911 q 165 813 192 841 q 101 765 139 785 l 45 814 q 77 853 65 832 q 95 900 89 874 q 101 956 101 925 l 101 1010 l 221 1010 z "},"Ἑ":{"ha":1016,"x_min":54,"x_max":928,"o":"m 290 0 l 290 1010 l 923 1010 l 923 879 l 442 879 l 442 571 l 890 571 l 890 440 l 442 440 l 442 131 l 929 131 l 929 0 l 290 0 m 54 952 l 54 1010 l 176 1010 l 176 956 q 181 901 176 926 q 199 854 186 875 q 230 814 211 833 l 175 765 q 87 843 119 795 q 54 952 54 891 z "},"Ἒ":{"ha":1292,"x_min":54,"x_max":1205,"o":"m 566 0 l 566 1010 l 1199 1010 l 1199 879 l 718 879 l 718 571 l 1166 571 l 1166 440 l 718 440 l 718 131 l 1205 131 l 1205 0 l 566 0 m 486 794 l 486 784 l 422 784 l 265 999 l 265 1013 l 408 1013 l 486 794 m 233 1013 l 233 958 q 218 883 233 918 q 176 819 204 848 q 108 768 147 790 l 54 810 q 95 877 81 841 q 109 962 109 913 l 109 1013 l 233 1013 z "},"Ἓ":{"ha":1244,"x_min":53,"x_max":1157,"o":"m 518 0 l 518 1010 l 1152 1010 l 1152 879 l 671 879 l 671 571 l 1119 571 l 1119 440 l 671 440 l 671 131 l 1158 131 l 1158 0 l 518 0 m 445 793 l 445 781 l 381 781 l 223 996 l 223 1010 l 369 1010 l 445 793 m 53 952 l 53 1010 l 175 1010 l 175 956 q 187 877 175 911 q 230 814 200 842 l 175 765 q 86 843 118 795 q 53 952 53 891 z "},"Ἔ":{"ha":1242,"x_min":54,"x_max":1155,"o":"m 516 0 l 516 1010 l 1150 1010 l 1150 879 l 669 879 l 669 571 l 1117 571 l 1117 440 l 669 440 l 669 131 l 1156 131 l 1156 0 l 516 0 m 245 781 l 245 793 l 322 1010 l 466 1010 l 466 996 l 308 781 l 245 781 m 231 1010 l 231 952 q 216 876 231 911 q 174 813 202 841 q 109 765 147 785 l 54 814 q 96 877 83 842 q 109 956 109 911 l 109 1010 l 231 1010 z "},"Ἕ":{"ha":1265,"x_min":54,"x_max":1177,"o":"m 538 0 l 538 1010 l 1171 1010 l 1171 879 l 690 879 l 690 571 l 1138 571 l 1138 440 l 690 440 l 690 131 l 1177 131 l 1177 0 l 538 0 m 260 781 l 260 793 l 335 1010 l 481 1010 l 481 996 l 323 781 l 260 781 m 175 765 q 87 842 120 795 q 54 952 54 890 l 54 1010 l 176 1010 l 176 956 q 189 876 176 910 q 230 814 202 841 l 175 765 z "},"Ὲ":{"ha":1081,"x_min":54,"x_max":994,"o":"m 355 0 l 355 1010 l 988 1010 l 988 879 l 507 879 l 507 571 l 955 571 l 955 440 l 507 440 l 507 131 l 994 131 l 994 0 l 355 0 m 211 779 l 54 996 l 54 1010 l 197 1010 l 274 794 l 274 779 l 211 779 z "},"Έ":{"ha":1050,"x_min":105,"x_max":962,"o":"m 323 0 l 323 1010 l 956 1010 l 956 879 l 475 879 l 475 571 l 923 571 l 923 440 l 475 440 l 475 131 l 962 131 l 962 0 l 323 0 m 105 852 l 105 867 l 181 1083 l 339 1083 l 339 1069 l 182 852 l 105 852 z "},"Е":{"ha":837,"x_min":111,"x_max":750,"o":"m 111 0 l 111 1010 l 744 1010 l 744 879 l 263 879 l 263 571 l 711 571 l 711 440 l 263 440 l 263 131 l 750 131 l 750 0 l 111 0 z "},"Ѐ":{"ha":837,"x_min":111,"x_max":750,"o":"m 111 0 l 111 1010 l 744 1010 l 744 879 l 263 879 l 263 571 l 711 571 l 711 440 l 263 440 l 263 131 l 750 131 l 750 0 l 111 0 m 370 1111 l 218 1339 l 373 1339 l 488 1111 l 370 1111 z "},"Ё":{"ha":837,"x_min":111,"x_max":750,"o":"m 111 0 l 111 1010 l 744 1010 l 744 879 l 263 879 l 263 571 l 711 571 l 711 440 l 263 440 l 263 131 l 750 131 l 750 0 l 111 0 m 283 1129 q 221 1155 248 1129 q 195 1215 195 1181 q 221 1276 195 1252 q 283 1301 248 1301 q 345 1276 320 1301 q 369 1215 369 1252 q 345 1155 369 1181 q 283 1129 320 1129 m 573 1129 q 511 1155 538 1129 q 485 1215 485 1181 q 511 1276 485 1252 q 573 1301 538 1301 q 635 1276 610 1301 q 659 1215 659 1252 q 635 1155 659 1181 q 573 1129 610 1129 z "},"Ӗ":{"ha":837,"x_min":111,"x_max":750,"o":"m 111 0 l 111 1010 l 744 1010 l 744 879 l 263 879 l 263 571 l 711 571 l 711 440 l 263 440 l 263 131 l 750 131 l 750 0 l 111 0 m 524 1267 l 646 1267 q 587 1131 646 1183 q 428 1079 528 1079 q 269 1131 328 1079 q 211 1267 211 1183 l 331 1267 q 353 1201 331 1230 q 428 1173 375 1173 q 502 1201 479 1173 q 524 1267 524 1229 z "},"F":{"ha":814,"x_min":111,"x_max":737,"o":"m 111 0 l 111 1010 l 737 1010 l 737 879 l 263 879 l 263 571 l 692 571 l 692 440 l 263 440 l 263 0 l 111 0 z "},"Ƒ":{"ha":824,"x_min":-25,"x_max":748,"o":"m 121 0 l 274 0 l 274 -70 q 256 -167 274 -126 q 207 -234 239 -208 q 130 -272 176 -260 q 29 -284 85 -284 q 8 -283 20 -284 q -25 -279 -3 -283 l -25 -158 q -7 -160 -17 -159 q 14 -161 4 -161 q 90 -141 59 -161 q 121 -68 121 -122 l 121 0 m 121 0 l 121 1010 l 748 1010 l 748 879 l 274 879 l 274 571 l 703 571 l 703 440 l 274 440 l 274 0 l 121 0 z "},"Ḟ":{"ha":814,"x_min":111,"x_max":737,"o":"m 111 0 l 111 1010 l 737 1010 l 737 879 l 263 879 l 263 571 l 692 571 l 692 440 l 263 440 l 263 0 l 111 0 m 435 1127 q 369 1153 397 1127 q 342 1215 342 1179 q 369 1277 342 1251 q 435 1303 397 1303 q 501 1277 473 1303 q 528 1215 528 1251 q 501 1153 528 1179 q 435 1127 473 1127 z "},"Ⅎ":{"ha":814,"x_min":76,"x_max":703,"o":"m 703 1010 l 703 0 l 76 0 l 76 131 l 550 131 l 550 439 l 121 439 l 121 570 l 550 570 l 550 1010 l 703 1010 z "},"G":{"ha":1040,"x_min":78,"x_max":958,"o":"m 795 691 q 756 772 780 736 q 699 833 732 807 q 624 872 666 858 q 532 885 582 885 q 378 841 446 885 q 270 712 309 797 q 230 506 230 628 q 270 298 230 383 q 379 169 310 213 q 538 125 449 125 q 681 159 620 125 q 777 254 743 192 q 810 399 810 315 l 850 391 l 561 391 l 561 517 l 958 517 l 958 402 q 904 181 958 275 q 755 37 850 88 q 538 -14 660 -14 q 297 49 400 -14 q 136 229 194 112 q 78 505 78 345 q 112 722 78 625 q 206 885 145 818 q 350 988 267 952 q 531 1024 433 1024 q 683 1000 613 1024 q 810 931 754 976 q 902 826 865 887 q 951 691 938 765 l 795 691 z "},"Ǥ":{"ha":1040,"x_min":78,"x_max":1019,"o":"m 1019 314 l 1019 223 l 561 223 l 561 314 l 1019 314 m 795 691 q 756 772 780 736 q 699 833 732 807 q 624 872 666 858 q 532 885 582 885 q 378 841 446 885 q 270 712 309 797 q 230 506 230 628 q 270 298 230 383 q 379 169 310 213 q 538 125 449 125 q 681 159 620 125 q 777 254 743 192 q 810 399 810 315 l 850 391 l 561 391 l 561 517 l 958 517 l 958 402 q 904 181 958 275 q 755 37 850 88 q 538 -14 660 -14 q 297 49 400 -14 q 136 229 194 112 q 78 505 78 345 q 112 722 78 625 q 206 885 145 818 q 350 988 267 952 q 531 1024 433 1024 q 683 1000 613 1024 q 810 931 754 976 q 902 826 865 887 q 951 691 938 765 l 795 691 z "},"Ɠ":{"ha":1102,"x_min":78,"x_max":1111,"o":"m 949 691 l 794 691 l 798 813 q 818 910 800 868 q 866 981 835 952 q 939 1025 896 1010 q 1033 1040 981 1040 q 1073 1038 1054 1040 q 1111 1032 1093 1037 l 1111 910 q 1090 913 1101 912 q 1066 914 1078 914 q 1007 906 1034 914 q 965 875 981 898 q 949 813 949 853 l 949 691 m 795 691 q 756 772 780 736 q 699 833 732 807 q 624 872 666 858 q 532 885 582 885 q 378 841 446 885 q 270 712 309 797 q 230 506 230 628 q 270 298 230 383 q 379 169 310 213 q 538 125 449 125 q 681 159 620 125 q 777 254 743 192 q 810 399 810 315 l 850 391 l 561 391 l 561 517 l 958 517 l 958 402 q 904 181 958 275 q 755 37 850 88 q 538 -14 660 -14 q 297 49 400 -14 q 136 229 194 112 q 78 505 78 345 q 112 722 78 625 q 206 885 145 818 q 350 988 267 952 q 531 1024 433 1024 q 683 1000 613 1024 q 810 931 754 976 q 902 826 865 887 q 951 691 938 765 l 795 691 z "},"Ĝ":{"ha":1040,"x_min":78,"x_max":958,"o":"m 795 691 q 756 772 780 736 q 699 833 732 807 q 624 872 666 858 q 532 885 582 885 q 378 841 446 885 q 270 712 309 797 q 230 506 230 628 q 270 298 230 383 q 379 169 310 213 q 538 125 449 125 q 681 159 620 125 q 777 254 743 192 q 810 399 810 315 l 850 391 l 561 391 l 561 517 l 958 517 l 958 402 q 904 181 958 275 q 755 37 850 88 q 538 -14 660 -14 q 297 49 400 -14 q 136 229 194 112 q 78 505 78 345 q 112 722 78 625 q 206 885 145 818 q 350 988 267 952 q 531 1024 433 1024 q 683 1000 613 1024 q 810 931 754 976 q 902 826 865 887 q 951 691 938 765 l 795 691 m 630 1101 l 529 1233 l 428 1101 l 294 1101 l 294 1108 l 468 1317 l 590 1317 l 764 1108 l 764 1101 l 630 1101 z "},"Ğ":{"ha":1040,"x_min":78,"x_max":958,"o":"m 795 691 q 756 772 780 736 q 699 833 732 807 q 624 872 666 858 q 532 885 582 885 q 378 841 446 885 q 270 712 309 797 q 230 506 230 628 q 270 298 230 383 q 379 169 310 213 q 538 125 449 125 q 681 159 620 125 q 777 254 743 192 q 810 399 810 315 l 850 391 l 561 391 l 561 517 l 958 517 l 958 402 q 904 181 958 275 q 755 37 850 88 q 538 -14 660 -14 q 297 49 400 -14 q 136 229 194 112 q 78 505 78 345 q 112 722 78 625 q 206 885 145 818 q 350 988 267 952 q 531 1024 433 1024 q 683 1000 613 1024 q 810 931 754 976 q 902 826 865 887 q 951 691 938 765 l 795 691 m 626 1267 l 747 1267 q 688 1131 747 1183 q 529 1079 629 1079 q 371 1131 430 1079 q 312 1267 312 1183 l 433 1267 q 455 1201 433 1230 q 529 1173 476 1173 q 603 1201 581 1173 q 626 1267 626 1229 z "},"Ġ":{"ha":1040,"x_min":78,"x_max":958,"o":"m 795 691 q 756 772 780 736 q 699 833 732 807 q 624 872 666 858 q 532 885 582 885 q 378 841 446 885 q 270 712 309 797 q 230 506 230 628 q 270 298 230 383 q 379 169 310 213 q 538 125 449 125 q 681 159 620 125 q 777 254 743 192 q 810 399 810 315 l 850 391 l 561 391 l 561 517 l 958 517 l 958 402 q 904 181 958 275 q 755 37 850 88 q 538 -14 660 -14 q 297 49 400 -14 q 136 229 194 112 q 78 505 78 345 q 112 722 78 625 q 206 885 145 818 q 350 988 267 952 q 531 1024 433 1024 q 683 1000 613 1024 q 810 931 754 976 q 902 826 865 887 q 951 691 938 765 l 795 691 m 529 1127 q 463 1153 491 1127 q 436 1215 436 1179 q 463 1277 436 1251 q 529 1303 491 1303 q 595 1277 568 1303 q 622 1215 622 1251 q 595 1153 622 1179 q 529 1127 568 1127 z "},"Ģ":{"ha":1040,"x_min":78,"x_max":958,"o":"m 795 691 q 756 772 780 736 q 699 833 732 807 q 624 872 666 858 q 532 885 582 885 q 378 841 446 885 q 270 712 309 797 q 230 506 230 628 q 270 298 230 383 q 379 169 310 213 q 538 125 449 125 q 681 159 620 125 q 777 254 743 192 q 810 399 810 315 l 850 391 l 561 391 l 561 517 l 958 517 l 958 402 q 904 181 958 275 q 755 37 850 88 q 538 -14 660 -14 q 297 49 400 -14 q 136 229 194 112 q 78 505 78 345 q 112 722 78 625 q 206 885 145 818 q 350 988 267 952 q 531 1024 433 1024 q 683 1000 613 1024 q 810 931 754 976 q 902 826 865 887 q 951 691 938 765 l 795 691 m 398 -330 l 455 -79 l 600 -79 l 508 -330 l 398 -330 z "},"Ǧ":{"ha":1040,"x_min":78,"x_max":958,"o":"m 795 691 q 756 772 780 736 q 699 833 732 807 q 624 872 666 858 q 532 885 582 885 q 378 841 446 885 q 270 712 309 797 q 230 506 230 628 q 270 298 230 383 q 379 169 310 213 q 538 125 449 125 q 681 159 620 125 q 777 254 743 192 q 810 399 810 315 l 850 391 l 561 391 l 561 517 l 958 517 l 958 402 q 904 181 958 275 q 755 37 850 88 q 538 -14 660 -14 q 297 49 400 -14 q 136 229 194 112 q 78 505 78 345 q 112 722 78 625 q 206 885 145 818 q 350 988 267 952 q 531 1024 433 1024 q 683 1000 613 1024 q 810 931 754 976 q 902 826 865 887 q 951 691 938 765 l 795 691 m 428 1317 l 529 1185 l 630 1317 l 764 1317 l 764 1310 l 590 1101 l 468 1101 l 294 1310 l 294 1317 l 428 1317 z "},"Ǵ":{"ha":1040,"x_min":78,"x_max":958,"o":"m 795 691 q 756 772 780 736 q 699 833 732 807 q 624 872 666 858 q 532 885 582 885 q 378 841 446 885 q 270 712 309 797 q 230 506 230 628 q 270 298 230 383 q 379 169 310 213 q 538 125 449 125 q 681 159 620 125 q 777 254 743 192 q 810 399 810 315 l 850 391 l 561 391 l 561 517 l 958 517 l 958 402 q 904 181 958 275 q 755 37 850 88 q 538 -14 660 -14 q 297 49 400 -14 q 136 229 194 112 q 78 505 78 345 q 112 722 78 625 q 206 885 145 818 q 350 988 267 952 q 531 1024 433 1024 q 683 1000 613 1024 q 810 931 754 976 q 902 826 865 887 q 951 691 938 765 l 795 691 m 468 1111 l 583 1339 l 739 1339 l 586 1111 l 468 1111 z "},"Ḡ":{"ha":1040,"x_min":78,"x_max":958,"o":"m 795 691 q 756 772 780 736 q 699 833 732 807 q 624 872 666 858 q 532 885 582 885 q 378 841 446 885 q 270 712 309 797 q 230 506 230 628 q 270 298 230 383 q 379 169 310 213 q 538 125 449 125 q 681 159 620 125 q 777 254 743 192 q 810 399 810 315 l 850 391 l 561 391 l 561 517 l 958 517 l 958 402 q 904 181 958 275 q 755 37 850 88 q 538 -14 660 -14 q 297 49 400 -14 q 136 229 194 112 q 78 505 78 345 q 112 722 78 625 q 206 885 145 818 q 350 988 267 952 q 531 1024 433 1024 q 683 1000 613 1024 q 810 931 754 976 q 902 826 865 887 q 951 691 938 765 l 795 691 m 763 1263 l 763 1159 l 295 1159 l 295 1263 l 763 1263 z "},"":{"ha":1050,"x_min":78,"x_max":968,"o":"m 538 -14 q 297 49 401 -14 q 136 229 194 112 q 78 505 78 345 q 113 722 78 625 q 209 885 147 818 q 354 988 270 952 q 535 1024 437 1024 q 688 1000 617 1024 q 817 931 760 976 q 911 826 873 887 q 961 691 948 765 l 804 691 q 766 772 791 736 q 707 833 742 807 q 629 872 672 858 q 536 885 586 885 q 381 841 450 885 q 271 712 311 797 q 230 506 230 628 q 270 298 230 383 q 379 169 310 213 q 538 125 449 125 q 686 161 622 125 q 783 259 749 196 q 818 402 818 322 l 842 391 l 561 391 l 561 517 l 968 517 l 968 0 l 850 0 l 836 121 l 832 121 q 706 21 776 56 q 538 -14 635 -14 z "},"":{"ha":1050,"x_min":78,"x_max":1029,"o":"m 1029 314 l 1029 223 l 561 223 l 561 314 l 1029 314 m 538 -14 q 297 49 401 -14 q 136 229 194 112 q 78 505 78 345 q 113 722 78 625 q 209 885 147 818 q 354 988 270 952 q 535 1024 437 1024 q 688 1000 617 1024 q 817 931 760 976 q 911 826 873 887 q 961 691 948 765 l 804 691 q 766 772 791 736 q 707 833 742 807 q 629 872 672 858 q 536 885 586 885 q 381 841 450 885 q 271 712 311 797 q 230 506 230 628 q 270 298 230 383 q 379 169 310 213 q 538 125 449 125 q 686 161 622 125 q 783 259 749 196 q 818 402 818 322 l 842 391 l 561 391 l 561 517 l 968 517 l 968 0 l 850 0 l 836 121 l 832 121 q 706 21 776 56 q 538 -14 635 -14 z "},"":{"ha":1102,"x_min":78,"x_max":1123,"o":"m 961 691 l 805 691 l 810 813 q 829 910 812 868 q 877 981 846 952 q 950 1025 908 1010 q 1045 1040 993 1040 q 1085 1038 1065 1040 q 1123 1032 1105 1037 l 1123 910 q 1101 913 1113 912 q 1078 914 1090 914 q 1019 906 1046 914 q 977 875 992 898 q 961 813 961 853 l 961 691 m 538 -14 q 297 49 401 -14 q 136 229 194 112 q 78 505 78 345 q 113 722 78 625 q 209 885 147 818 q 354 988 270 952 q 535 1024 437 1024 q 688 1000 617 1024 q 817 931 760 976 q 911 826 873 887 q 961 691 948 765 l 804 691 q 766 772 791 736 q 707 833 742 807 q 629 872 672 858 q 536 885 586 885 q 381 841 450 885 q 271 712 311 797 q 230 506 230 628 q 270 298 230 383 q 379 169 310 213 q 538 125 449 125 q 686 161 622 125 q 783 259 749 196 q 818 402 818 322 l 842 391 l 561 391 l 561 517 l 968 517 l 968 0 l 850 0 l 836 121 l 832 121 q 706 21 776 56 q 538 -14 635 -14 z "},"":{"ha":1050,"x_min":78,"x_max":968,"o":"m 538 -14 q 297 49 401 -14 q 136 229 194 112 q 78 505 78 345 q 113 722 78 625 q 209 885 147 818 q 354 988 270 952 q 535 1024 437 1024 q 688 1000 617 1024 q 817 931 760 976 q 911 826 873 887 q 961 691 948 765 l 804 691 q 766 772 791 736 q 707 833 742 807 q 629 872 672 858 q 536 885 586 885 q 381 841 450 885 q 271 712 311 797 q 230 506 230 628 q 270 298 230 383 q 379 169 310 213 q 538 125 449 125 q 686 161 622 125 q 783 259 749 196 q 818 402 818 322 l 842 391 l 561 391 l 561 517 l 968 517 l 968 0 l 850 0 l 836 121 l 832 121 q 706 21 776 56 q 538 -14 635 -14 m 630 1101 l 529 1233 l 428 1101 l 294 1101 l 294 1108 l 468 1317 l 590 1317 l 764 1108 l 764 1101 l 630 1101 z "},"":{"ha":1050,"x_min":78,"x_max":968,"o":"m 538 -14 q 297 49 401 -14 q 136 229 194 112 q 78 505 78 345 q 113 722 78 625 q 209 885 147 818 q 354 988 270 952 q 535 1024 437 1024 q 688 1000 617 1024 q 817 931 760 976 q 911 826 873 887 q 961 691 948 765 l 804 691 q 766 772 791 736 q 707 833 742 807 q 629 872 672 858 q 536 885 586 885 q 381 841 450 885 q 271 712 311 797 q 230 506 230 628 q 270 298 230 383 q 379 169 310 213 q 538 125 449 125 q 686 161 622 125 q 783 259 749 196 q 818 402 818 322 l 842 391 l 561 391 l 561 517 l 968 517 l 968 0 l 850 0 l 836 121 l 832 121 q 706 21 776 56 q 538 -14 635 -14 m 626 1267 l 747 1267 q 688 1131 747 1183 q 529 1079 629 1079 q 371 1131 430 1079 q 312 1267 312 1183 l 433 1267 q 455 1201 433 1230 q 529 1173 476 1173 q 603 1201 581 1173 q 626 1267 626 1229 z "},"":{"ha":1050,"x_min":78,"x_max":968,"o":"m 538 -14 q 297 49 401 -14 q 136 229 194 112 q 78 505 78 345 q 113 722 78 625 q 209 885 147 818 q 354 988 270 952 q 535 1024 437 1024 q 688 1000 617 1024 q 817 931 760 976 q 911 826 873 887 q 961 691 948 765 l 804 691 q 766 772 791 736 q 707 833 742 807 q 629 872 672 858 q 536 885 586 885 q 381 841 450 885 q 271 712 311 797 q 230 506 230 628 q 270 298 230 383 q 379 169 310 213 q 538 125 449 125 q 686 161 622 125 q 783 259 749 196 q 818 402 818 322 l 842 391 l 561 391 l 561 517 l 968 517 l 968 0 l 850 0 l 836 121 l 832 121 q 706 21 776 56 q 538 -14 635 -14 m 529 1127 q 463 1153 491 1127 q 436 1215 436 1179 q 463 1277 436 1251 q 529 1303 491 1303 q 595 1277 568 1303 q 622 1215 622 1251 q 595 1153 622 1179 q 529 1127 568 1127 z "},"":{"ha":1050,"x_min":78,"x_max":968,"o":"m 538 -14 q 297 49 401 -14 q 136 229 194 112 q 78 505 78 345 q 113 722 78 625 q 209 885 147 818 q 354 988 270 952 q 535 1024 437 1024 q 688 1000 617 1024 q 817 931 760 976 q 911 826 873 887 q 961 691 948 765 l 804 691 q 766 772 791 736 q 707 833 742 807 q 629 872 672 858 q 536 885 586 885 q 381 841 450 885 q 271 712 311 797 q 230 506 230 628 q 270 298 230 383 q 379 169 310 213 q 538 125 449 125 q 686 161 622 125 q 783 259 749 196 q 818 402 818 322 l 842 391 l 561 391 l 561 517 l 968 517 l 968 0 l 850 0 l 836 121 l 832 121 q 706 21 776 56 q 538 -14 635 -14 m 398 -330 l 455 -79 l 600 -79 l 508 -330 l 398 -330 z "},"":{"ha":1050,"x_min":78,"x_max":968,"o":"m 538 -14 q 297 49 401 -14 q 136 229 194 112 q 78 505 78 345 q 113 722 78 625 q 209 885 147 818 q 354 988 270 952 q 535 1024 437 1024 q 688 1000 617 1024 q 817 931 760 976 q 911 826 873 887 q 961 691 948 765 l 804 691 q 766 772 791 736 q 707 833 742 807 q 629 872 672 858 q 536 885 586 885 q 381 841 450 885 q 271 712 311 797 q 230 506 230 628 q 270 298 230 383 q 379 169 310 213 q 538 125 449 125 q 686 161 622 125 q 783 259 749 196 q 818 402 818 322 l 842 391 l 561 391 l 561 517 l 968 517 l 968 0 l 850 0 l 836 121 l 832 121 q 706 21 776 56 q 538 -14 635 -14 m 428 1317 l 529 1185 l 630 1317 l 764 1317 l 764 1310 l 590 1101 l 468 1101 l 294 1310 l 294 1317 l 428 1317 z "},"":{"ha":1050,"x_min":78,"x_max":968,"o":"m 538 -14 q 297 49 401 -14 q 136 229 194 112 q 78 505 78 345 q 113 722 78 625 q 209 885 147 818 q 354 988 270 952 q 535 1024 437 1024 q 688 1000 617 1024 q 817 931 760 976 q 911 826 873 887 q 961 691 948 765 l 804 691 q 766 772 791 736 q 707 833 742 807 q 629 872 672 858 q 536 885 586 885 q 381 841 450 885 q 271 712 311 797 q 230 506 230 628 q 270 298 230 383 q 379 169 310 213 q 538 125 449 125 q 686 161 622 125 q 783 259 749 196 q 818 402 818 322 l 842 391 l 561 391 l 561 517 l 968 517 l 968 0 l 850 0 l 836 121 l 832 121 q 706 21 776 56 q 538 -14 635 -14 m 468 1111 l 583 1339 l 739 1339 l 586 1111 l 468 1111 z "},"":{"ha":1050,"x_min":78,"x_max":968,"o":"m 538 -14 q 297 49 401 -14 q 136 229 194 112 q 78 505 78 345 q 113 722 78 625 q 209 885 147 818 q 354 988 270 952 q 535 1024 437 1024 q 688 1000 617 1024 q 817 931 760 976 q 911 826 873 887 q 961 691 948 765 l 804 691 q 766 772 791 736 q 707 833 742 807 q 629 872 672 858 q 536 885 586 885 q 381 841 450 885 q 271 712 311 797 q 230 506 230 628 q 270 298 230 383 q 379 169 310 213 q 538 125 449 125 q 686 161 622 125 q 783 259 749 196 q 818 402 818 322 l 842 391 l 561 391 l 561 517 l 968 517 l 968 0 l 850 0 l 836 121 l 832 121 q 706 21 776 56 q 538 -14 635 -14 m 763 1263 l 763 1159 l 295 1159 l 295 1263 l 763 1263 z "},"H":{"ha":1031,"x_min":111,"x_max":920,"o":"m 111 0 l 111 1010 l 263 1010 l 263 571 l 767 571 l 767 1010 l 920 1010 l 920 0 l 767 0 l 767 440 l 263 440 l 263 0 l 111 0 z "},"Ḩ":{"ha":1031,"x_min":111,"x_max":920,"o":"m 111 0 l 111 1010 l 263 1010 l 263 571 l 767 571 l 767 1010 l 920 1010 l 920 0 l 767 0 l 767 440 l 263 440 l 263 0 l 111 0 m 148 2 l 245 2 l 237 -38 q 312 -73 280 -45 q 344 -156 344 -100 q 286 -264 344 -222 q 119 -305 228 -305 l 116 -223 q 199 -208 167 -223 q 231 -160 231 -193 q 207 -114 232 -127 q 128 -95 182 -101 l 148 2 z "},"Ĥ":{"ha":1031,"x_min":111,"x_max":920,"o":"m 111 0 l 111 1010 l 263 1010 l 263 571 l 767 571 l 767 1010 l 920 1010 l 920 0 l 767 0 l 767 440 l 263 440 l 263 0 l 111 0 m 620 1102 l 519 1235 l 418 1102 l 285 1102 l 285 1110 l 458 1319 l 581 1319 l 754 1110 l 754 1102 l 620 1102 z "},"Ȟ":{"ha":1031,"x_min":111,"x_max":920,"o":"m 111 0 l 111 1010 l 263 1010 l 263 571 l 767 571 l 767 1010 l 920 1010 l 920 0 l 767 0 l 767 440 l 263 440 l 263 0 l 111 0 m 418 1319 l 519 1187 l 620 1319 l 754 1319 l 754 1311 l 581 1102 l 458 1102 l 285 1311 l 285 1319 l 418 1319 z "},"Ḣ":{"ha":1031,"x_min":111,"x_max":920,"o":"m 111 0 l 111 1010 l 263 1010 l 263 571 l 767 571 l 767 1010 l 920 1010 l 920 0 l 767 0 l 767 440 l 263 440 l 263 0 l 111 0 m 519 1128 q 454 1154 481 1128 q 426 1216 426 1180 q 454 1279 426 1253 q 519 1305 481 1305 q 585 1279 558 1305 q 613 1216 613 1253 q 585 1154 613 1180 q 519 1128 558 1128 z "},"Ḥ":{"ha":1031,"x_min":111,"x_max":920,"o":"m 111 0 l 111 1010 l 263 1010 l 263 571 l 767 571 l 767 1010 l 920 1010 l 920 0 l 767 0 l 767 440 l 263 440 l 263 0 l 111 0 m 514 -261 q 449 -236 476 -261 q 421 -174 421 -210 q 449 -111 421 -137 q 514 -86 476 -86 q 580 -111 553 -86 q 608 -174 608 -137 q 580 -236 608 -210 q 514 -261 553 -261 z "},"Ḧ":{"ha":1031,"x_min":111,"x_max":920,"o":"m 111 0 l 111 1010 l 263 1010 l 263 571 l 767 571 l 767 1010 l 920 1010 l 920 0 l 767 0 l 767 440 l 263 440 l 263 0 l 111 0 m 374 1130 q 313 1156 339 1130 q 287 1216 287 1182 q 313 1278 287 1253 q 374 1303 339 1303 q 436 1278 411 1303 q 461 1216 461 1253 q 436 1156 461 1182 q 374 1130 411 1130 m 664 1130 q 603 1156 629 1130 q 577 1216 577 1182 q 603 1278 577 1253 q 664 1303 629 1303 q 726 1278 701 1303 q 751 1216 751 1253 q 726 1156 751 1182 q 664 1130 701 1130 z "},"Ḫ":{"ha":1031,"x_min":111,"x_max":920,"o":"m 111 0 l 111 1010 l 263 1010 l 263 571 l 767 571 l 767 1010 l 920 1010 l 920 0 l 767 0 l 767 440 l 263 440 l 263 0 l 111 0 m 611 -62 l 731 -62 q 705 -161 731 -118 q 630 -228 678 -204 q 514 -253 581 -253 q 356 -199 415 -253 q 296 -62 296 -145 l 417 -62 q 440 -129 417 -100 q 513 -157 462 -157 q 588 -128 565 -157 q 611 -62 611 -99 z "},"Ħ":{"ha":1094,"x_min":61,"x_max":1033,"o":"m 1033 810 l 1033 701 l 61 701 l 61 810 l 1033 810 m 143 0 l 143 1010 l 295 1010 l 295 571 l 799 571 l 799 1010 l 952 1010 l 952 0 l 799 0 l 799 440 l 295 440 l 295 0 l 143 0 z "},"Ӈ":{"ha":1031,"x_min":111,"x_max":920,"o":"m 767 0 l 920 0 l 920 -70 q 911 -138 920 -106 q 884 -198 902 -171 q 836 -246 865 -226 q 769 -278 808 -267 q 679 -289 729 -289 q 640 -288 659 -289 q 609 -283 620 -287 l 609 -159 q 630 -162 617 -161 q 654 -163 642 -163 q 710 -155 685 -163 q 752 -125 736 -146 q 767 -65 767 -104 l 767 0 m 111 0 l 111 1010 l 263 1010 l 263 571 l 767 571 l 767 1010 l 920 1010 l 920 0 l 767 0 l 767 440 l 263 440 l 263 0 l 111 0 z "},"Ң":{"ha":1106,"x_min":111,"x_max":1056,"o":"m 111 0 l 111 1010 l 263 1010 l 263 571 l 767 571 l 767 1010 l 920 1010 l 920 0 l 767 0 l 767 440 l 263 440 l 263 0 l 111 0 m 1056 121 l 1056 -244 l 910 -244 l 910 121 l 1056 121 z "},"Ӊ":{"ha":1103,"x_min":111,"x_max":1053,"o":"m 111 0 l 111 1010 l 263 1010 l 263 571 l 767 571 l 767 1010 l 920 1010 l 920 0 l 767 0 l 767 440 l 263 440 l 263 0 l 111 0 m 1053 90 l 1053 -11 q 1042 -104 1053 -58 q 1010 -191 1031 -149 q 960 -270 989 -233 l 857 -240 q 887 -168 873 -203 q 911 -96 902 -133 q 920 -17 920 -59 l 920 90 l 1053 90 z "},"Ҥ":{"ha":1379,"x_min":111,"x_max":1317,"o":"m 1317 1010 l 1317 879 l 920 879 l 920 0 l 767 0 l 767 440 l 263 440 l 263 0 l 111 0 l 111 1010 l 263 1010 l 263 571 l 767 571 l 767 1010 l 1317 1010 z "},"Ƕ":{"ha":1551,"x_min":111,"x_max":1452,"o":"m 1112 -14 q 931 25 1008 -14 q 810 140 853 64 q 767 327 767 216 l 767 440 l 263 440 l 263 0 l 111 0 l 111 1010 l 263 1010 l 263 571 l 767 571 l 767 1010 l 920 1010 l 920 327 q 970 172 920 222 q 1112 121 1021 121 q 1251 172 1203 121 q 1299 327 1299 222 l 1299 751 l 1452 751 l 1452 327 q 1409 139 1452 215 q 1290 25 1367 63 q 1112 -14 1213 -14 z "},"Η":{"ha":1031,"x_min":111,"x_max":920,"o":"m 111 0 l 111 1010 l 263 1010 l 263 571 l 767 571 l 767 1010 l 920 1010 l 920 0 l 767 0 l 767 440 l 263 440 l 263 0 l 111 0 z "},"Ή":{"ha":1228,"x_min":94,"x_max":1118,"o":"m 309 0 l 309 1010 l 461 1010 l 461 571 l 965 571 l 965 1010 l 1118 1010 l 1118 0 l 965 0 l 965 440 l 461 440 l 461 0 l 309 0 m 94 844 l 134 1076 l 281 1076 l 189 844 l 94 844 z "},"Ἠ":{"ha":1254,"x_min":92,"x_max":1143,"o":"m 334 0 l 334 1010 l 487 1010 l 487 571 l 990 571 l 990 1010 l 1143 1010 l 1143 0 l 990 0 l 990 440 l 487 440 l 487 0 l 334 0 m 268 1010 l 268 952 q 253 876 268 911 q 212 813 239 841 q 147 765 185 785 l 92 814 q 124 853 111 832 q 141 900 136 874 q 147 956 147 925 l 147 1010 l 268 1010 z "},"Ἡ":{"ha":1241,"x_min":94,"x_max":1130,"o":"m 322 0 l 322 1010 l 474 1010 l 474 571 l 978 571 l 978 1010 l 1130 1010 l 1130 0 l 978 0 l 978 440 l 474 440 l 474 0 l 322 0 m 93 952 l 93 1010 l 215 1010 l 215 956 q 220 901 215 926 q 238 854 226 875 q 269 814 250 833 l 215 765 q 126 843 159 795 q 93 952 94 891 z "},"Ἢ":{"ha":1518,"x_min":93,"x_max":1407,"o":"m 598 0 l 598 1010 l 751 1010 l 751 571 l 1254 571 l 1254 1010 l 1407 1010 l 1407 0 l 1254 0 l 1254 440 l 751 440 l 751 0 l 598 0 m 526 794 l 526 784 l 462 784 l 304 999 l 304 1013 l 448 1013 l 526 794 m 273 1013 l 273 958 q 258 883 273 918 q 215 819 243 848 q 147 768 187 790 l 93 810 q 135 877 120 841 q 149 962 149 913 l 149 1013 l 273 1013 z "},"Ἣ":{"ha":1470,"x_min":92,"x_max":1359,"o":"m 550 0 l 550 1010 l 703 1010 l 703 571 l 1206 571 l 1206 1010 l 1359 1010 l 1359 0 l 1206 0 l 1206 440 l 703 440 l 703 0 l 550 0 m 484 793 l 484 781 l 420 781 l 263 996 l 263 1010 l 408 1010 l 484 793 m 93 952 l 93 1010 l 215 1010 l 215 956 q 227 877 215 911 q 269 814 239 842 l 215 765 q 125 843 158 795 q 93 952 92 891 z "},"Ἤ":{"ha":1468,"x_min":94,"x_max":1357,"o":"m 548 0 l 548 1010 l 701 1010 l 701 571 l 1204 571 l 1204 1010 l 1357 1010 l 1357 0 l 1204 0 l 1204 440 l 701 440 l 701 0 l 548 0 m 284 781 l 284 793 l 362 1010 l 506 1010 l 506 996 l 348 781 l 284 781 m 271 1010 l 271 952 q 256 876 270 911 q 214 813 241 841 q 148 765 186 785 l 94 814 q 135 877 122 842 q 148 956 148 911 l 148 1010 l 271 1010 z "},"Ἥ":{"ha":1490,"x_min":94,"x_max":1380,"o":"m 571 0 l 571 1010 l 723 1010 l 723 571 l 1227 571 l 1227 1010 l 1380 1010 l 1380 0 l 1227 0 l 1227 440 l 723 440 l 723 0 l 571 0 m 299 781 l 299 793 l 375 1010 l 520 1010 l 520 996 l 363 781 l 299 781 m 215 765 q 126 842 159 795 q 93 952 93 890 l 93 1010 l 215 1010 l 215 956 q 228 876 215 910 q 269 814 242 841 l 215 765 z "},"Ἦ":{"ha":1384,"x_min":92,"x_max":1273,"o":"m 464 0 l 464 1010 l 617 1010 l 617 571 l 1120 571 l 1120 1010 l 1273 1010 l 1273 0 l 1120 0 l 1120 440 l 617 440 l 617 0 l 464 0 m 412 1173 l 479 1152 q 447 1067 479 1103 q 365 1030 415 1030 q 318 1037 338 1030 q 283 1054 299 1044 q 250 1071 267 1063 q 211 1078 233 1078 q 175 1061 189 1078 q 160 1019 160 1044 l 92 1037 q 124 1125 92 1086 q 205 1163 155 1163 q 247 1156 228 1163 q 284 1139 266 1149 q 320 1121 301 1128 q 359 1114 338 1114 q 396 1131 381 1114 q 412 1173 412 1148 m 351 996 l 351 946 q 328 861 351 904 q 262 793 304 819 l 204 832 q 236 885 227 857 q 246 946 246 914 l 246 996 l 351 996 z "},"Ἧ":{"ha":1394,"x_min":92,"x_max":1283,"o":"m 474 0 l 474 1010 l 627 1010 l 627 571 l 1130 571 l 1130 1010 l 1283 1010 l 1283 0 l 1130 0 l 1130 440 l 627 440 l 627 0 l 474 0 m 241 946 l 241 996 l 347 996 l 347 946 q 356 885 347 914 q 389 832 365 857 l 328 793 q 264 861 288 819 q 241 946 241 903 m 412 1173 l 479 1152 q 447 1067 479 1103 q 365 1030 415 1030 q 318 1037 338 1030 q 283 1054 299 1044 q 250 1071 267 1063 q 211 1078 233 1078 q 175 1061 189 1078 q 160 1019 160 1044 l 92 1037 q 124 1125 92 1086 q 205 1163 155 1163 q 247 1156 228 1163 q 284 1139 266 1149 q 320 1121 301 1128 q 359 1114 338 1114 q 396 1131 381 1114 q 412 1173 412 1148 z "},"Ὴ":{"ha":1307,"x_min":93,"x_max":1196,"o":"m 387 0 l 387 1010 l 540 1010 l 540 571 l 1043 571 l 1043 1010 l 1196 1010 l 1196 0 l 1043 0 l 1043 440 l 540 440 l 540 0 l 387 0 m 251 779 l 93 996 l 93 1010 l 237 1010 l 314 794 l 314 779 l 251 779 z "},"Ή":{"ha":1275,"x_min":144,"x_max":1164,"o":"m 356 0 l 356 1010 l 508 1010 l 508 571 l 1012 571 l 1012 1010 l 1164 1010 l 1164 0 l 1012 0 l 1012 440 l 508 440 l 508 0 l 356 0 m 144 852 l 144 867 l 220 1083 l 378 1083 l 378 1069 l 221 852 l 144 852 z "},"Н":{"ha":1031,"x_min":111,"x_max":920,"o":"m 111 0 l 111 1010 l 263 1010 l 263 571 l 767 571 l 767 1010 l 920 1010 l 920 0 l 767 0 l 767 440 l 263 440 l 263 0 l 111 0 z "},"ᾘ":{"ha":1210,"x_min":48,"x_max":1100,"o":"m 291 0 l 291 1010 l 443 1010 l 443 571 l 947 571 l 947 1010 l 1100 1010 l 1100 0 l 947 0 l 947 440 l 443 440 l 443 0 l 291 0 m 759 -335 q 674 -306 708 -335 q 640 -209 640 -276 l 640 -61 l 750 -61 l 750 -207 q 759 -245 750 -234 q 785 -256 768 -256 q 802 -255 793 -256 q 815 -254 810 -254 l 815 -327 q 792 -333 805 -330 q 759 -335 779 -335 m 224 1010 l 224 952 q 210 876 224 911 q 168 813 195 841 q 104 765 142 785 l 48 814 q 80 853 68 832 q 98 900 92 874 q 104 956 104 925 l 104 1010 l 224 1010 z "},"ᾙ":{"ha":1241,"x_min":94,"x_max":1130,"o":"m 322 0 l 322 1010 l 474 1010 l 474 571 l 978 571 l 978 1010 l 1130 1010 l 1130 0 l 978 0 l 978 440 l 474 440 l 474 0 l 322 0 m 790 -335 q 705 -306 738 -335 q 671 -209 671 -276 l 671 -61 l 781 -61 l 781 -207 q 790 -245 781 -234 q 815 -256 799 -256 q 832 -255 824 -256 q 845 -254 841 -254 l 845 -327 q 823 -333 836 -330 q 790 -335 809 -335 m 93 952 l 93 1010 l 215 1010 l 215 956 q 220 901 215 926 q 238 854 226 875 q 269 814 250 833 l 215 765 q 126 843 159 795 q 93 952 94 891 z "},"ᾚ":{"ha":1518,"x_min":93,"x_max":1407,"o":"m 598 0 l 598 1010 l 751 1010 l 751 571 l 1254 571 l 1254 1010 l 1407 1010 l 1407 0 l 1254 0 l 1254 440 l 751 440 l 751 0 l 598 0 m 1066 -335 q 981 -306 1015 -335 q 947 -209 947 -276 l 947 -61 l 1057 -61 l 1057 -207 q 1066 -245 1057 -234 q 1092 -256 1075 -256 q 1109 -255 1100 -256 q 1122 -254 1118 -254 l 1122 -327 q 1099 -333 1113 -330 q 1066 -335 1086 -335 m 526 794 l 526 784 l 462 784 l 304 999 l 304 1013 l 448 1013 l 526 794 m 273 1013 l 273 958 q 258 883 273 918 q 215 819 243 848 q 147 768 187 790 l 93 810 q 135 877 120 841 q 149 962 149 913 l 149 1013 l 273 1013 z "},"ᾛ":{"ha":1470,"x_min":92,"x_max":1359,"o":"m 550 0 l 550 1010 l 703 1010 l 703 571 l 1206 571 l 1206 1010 l 1359 1010 l 1359 0 l 1206 0 l 1206 440 l 703 440 l 703 0 l 550 0 m 1018 -335 q 933 -306 967 -335 q 900 -209 900 -276 l 900 -61 l 1010 -61 l 1010 -207 q 1018 -245 1010 -234 q 1044 -256 1027 -256 q 1061 -255 1053 -256 q 1074 -254 1070 -254 l 1074 -327 q 1052 -333 1065 -330 q 1018 -335 1038 -335 m 484 793 l 484 781 l 420 781 l 263 996 l 263 1010 l 408 1010 l 484 793 m 93 952 l 93 1010 l 215 1010 l 215 956 q 227 877 215 911 q 269 814 239 842 l 215 765 q 125 843 158 795 q 93 952 92 891 z "},"ᾜ":{"ha":1468,"x_min":94,"x_max":1357,"o":"m 548 0 l 548 1010 l 701 1010 l 701 571 l 1204 571 l 1204 1010 l 1357 1010 l 1357 0 l 1204 0 l 1204 440 l 701 440 l 701 0 l 548 0 m 1017 -335 q 931 -306 965 -335 q 898 -209 898 -276 l 898 -61 l 1008 -61 l 1008 -207 q 1017 -245 1008 -234 q 1042 -256 1025 -256 q 1059 -255 1051 -256 q 1072 -254 1068 -254 l 1072 -327 q 1050 -333 1063 -330 q 1017 -335 1036 -335 m 284 781 l 284 793 l 362 1010 l 506 1010 l 506 996 l 348 781 l 284 781 m 271 1010 l 271 952 q 256 876 270 911 q 214 813 241 841 q 148 765 186 785 l 94 814 q 135 877 122 842 q 148 956 148 911 l 148 1010 l 271 1010 z "},"ᾝ":{"ha":1490,"x_min":94,"x_max":1380,"o":"m 571 0 l 571 1010 l 723 1010 l 723 571 l 1227 571 l 1227 1010 l 1380 1010 l 1380 0 l 1227 0 l 1227 440 l 723 440 l 723 0 l 571 0 m 1039 -335 q 954 -306 987 -335 q 920 -209 920 -276 l 920 -61 l 1030 -61 l 1030 -207 q 1039 -245 1030 -234 q 1064 -256 1048 -256 q 1081 -255 1073 -256 q 1094 -254 1090 -254 l 1094 -327 q 1072 -333 1085 -330 q 1039 -335 1058 -335 m 299 781 l 299 793 l 375 1010 l 520 1010 l 520 996 l 363 781 l 299 781 m 215 765 q 126 842 159 795 q 93 952 93 890 l 93 1010 l 215 1010 l 215 956 q 228 876 215 910 q 269 814 242 841 l 215 765 z "},"ᾞ":{"ha":1384,"x_min":92,"x_max":1273,"o":"m 464 0 l 464 1010 l 617 1010 l 617 571 l 1120 571 l 1120 1010 l 1273 1010 l 1273 0 l 1120 0 l 1120 440 l 617 440 l 617 0 l 464 0 m 932 -335 q 847 -306 881 -335 q 813 -209 813 -276 l 813 -61 l 923 -61 l 923 -207 q 932 -245 923 -234 q 958 -256 941 -256 q 975 -255 966 -256 q 988 -254 983 -254 l 988 -327 q 965 -333 979 -330 q 932 -335 952 -335 m 412 1173 l 479 1152 q 447 1067 479 1103 q 365 1030 415 1030 q 318 1037 338 1030 q 283 1054 299 1044 q 250 1071 267 1063 q 211 1078 233 1078 q 175 1061 189 1078 q 160 1019 160 1044 l 92 1037 q 124 1125 92 1086 q 205 1163 155 1163 q 247 1156 228 1163 q 284 1139 266 1149 q 320 1121 301 1128 q 359 1114 338 1114 q 396 1131 381 1114 q 412 1173 412 1148 m 351 996 l 351 946 q 328 861 351 904 q 262 793 304 819 l 204 832 q 236 885 227 857 q 246 946 246 914 l 246 996 l 351 996 z "},"ᾟ":{"ha":1394,"x_min":92,"x_max":1283,"o":"m 474 0 l 474 1010 l 627 1010 l 627 571 l 1130 571 l 1130 1010 l 1283 1010 l 1283 0 l 1130 0 l 1130 440 l 627 440 l 627 0 l 474 0 m 943 -335 q 857 -306 891 -335 q 824 -209 824 -276 l 824 -61 l 934 -61 l 934 -207 q 943 -245 934 -234 q 968 -256 951 -256 q 985 -255 977 -256 q 998 -254 994 -254 l 998 -327 q 976 -333 989 -330 q 943 -335 962 -335 m 241 946 l 241 996 l 347 996 l 347 946 q 356 885 347 914 q 389 832 365 857 l 328 793 q 264 861 288 819 q 241 946 241 903 m 412 1173 l 479 1152 q 447 1067 479 1103 q 365 1030 415 1030 q 318 1037 338 1030 q 283 1054 299 1044 q 250 1071 267 1063 q 211 1078 233 1078 q 175 1061 189 1078 q 160 1019 160 1044 l 92 1037 q 124 1125 92 1086 q 205 1163 155 1163 q 247 1156 228 1163 q 284 1139 266 1149 q 320 1121 301 1128 q 359 1114 338 1114 q 396 1131 381 1114 q 412 1173 412 1148 z "},"ῌ":{"ha":1031,"x_min":111,"x_max":920,"o":"m 111 0 l 111 1010 l 263 1010 l 263 571 l 767 571 l 767 1010 l 920 1010 l 920 0 l 767 0 l 767 440 l 263 440 l 263 0 l 111 0 m 579 -335 q 494 -306 528 -335 q 460 -209 460 -276 l 460 -61 l 570 -61 l 570 -207 q 579 -245 570 -234 q 605 -256 588 -256 q 622 -255 613 -256 q 635 -254 630 -254 l 635 -327 q 612 -333 625 -330 q 579 -335 599 -335 z "},"I":{"ha":374,"x_min":111,"x_max":263,"o":"m 263 1010 l 263 0 l 111 0 l 111 1010 l 263 1010 z "},"Ï":{"ha":374,"x_min":-44,"x_max":419,"o":"m 263 1010 l 263 0 l 111 0 l 111 1010 l 263 1010 m 42 1129 q -18 1155 8 1129 q -44 1215 -44 1181 q -18 1276 -44 1252 q 42 1301 8 1301 q 104 1276 79 1301 q 129 1215 129 1252 q 104 1155 129 1181 q 42 1129 79 1129 m 332 1129 q 272 1155 298 1129 q 246 1215 246 1181 q 272 1276 246 1252 q 332 1301 298 1301 q 394 1276 369 1301 q 419 1215 419 1252 q 394 1155 419 1181 q 332 1129 369 1129 z "},"Ḯ":{"ha":374,"x_min":-41,"x_max":421,"o":"m 263 1010 l 263 0 l 111 0 l 111 1010 l 263 1010 m 126 1322 l 268 1480 l 421 1480 l 245 1322 l 126 1322 m 45 1086 q -15 1111 10 1086 q -41 1169 -41 1136 q -15 1229 -41 1205 q 45 1253 10 1253 q 105 1229 81 1253 q 130 1169 130 1205 q 105 1111 130 1136 q 45 1086 81 1086 m 330 1086 q 271 1111 296 1086 q 245 1169 245 1136 q 271 1229 245 1205 q 330 1253 296 1253 q 391 1229 367 1253 q 416 1169 416 1205 q 391 1111 416 1136 q 330 1086 367 1086 z "},"Ɨ":{"ha":374,"x_min":-40,"x_max":413,"o":"m 263 1010 l 263 0 l 111 0 l 111 1010 l 263 1010 m -40 473 l -40 576 l 413 576 l 413 473 l -40 473 z "},"Ḭ":{"ha":374,"x_min":-26,"x_max":470,"o":"m 263 1010 l 263 0 l 111 0 l 111 1010 l 263 1010 m 73 -257 l -26 -254 q 18 -124 -26 -173 q 128 -74 63 -74 q 181 -85 158 -74 q 223 -108 203 -95 q 263 -131 243 -121 q 308 -141 283 -141 q 354 -120 336 -141 q 372 -66 372 -98 l 470 -72 q 425 -202 470 -155 q 316 -249 381 -249 q 258 -239 281 -249 q 218 -216 235 -229 q 181 -193 200 -203 q 136 -182 162 -182 q 91 -204 109 -182 q 73 -257 73 -225 z "},"Ì":{"ha":374,"x_min":-23,"x_max":263,"o":"m 263 1010 l 263 0 l 111 0 l 111 1010 l 263 1010 m 130 1111 l -22 1339 l 133 1339 l 248 1111 l 130 1111 z "},"Í":{"ha":374,"x_min":111,"x_max":398,"o":"m 263 1010 l 263 0 l 111 0 l 111 1010 l 263 1010 m 127 1111 l 242 1339 l 398 1339 l 245 1111 l 127 1111 z "},"Î":{"ha":374,"x_min":-47,"x_max":422,"o":"m 263 1010 l 263 0 l 111 0 l 111 1010 l 263 1010 m 289 1101 l 187 1233 l 86 1101 l -47 1101 l -47 1108 l 126 1317 l 249 1317 l 422 1108 l 422 1101 l 289 1101 z "},"Ĩ":{"ha":619,"x_min":62,"x_max":557,"o":"m 385 1010 l 385 0 l 233 0 l 233 1010 l 385 1010 m 161 1102 l 62 1105 q 106 1235 62 1187 q 215 1284 150 1284 q 268 1274 245 1284 q 310 1251 291 1264 q 350 1228 330 1238 q 395 1218 370 1218 q 442 1239 424 1218 q 460 1293 460 1261 l 557 1287 q 512 1157 557 1204 q 403 1110 468 1110 q 345 1120 368 1110 q 305 1143 323 1130 q 268 1166 287 1156 q 223 1177 250 1177 q 178 1155 196 1177 q 161 1102 161 1134 z "},"Ī":{"ha":374,"x_min":-46,"x_max":421,"o":"m 263 1010 l 263 0 l 111 0 l 111 1010 l 263 1010 m 422 1263 l 422 1159 l -46 1159 l -46 1263 l 422 1263 z "},"Ĭ":{"ha":374,"x_min":-29,"x_max":405,"o":"m 263 1010 l 263 0 l 111 0 l 111 1010 l 263 1010 m 284 1267 l 405 1267 q 346 1131 405 1183 q 187 1079 288 1079 q 29 1131 88 1079 q -30 1267 -30 1183 l 91 1267 q 113 1201 91 1230 q 187 1173 135 1173 q 262 1201 239 1173 q 284 1267 284 1229 z "},"Į":{"ha":374,"x_min":19,"x_max":277,"o":"m 263 1010 l 263 0 l 111 0 l 111 1010 l 263 1010 m 170 -291 q 66 -258 108 -291 q 21 -161 25 -225 q 34 -86 19 -124 q 83 -14 48 -48 q 176 46 118 20 l 264 0 q 185 -62 218 -29 q 152 -136 152 -94 q 164 -171 152 -158 q 203 -184 175 -184 q 239 -179 223 -184 q 264 -168 254 -173 l 277 -262 q 233 -282 260 -272 q 170 -291 206 -291 z "},"İ":{"ha":374,"x_min":94,"x_max":281,"o":"m 263 1010 l 263 0 l 111 0 l 111 1010 l 263 1010 m 187 1127 q 122 1153 149 1127 q 94 1215 94 1179 q 122 1277 94 1251 q 187 1303 149 1303 q 253 1277 226 1303 q 281 1215 281 1251 q 253 1153 281 1179 q 187 1127 226 1127 z "},"Ǐ":{"ha":374,"x_min":-47,"x_max":422,"o":"m 263 1010 l 263 0 l 111 0 l 111 1010 l 263 1010 m 86 1317 l 187 1185 l 289 1317 l 422 1317 l 422 1310 l 249 1101 l 126 1101 l -47 1310 l -47 1317 l 86 1317 z "},"Ȉ":{"ha":374,"x_min":-138,"x_max":359,"o":"m 263 1010 l 263 0 l 111 0 l 111 1010 l 263 1010 m 22 1111 l -138 1339 l 25 1339 l 140 1111 l 22 1111 m 243 1111 l 128 1339 l 290 1339 l 359 1111 l 243 1111 z "},"Ȋ":{"ha":374,"x_min":-31,"x_max":404,"o":"m 263 1010 l 263 0 l 111 0 l 111 1010 l 263 1010 m -31 1135 q 28 1272 -31 1218 q 187 1325 86 1325 q 346 1272 288 1325 q 404 1135 404 1218 l 283 1135 q 261 1201 283 1173 q 187 1230 238 1230 q 112 1201 134 1230 q 90 1135 90 1172 l -31 1135 z "},"Ỉ":{"ha":374,"x_min":111,"x_max":351,"o":"m 263 1010 l 263 0 l 111 0 l 111 1010 l 263 1010 m 248 1115 l 131 1115 l 127 1215 q 201 1229 180 1218 q 222 1263 223 1241 q 193 1301 223 1290 q 119 1312 162 1312 l 123 1394 q 293 1358 235 1394 q 351 1263 351 1323 q 319 1191 351 1214 q 248 1162 287 1168 l 248 1115 z "},"Ị":{"ha":374,"x_min":94,"x_max":280,"o":"m 263 1010 l 263 0 l 111 0 l 111 1010 l 263 1010 m 187 -261 q 121 -236 149 -261 q 94 -174 94 -210 q 121 -111 94 -137 q 187 -86 149 -86 q 253 -111 225 -86 q 280 -174 280 -137 q 253 -236 280 -210 q 187 -261 225 -261 z "},"Ɩ":{"ha":379,"x_min":99,"x_max":380,"o":"m 99 1010 l 247 1010 l 247 207 q 259 138 247 158 q 307 119 272 118 q 336 121 327 119 q 354 126 346 123 l 380 8 q 342 -1 365 3 q 289 -5 318 -5 q 146 40 193 -7 q 99 177 99 87 l 99 1010 z "},"Ι":{"ha":374,"x_min":111,"x_max":263,"o":"m 263 1010 l 263 0 l 111 0 l 111 1010 l 263 1010 z "},"Ί":{"ha":461,"x_min":6,"x_max":350,"o":"m 349 1010 l 349 0 l 197 0 l 197 1010 l 349 1010 m 6 844 l 46 1076 l 193 1076 l 102 844 l 6 844 z "},"Ϊ":{"ha":374,"x_min":-44,"x_max":419,"o":"m 263 1010 l 263 0 l 111 0 l 111 1010 l 263 1010 m 42 1129 q -18 1155 8 1129 q -44 1215 -44 1181 q -18 1276 -44 1252 q 42 1301 8 1301 q 104 1276 79 1301 q 129 1215 129 1252 q 104 1155 129 1181 q 42 1129 79 1129 m 332 1129 q 272 1155 298 1129 q 246 1215 246 1181 q 272 1276 246 1252 q 332 1301 298 1301 q 394 1276 369 1301 q 419 1215 419 1252 q 394 1155 419 1181 q 332 1129 369 1129 z "},"Ἰ":{"ha":573,"x_min":92,"x_max":463,"o":"m 463 1010 l 463 0 l 311 0 l 311 1010 l 463 1010 m 268 1010 l 268 952 q 253 876 268 911 q 212 813 239 841 q 147 765 185 785 l 92 814 q 124 853 111 832 q 141 900 136 874 q 147 956 147 925 l 147 1010 l 268 1010 z "},"Ἱ":{"ha":560,"x_min":94,"x_max":451,"o":"m 450 1010 l 450 0 l 298 0 l 298 1010 l 450 1010 m 93 952 l 93 1010 l 215 1010 l 215 956 q 220 901 215 926 q 238 854 226 875 q 269 814 250 833 l 215 765 q 126 843 159 795 q 93 952 94 891 z "},"Ἲ":{"ha":837,"x_min":93,"x_max":727,"o":"m 727 1010 l 727 0 l 575 0 l 575 1010 l 727 1010 m 526 794 l 526 784 l 462 784 l 304 999 l 304 1013 l 448 1013 l 526 794 m 273 1013 l 273 958 q 258 883 273 918 q 215 819 243 848 q 147 768 187 790 l 93 810 q 135 877 120 841 q 149 962 149 913 l 149 1013 l 273 1013 z "},"Ἳ":{"ha":789,"x_min":92,"x_max":680,"o":"m 679 1010 l 679 0 l 527 0 l 527 1010 l 679 1010 m 484 793 l 484 781 l 420 781 l 263 996 l 263 1010 l 408 1010 l 484 793 m 93 952 l 93 1010 l 215 1010 l 215 956 q 227 877 215 911 q 269 814 239 842 l 215 765 q 125 843 158 795 q 93 952 92 891 z "},"Ἴ":{"ha":787,"x_min":94,"x_max":678,"o":"m 677 1010 l 677 0 l 525 0 l 525 1010 l 677 1010 m 284 781 l 284 793 l 362 1010 l 506 1010 l 506 996 l 348 781 l 284 781 m 271 1010 l 271 952 q 256 876 270 911 q 214 813 241 841 q 148 765 186 785 l 94 814 q 135 877 122 842 q 148 956 148 911 l 148 1010 l 271 1010 z "},"Ἵ":{"ha":809,"x_min":94,"x_max":699,"o":"m 699 1010 l 699 0 l 547 0 l 547 1010 l 699 1010 m 299 781 l 299 793 l 375 1010 l 520 1010 l 520 996 l 363 781 l 299 781 m 215 765 q 126 842 159 795 q 93 952 93 890 l 93 1010 l 215 1010 l 215 956 q 228 876 215 910 q 269 814 242 841 l 215 765 z "},"Ἶ":{"ha":703,"x_min":92,"x_max":593,"o":"m 593 1010 l 593 0 l 440 0 l 440 1010 l 593 1010 m 412 1173 l 479 1152 q 447 1067 479 1103 q 365 1030 415 1030 q 318 1037 338 1030 q 283 1054 299 1044 q 250 1071 267 1063 q 211 1078 233 1078 q 175 1061 189 1078 q 160 1019 160 1044 l 92 1037 q 124 1125 92 1086 q 205 1163 155 1163 q 247 1156 228 1163 q 284 1139 266 1149 q 320 1121 301 1128 q 359 1114 338 1114 q 396 1131 381 1114 q 412 1173 412 1148 m 351 996 l 351 946 q 328 861 351 904 q 262 793 304 819 l 204 832 q 236 885 227 857 q 246 946 246 914 l 246 996 l 351 996 z "},"Ἷ":{"ha":713,"x_min":92,"x_max":603,"o":"m 603 1010 l 603 0 l 451 0 l 451 1010 l 603 1010 m 241 946 l 241 996 l 347 996 l 347 946 q 356 885 347 914 q 389 832 365 857 l 328 793 q 264 861 288 819 q 241 946 241 903 m 412 1173 l 479 1152 q 447 1067 479 1103 q 365 1030 415 1030 q 318 1037 338 1030 q 283 1054 299 1044 q 250 1071 267 1063 q 211 1078 233 1078 q 175 1061 189 1078 q 160 1019 160 1044 l 92 1037 q 124 1125 92 1086 q 205 1163 155 1163 q 247 1156 228 1163 q 284 1139 266 1149 q 320 1121 301 1128 q 359 1114 338 1114 q 396 1131 381 1114 q 412 1173 412 1148 z "},"Ῐ":{"ha":374,"x_min":-29,"x_max":405,"o":"m 263 1010 l 263 0 l 111 0 l 111 1010 l 263 1010 m 284 1267 l 405 1267 q 346 1131 405 1183 q 187 1079 288 1079 q 29 1131 88 1079 q -30 1267 -30 1183 l 91 1267 q 113 1201 91 1230 q 187 1173 135 1173 q 262 1201 239 1173 q 284 1267 284 1229 z "},"Ῑ":{"ha":374,"x_min":-46,"x_max":421,"o":"m 263 1010 l 263 0 l 111 0 l 111 1010 l 263 1010 m 422 1263 l 422 1159 l -46 1159 l -46 1263 l 422 1263 z "},"Ὶ":{"ha":626,"x_min":93,"x_max":516,"o":"m 516 1010 l 516 0 l 363 0 l 363 1010 l 516 1010 m 251 779 l 93 996 l 93 1010 l 237 1010 l 314 794 l 314 779 l 251 779 z "},"Ί":{"ha":594,"x_min":144,"x_max":484,"o":"m 484 1010 l 484 0 l 332 0 l 332 1010 l 484 1010 m 144 852 l 144 867 l 220 1083 l 378 1083 l 378 1069 l 221 852 l 144 852 z "},"І":{"ha":374,"x_min":111,"x_max":263,"o":"m 263 1010 l 263 0 l 111 0 l 111 1010 l 263 1010 z "},"Ї":{"ha":374,"x_min":-44,"x_max":419,"o":"m 263 1010 l 263 0 l 111 0 l 111 1010 l 263 1010 m 42 1129 q -19 1155 7 1129 q -45 1215 -45 1181 q -19 1276 -45 1252 q 42 1301 7 1301 q 104 1276 79 1301 q 129 1215 129 1252 q 104 1155 129 1181 q 42 1129 79 1129 m 332 1129 q 271 1155 297 1129 q 245 1215 245 1181 q 271 1276 245 1252 q 332 1301 297 1301 q 394 1276 369 1301 q 419 1215 419 1252 q 394 1155 419 1181 q 332 1129 369 1129 z "},"":{"ha":632,"x_min":61,"x_max":571,"o":"m 61 879 l 61 1010 l 571 1010 l 571 879 l 61 879 m 61 0 l 61 131 l 571 131 l 571 0 l 61 0 m 393 1010 l 393 0 l 240 0 l 240 1010 l 393 1010 z "},"":{"ha":632,"x_min":61,"x_max":571,"o":"m 61 879 l 61 1010 l 571 1010 l 571 879 l 61 879 m 61 0 l 61 131 l 571 131 l 571 0 l 61 0 m 393 1010 l 393 0 l 240 0 l 240 1010 l 393 1010 m 172 1129 q 110 1155 137 1129 q 84 1215 84 1181 q 110 1276 84 1252 q 172 1301 137 1301 q 234 1276 209 1301 q 258 1215 258 1252 q 234 1155 258 1181 q 172 1129 209 1129 m 462 1129 q 400 1155 427 1129 q 374 1215 374 1181 q 400 1276 374 1252 q 462 1301 427 1301 q 524 1276 499 1301 q 548 1215 548 1252 q 524 1155 548 1181 q 462 1129 499 1129 z "},"":{"ha":632,"x_min":61,"x_max":571,"o":"m 61 879 l 61 1010 l 571 1010 l 571 879 l 61 879 m 61 0 l 61 131 l 571 131 l 571 0 l 61 0 m 393 1010 l 393 0 l 240 0 l 240 1010 l 393 1010 m 255 1322 l 397 1480 l 550 1480 l 374 1322 l 255 1322 m 174 1086 q 114 1111 140 1086 q 88 1169 88 1136 q 114 1229 88 1205 q 174 1253 140 1253 q 235 1229 210 1253 q 259 1169 259 1205 q 235 1111 259 1136 q 174 1086 210 1086 m 460 1086 q 400 1111 426 1086 q 374 1169 374 1136 q 400 1229 374 1205 q 460 1253 426 1253 q 521 1229 496 1253 q 545 1169 545 1205 q 521 1111 545 1136 q 460 1086 496 1086 z "},"":{"ha":632,"x_min":61,"x_max":571,"o":"m 61 879 l 61 1010 l 571 1010 l 571 879 l 61 879 m 61 0 l 61 131 l 571 131 l 571 0 l 61 0 m 393 1010 l 393 0 l 240 0 l 240 1010 l 393 1010 m 89 473 l 89 576 l 543 576 l 543 473 l 89 473 z "},"":{"ha":632,"x_min":61,"x_max":599,"o":"m 61 879 l 61 1010 l 571 1010 l 571 879 l 61 879 m 61 0 l 61 131 l 571 131 l 571 0 l 61 0 m 393 1010 l 393 0 l 240 0 l 240 1010 l 393 1010 m 203 -257 l 104 -254 q 148 -124 104 -173 q 257 -74 192 -74 q 310 -85 287 -74 q 352 -108 332 -95 q 392 -131 372 -121 q 437 -141 412 -141 q 484 -120 466 -141 q 502 -66 502 -98 l 599 -72 q 554 -202 599 -155 q 445 -249 510 -249 q 387 -239 410 -249 q 347 -216 364 -229 q 310 -193 329 -203 q 265 -182 291 -182 q 220 -204 238 -182 q 203 -257 203 -225 z "},"":{"ha":632,"x_min":61,"x_max":571,"o":"m 61 879 l 61 1010 l 571 1010 l 571 879 l 61 879 m 61 0 l 61 131 l 571 131 l 571 0 l 61 0 m 393 1010 l 393 0 l 240 0 l 240 1010 l 393 1010 m 259 1111 l 107 1339 l 262 1339 l 377 1111 l 259 1111 z "},"":{"ha":632,"x_min":61,"x_max":571,"o":"m 61 879 l 61 1010 l 571 1010 l 571 879 l 61 879 m 61 0 l 61 131 l 571 131 l 571 0 l 61 0 m 393 1010 l 393 0 l 240 0 l 240 1010 l 393 1010 m 255 1111 l 371 1339 l 526 1339 l 373 1111 l 255 1111 z "},"":{"ha":632,"x_min":61,"x_max":571,"o":"m 61 879 l 61 1010 l 571 1010 l 571 879 l 61 879 m 61 0 l 61 131 l 571 131 l 571 0 l 61 0 m 393 1010 l 393 0 l 240 0 l 240 1010 l 393 1010 m 418 1101 l 317 1233 l 215 1101 l 82 1101 l 82 1108 l 255 1317 l 378 1317 l 551 1108 l 551 1101 l 418 1101 z "},"":{"ha":632,"x_min":61,"x_max":571,"o":"m 61 879 l 61 1010 l 571 1010 l 571 879 l 61 879 m 61 0 l 61 131 l 571 131 l 571 0 l 61 0 m 393 1010 l 393 0 l 240 0 l 240 1010 l 393 1010 m 168 1102 l 69 1105 q 113 1235 69 1187 q 222 1284 157 1284 q 275 1274 253 1284 q 318 1251 298 1264 q 358 1228 338 1238 q 402 1218 378 1218 q 449 1239 431 1218 q 467 1293 467 1261 l 564 1287 q 520 1157 564 1204 q 411 1110 475 1110 q 353 1120 376 1110 q 312 1143 330 1130 q 276 1166 294 1156 q 231 1177 257 1177 q 186 1155 203 1177 q 168 1102 168 1134 z "},"":{"ha":632,"x_min":61,"x_max":571,"o":"m 61 879 l 61 1010 l 571 1010 l 571 879 l 61 879 m 61 0 l 61 131 l 571 131 l 571 0 l 61 0 m 393 1010 l 393 0 l 240 0 l 240 1010 l 393 1010 m 550 1263 l 550 1159 l 82 1159 l 82 1263 l 550 1263 z "},"":{"ha":632,"x_min":61,"x_max":571,"o":"m 61 879 l 61 1010 l 571 1010 l 571 879 l 61 879 m 61 0 l 61 131 l 571 131 l 571 0 l 61 0 m 393 1010 l 393 0 l 240 0 l 240 1010 l 393 1010 m 413 1267 l 535 1267 q 476 1131 535 1183 q 317 1079 417 1079 q 158 1131 217 1079 q 100 1267 100 1183 l 220 1267 q 242 1201 220 1230 q 317 1173 264 1173 q 391 1201 368 1173 q 413 1267 413 1229 z "},"":{"ha":632,"x_min":61,"x_max":585,"o":"m 61 879 l 61 1010 l 571 1010 l 571 879 l 61 879 m 61 0 l 61 131 l 571 131 l 571 0 l 61 0 m 393 1010 l 393 0 l 240 0 l 240 1010 l 393 1010 m 477 -291 q 374 -258 415 -291 q 329 -161 333 -225 q 341 -86 327 -124 q 391 -14 356 -48 q 484 46 426 20 l 572 0 q 493 -62 526 -29 q 460 -136 460 -94 q 472 -171 460 -158 q 510 -184 483 -184 q 546 -179 531 -184 q 572 -168 562 -173 l 585 -262 q 541 -282 568 -272 q 477 -291 514 -291 z "},"":{"ha":632,"x_min":61,"x_max":571,"o":"m 61 879 l 61 1010 l 571 1010 l 571 879 l 61 879 m 61 0 l 61 131 l 571 131 l 571 0 l 61 0 m 393 1010 l 393 0 l 240 0 l 240 1010 l 393 1010 m 317 1127 q 251 1153 278 1127 q 223 1215 223 1179 q 251 1277 223 1251 q 317 1303 278 1303 q 382 1277 355 1303 q 410 1215 410 1251 q 382 1153 410 1179 q 317 1127 355 1127 z "},"":{"ha":632,"x_min":61,"x_max":571,"o":"m 61 879 l 61 1010 l 571 1010 l 571 879 l 61 879 m 61 0 l 61 131 l 571 131 l 571 0 l 61 0 m 393 1010 l 393 0 l 240 0 l 240 1010 l 393 1010 m 215 1317 l 317 1185 l 418 1317 l 551 1317 l 551 1310 l 378 1101 l 255 1101 l 82 1310 l 82 1317 l 215 1317 z "},"":{"ha":632,"x_min":-8,"x_max":571,"o":"m 61 879 l 61 1010 l 571 1010 l 571 879 l 61 879 m 61 0 l 61 131 l 571 131 l 571 0 l 61 0 m 393 1010 l 393 0 l 240 0 l 240 1010 l 393 1010 m 151 1111 l -8 1339 l 154 1339 l 269 1111 l 151 1111 m 372 1111 l 257 1339 l 419 1339 l 488 1111 l 372 1111 z "},"":{"ha":632,"x_min":61,"x_max":571,"o":"m 61 879 l 61 1010 l 571 1010 l 571 879 l 61 879 m 61 0 l 61 131 l 571 131 l 571 0 l 61 0 m 393 1010 l 393 0 l 240 0 l 240 1010 l 393 1010 m 98 1135 q 156 1272 98 1218 q 316 1325 215 1325 q 474 1272 416 1325 q 533 1135 533 1218 l 412 1135 q 389 1201 412 1173 q 316 1230 367 1230 q 240 1201 262 1230 q 219 1135 218 1172 l 98 1135 z "},"":{"ha":632,"x_min":61,"x_max":571,"o":"m 61 879 l 61 1010 l 571 1010 l 571 879 l 61 879 m 61 0 l 61 131 l 571 131 l 571 0 l 61 0 m 393 1010 l 393 0 l 240 0 l 240 1010 l 393 1010 m 377 1115 l 260 1115 l 256 1215 q 330 1229 309 1218 q 352 1263 352 1241 q 322 1301 352 1290 q 248 1312 291 1312 l 253 1394 q 422 1358 364 1394 q 480 1263 480 1323 q 448 1191 480 1214 q 377 1162 416 1168 l 377 1115 z "},"":{"ha":632,"x_min":61,"x_max":571,"o":"m 61 879 l 61 1010 l 571 1010 l 571 879 l 61 879 m 61 0 l 61 131 l 571 131 l 571 0 l 61 0 m 393 1010 l 393 0 l 240 0 l 240 1010 l 393 1010 m 316 -261 q 251 -236 278 -261 q 223 -174 223 -210 q 251 -111 223 -137 q 316 -86 278 -86 q 382 -111 355 -86 q 409 -174 409 -137 q 382 -236 409 -210 q 316 -261 355 -261 z "},"":{"ha":851,"x_min":61,"x_max":790,"o":"m 280 879 l 280 1010 l 790 1010 l 790 879 l 280 879 m 280 0 l 280 131 l 790 131 l 790 0 l 280 0 m 611 1010 l 611 0 l 458 0 l 458 1010 l 611 1010 m 237 1010 l 237 952 q 223 876 237 911 q 181 813 208 841 q 116 765 154 785 l 61 814 q 93 853 81 832 q 111 900 105 874 q 116 956 116 925 l 116 1010 l 237 1010 z "},"":{"ha":837,"x_min":61,"x_max":776,"o":"m 265 879 l 265 1010 l 775 1010 l 775 879 l 265 879 m 265 0 l 265 131 l 775 131 l 775 0 l 265 0 m 597 1010 l 597 0 l 444 0 l 444 1010 l 597 1010 m 61 952 l 61 1010 l 183 1010 l 183 956 q 188 901 183 926 q 206 854 194 875 q 237 814 218 833 l 182 765 q 94 843 127 795 q 61 952 62 891 z "},"":{"ha":1114,"x_min":61,"x_max":1053,"o":"m 543 879 l 543 1010 l 1053 1010 l 1053 879 l 543 879 m 543 0 l 543 131 l 1053 131 l 1053 0 l 543 0 m 874 1010 l 874 0 l 721 0 l 721 1010 l 874 1010 m 494 794 l 494 784 l 430 784 l 272 999 l 272 1013 l 416 1013 l 494 794 m 241 1013 l 241 958 q 226 883 241 918 q 183 819 211 848 q 115 768 155 790 l 61 810 q 103 877 88 841 q 117 962 117 913 l 117 1013 l 241 1013 z "},"":{"ha":1067,"x_min":61,"x_max":1006,"o":"m 496 879 l 496 1010 l 1006 1010 l 1006 879 l 496 879 m 496 0 l 496 131 l 1006 131 l 1006 0 l 496 0 m 827 1010 l 827 0 l 674 0 l 674 1010 l 827 1010 m 453 793 l 453 781 l 389 781 l 231 996 l 231 1010 l 377 1010 l 453 793 m 61 952 l 61 1010 l 183 1010 l 183 956 q 195 877 183 911 q 238 814 208 842 l 183 765 q 93 843 126 795 q 61 952 61 891 z "},"":{"ha":1063,"x_min":61,"x_max":1002,"o":"m 492 879 l 492 1010 l 1002 1010 l 1002 879 l 492 879 m 492 0 l 492 131 l 1002 131 l 1002 0 l 492 0 m 824 1010 l 824 0 l 671 0 l 671 1010 l 824 1010 m 252 781 l 252 793 l 329 1010 l 473 1010 l 473 996 l 315 781 l 252 781 m 238 1010 l 238 952 q 223 876 238 911 q 181 813 209 841 q 116 765 154 785 l 61 814 q 103 877 90 842 q 116 956 116 911 l 116 1010 l 238 1010 z "},"":{"ha":1086,"x_min":61,"x_max":1025,"o":"m 514 879 l 514 1010 l 1024 1010 l 1024 879 l 514 879 m 514 0 l 514 131 l 1024 131 l 1024 0 l 514 0 m 846 1010 l 846 0 l 693 0 l 693 1010 l 846 1010 m 267 781 l 267 793 l 343 1010 l 488 1010 l 488 996 l 330 781 l 267 781 m 182 765 q 94 842 127 795 q 61 952 61 890 l 61 1010 l 183 1010 l 183 956 q 196 876 183 910 q 237 814 210 841 l 182 765 z "},"":{"ha":981,"x_min":61,"x_max":919,"o":"m 409 879 l 409 1010 l 919 1010 l 919 879 l 409 879 m 409 0 l 409 131 l 919 131 l 919 0 l 409 0 m 741 1010 l 741 0 l 588 0 l 588 1010 l 741 1010 m 381 1173 l 448 1152 q 416 1067 448 1103 q 334 1030 384 1030 q 287 1037 307 1030 q 252 1054 268 1044 q 219 1071 236 1063 q 180 1078 202 1078 q 144 1061 158 1078 q 129 1019 129 1044 l 61 1037 q 92 1125 61 1086 q 174 1163 124 1163 q 216 1156 197 1163 q 253 1139 235 1149 q 289 1121 270 1128 q 328 1114 307 1114 q 365 1131 350 1114 q 381 1173 381 1148 m 320 996 l 320 946 q 297 861 320 904 q 231 793 273 819 l 173 832 q 205 885 196 857 q 215 946 215 914 l 215 996 l 320 996 z "},"":{"ha":991,"x_min":61,"x_max":930,"o":"m 419 879 l 419 1010 l 929 1010 l 929 879 l 419 879 m 419 0 l 419 131 l 929 131 l 929 0 l 419 0 m 751 1010 l 751 0 l 598 0 l 598 1010 l 751 1010 m 210 946 l 210 996 l 316 996 l 316 946 q 325 885 316 914 q 358 832 334 857 l 297 793 q 233 861 256 819 q 210 946 210 903 m 381 1173 l 448 1152 q 416 1067 448 1103 q 334 1030 384 1030 q 287 1037 307 1030 q 252 1054 268 1044 q 219 1071 236 1063 q 180 1078 202 1078 q 144 1061 158 1078 q 129 1019 129 1044 l 61 1037 q 92 1125 61 1086 q 174 1163 124 1163 q 216 1156 197 1163 q 253 1139 235 1149 q 289 1121 270 1128 q 328 1114 307 1114 q 365 1131 350 1114 q 381 1173 381 1148 z "},"":{"ha":632,"x_min":61,"x_max":571,"o":"m 61 879 l 61 1010 l 571 1010 l 571 879 l 61 879 m 61 0 l 61 131 l 571 131 l 571 0 l 61 0 m 393 1010 l 393 0 l 240 0 l 240 1010 l 393 1010 m 413 1267 l 535 1267 q 476 1131 535 1183 q 317 1079 417 1079 q 158 1131 217 1079 q 100 1267 100 1183 l 220 1267 q 242 1201 220 1230 q 317 1173 264 1173 q 391 1201 368 1173 q 413 1267 413 1229 z "},"":{"ha":632,"x_min":61,"x_max":571,"o":"m 61 879 l 61 1010 l 571 1010 l 571 879 l 61 879 m 61 0 l 61 131 l 571 131 l 571 0 l 61 0 m 393 1010 l 393 0 l 240 0 l 240 1010 l 393 1010 m 550 1263 l 550 1159 l 82 1159 l 82 1263 l 550 1263 z "},"":{"ha":903,"x_min":61,"x_max":841,"o":"m 331 879 l 331 1010 l 841 1010 l 841 879 l 331 879 m 331 0 l 331 131 l 841 131 l 841 0 l 331 0 m 663 1010 l 663 0 l 510 0 l 510 1010 l 663 1010 m 218 779 l 61 996 l 61 1010 l 205 1010 l 282 794 l 282 779 l 218 779 z "},"":{"ha":871,"x_min":112,"x_max":810,"o":"m 300 879 l 300 1010 l 810 1010 l 810 879 l 300 879 m 300 0 l 300 131 l 810 131 l 810 0 l 300 0 m 631 1010 l 631 0 l 478 0 l 478 1010 l 631 1010 m 112 852 l 112 867 l 188 1083 l 346 1083 l 346 1069 l 189 852 l 112 852 z "},"":{"ha":632,"x_min":61,"x_max":571,"o":"m 61 879 l 61 1010 l 571 1010 l 571 879 l 61 879 m 61 0 l 61 131 l 571 131 l 571 0 l 61 0 m 393 1010 l 393 0 l 240 0 l 240 1010 l 393 1010 z "},"":{"ha":632,"x_min":61,"x_max":571,"o":"m 61 879 l 61 1010 l 571 1010 l 571 879 l 61 879 m 61 0 l 61 131 l 571 131 l 571 0 l 61 0 m 393 1010 l 393 0 l 240 0 l 240 1010 l 393 1010 m 172 1129 q 110 1155 137 1129 q 84 1215 84 1181 q 110 1276 84 1252 q 172 1301 137 1301 q 234 1276 209 1301 q 258 1215 258 1252 q 234 1155 258 1181 q 172 1129 209 1129 m 462 1129 q 400 1155 427 1129 q 374 1215 374 1181 q 400 1276 374 1252 q 462 1301 427 1301 q 524 1276 499 1301 q 548 1215 548 1252 q 524 1155 548 1181 q 462 1129 499 1129 z "},"J":{"ha":766,"x_min":49,"x_max":655,"o":"m 504 1010 l 655 1010 l 655 294 q 617 128 655 197 q 510 22 579 59 q 348 -14 441 -14 q 195 17 263 -14 q 88 108 127 48 q 49 253 49 167 l 200 253 q 220 180 200 211 q 273 132 239 149 q 352 115 308 115 q 434 136 400 115 q 486 196 468 156 q 504 294 504 236 l 504 1010 z "},"Ĵ":{"ha":766,"x_min":49,"x_max":814,"o":"m 504 1010 l 655 1010 l 655 294 q 617 128 655 197 q 510 22 579 59 q 348 -14 441 -14 q 195 17 263 -14 q 88 108 127 48 q 49 253 49 167 l 200 253 q 220 180 200 211 q 273 132 239 149 q 352 115 308 115 q 434 136 400 115 q 486 196 468 156 q 504 294 504 236 l 504 1010 m 681 1101 l 580 1233 l 478 1101 l 345 1101 l 345 1108 l 518 1317 l 641 1317 l 814 1108 l 814 1101 l 681 1101 z "},"Ɉ":{"ha":766,"x_min":49,"x_max":805,"o":"m 504 1010 l 655 1010 l 655 294 q 617 128 655 197 q 510 22 579 59 q 348 -14 441 -14 q 195 17 263 -14 q 88 108 127 48 q 49 253 49 167 l 200 253 q 220 180 200 211 q 273 132 239 149 q 352 115 308 115 q 434 136 400 115 q 486 196 468 156 q 504 294 504 236 l 504 1010 m 352 550 l 352 652 l 805 652 l 805 550 l 352 550 z "},"Ϳ":{"ha":766,"x_min":49,"x_max":655,"o":"m 504 1010 l 655 1010 l 655 294 q 617 128 655 197 q 510 22 579 59 q 348 -14 441 -14 q 195 17 263 -14 q 88 108 127 48 q 49 253 49 167 l 200 253 q 220 180 200 211 q 273 132 239 149 q 352 115 308 115 q 434 136 400 115 q 486 196 468 156 q 504 294 504 236 l 504 1010 z "},"Ј":{"ha":766,"x_min":49,"x_max":655,"o":"m 504 1010 l 655 1010 l 655 294 q 617 128 655 197 q 510 22 579 59 q 348 -14 441 -14 q 195 17 263 -14 q 88 108 127 48 q 49 253 49 167 l 200 253 q 220 180 200 211 q 273 132 239 149 q 352 115 308 115 q 434 136 400 115 q 486 196 468 156 q 504 294 504 236 l 504 1010 z "},"K":{"ha":923,"x_min":111,"x_max":893,"o":"m 111 0 l 111 1010 l 263 1010 l 263 528 l 276 528 l 699 1010 l 891 1010 l 484 555 l 893 0 l 709 0 l 383 451 l 263 314 l 263 0 l 111 0 z "},"Ķ":{"ha":923,"x_min":111,"x_max":893,"o":"m 111 0 l 111 1010 l 263 1010 l 263 528 l 276 528 l 699 1010 l 891 1010 l 484 555 l 893 0 l 709 0 l 383 451 l 263 314 l 263 0 l 111 0 m 331 -331 l 389 -79 l 533 -79 l 441 -331 l 331 -331 z "},"Ǩ":{"ha":923,"x_min":111,"x_max":893,"o":"m 111 0 l 111 1010 l 263 1010 l 263 528 l 276 528 l 699 1010 l 891 1010 l 484 555 l 893 0 l 709 0 l 383 451 l 263 314 l 263 0 l 111 0 m 363 1317 l 465 1185 l 566 1317 l 699 1317 l 699 1310 l 526 1101 l 403 1101 l 230 1310 l 230 1317 l 363 1317 z "},"Ḱ":{"ha":923,"x_min":111,"x_max":893,"o":"m 111 0 l 111 1010 l 263 1010 l 263 528 l 276 528 l 699 1010 l 891 1010 l 484 555 l 893 0 l 709 0 l 383 451 l 263 314 l 263 0 l 111 0 m 403 1111 l 519 1339 l 674 1339 l 521 1111 l 403 1111 z "},"Ḳ":{"ha":923,"x_min":111,"x_max":893,"o":"m 111 0 l 111 1010 l 263 1010 l 263 528 l 276 528 l 699 1010 l 891 1010 l 484 555 l 893 0 l 709 0 l 383 451 l 263 314 l 263 0 l 111 0 m 461 -261 q 395 -235 423 -261 q 367 -173 367 -210 q 395 -111 367 -137 q 461 -85 423 -85 q 527 -111 499 -85 q 554 -173 554 -137 q 527 -235 554 -210 q 461 -261 499 -261 z "},"Ḵ":{"ha":923,"x_min":111,"x_max":893,"o":"m 111 0 l 111 1010 l 263 1010 l 263 528 l 276 528 l 699 1010 l 891 1010 l 484 555 l 893 0 l 709 0 l 383 451 l 263 314 l 263 0 l 111 0 m 695 -124 l 695 -228 l 227 -228 l 227 -124 l 695 -124 z "},"Ҡ":{"ha":1084,"x_min":15,"x_max":1043,"o":"m 857 0 l 517 453 l 410 453 l 410 0 l 257 0 l 257 882 l 15 882 l 15 1010 l 410 1010 l 410 583 l 460 583 l 841 1010 l 1027 1010 l 623 558 l 1043 0 l 857 0 z "},"Қ":{"ha":980,"x_min":111,"x_max":922,"o":"m 710 0 l 371 453 l 263 453 l 263 0 l 111 0 l 111 1010 l 263 1010 l 263 583 l 313 583 l 695 1010 l 881 1010 l 477 558 l 896 0 l 710 0 m 923 123 l 923 -242 l 777 -242 l 777 123 l 923 123 z "},"Ƙ":{"ha":960,"x_min":111,"x_max":948,"o":"m 111 0 l 111 1010 l 263 1010 l 263 531 l 276 531 l 654 943 q 747 1009 697 989 q 849 1021 797 1028 q 948 982 901 1014 l 893 871 q 825 886 857 892 q 756 840 793 879 l 484 551 l 906 0 l 722 0 l 389 444 l 263 305 l 263 0 l 111 0 z "},"Κ":{"ha":923,"x_min":111,"x_max":893,"o":"m 111 0 l 111 1010 l 263 1010 l 263 528 l 276 528 l 699 1010 l 891 1010 l 484 555 l 893 0 l 709 0 l 383 451 l 263 314 l 263 0 l 111 0 z "},"L":{"ha":784,"x_min":111,"x_max":721,"o":"m 111 0 l 111 1010 l 263 1010 l 263 131 l 721 131 l 721 0 l 111 0 z "},"Ĺ":{"ha":784,"x_min":111,"x_max":721,"o":"m 111 0 l 111 1010 l 263 1010 l 263 131 l 721 131 l 721 0 l 111 0 m 126 1111 l 241 1339 l 397 1339 l 244 1111 l 126 1111 z "},"Ļ":{"ha":784,"x_min":111,"x_max":721,"o":"m 111 0 l 111 1010 l 263 1010 l 263 131 l 721 131 l 721 0 l 111 0 m 287 -331 l 344 -80 l 488 -80 l 396 -331 l 287 -331 z "},"Ľ":{"ha":784,"x_min":111,"x_max":721,"o":"m 111 0 l 111 1010 l 263 1010 l 263 131 l 721 131 l 721 0 l 111 0 m 428 802 l 428 1059 l 560 1059 l 526 802 l 428 802 z "},"Ḷ":{"ha":784,"x_min":111,"x_max":721,"o":"m 111 0 l 111 1010 l 263 1010 l 263 131 l 721 131 l 721 0 l 111 0 m 416 -261 q 350 -236 378 -261 q 323 -174 323 -210 q 350 -111 323 -137 q 416 -86 378 -86 q 482 -111 454 -86 q 509 -174 509 -137 q 482 -236 509 -210 q 416 -261 454 -261 z "},"Ḹ":{"ha":784,"x_min":-47,"x_max":721,"o":"m 111 0 l 111 1010 l 263 1010 l 263 131 l 721 131 l 721 0 l 111 0 m 416 -261 q 350 -236 378 -261 q 323 -174 323 -210 q 350 -111 323 -137 q 416 -86 378 -86 q 482 -111 454 -86 q 509 -174 509 -137 q 482 -236 509 -210 q 416 -261 454 -261 m 421 1263 l 421 1159 l -47 1159 l -47 1263 l 421 1263 z "},"Ḻ":{"ha":784,"x_min":111,"x_max":721,"o":"m 111 0 l 111 1010 l 263 1010 l 263 131 l 721 131 l 721 0 l 111 0 m 650 -125 l 650 -229 l 182 -229 l 182 -125 l 650 -125 z "},"Ḽ":{"ha":784,"x_min":111,"x_max":721,"o":"m 111 0 l 111 1010 l 263 1010 l 263 131 l 721 131 l 721 0 l 111 0 m 517 -280 l 416 -147 l 315 -280 l 181 -280 l 181 -272 l 355 -63 l 477 -63 l 651 -272 l 651 -280 l 517 -280 z "},"Ł":{"ha":792,"x_min":27,"x_max":735,"o":"m 446 638 l 446 540 l 27 414 l 27 512 l 446 638 m 125 0 l 125 1010 l 278 1010 l 278 131 l 735 131 l 735 0 l 125 0 z "},"Ƚ":{"ha":784,"x_min":-40,"x_max":721,"o":"m 111 0 l 111 1010 l 263 1010 l 263 131 l 721 131 l 721 0 l 111 0 m -40 473 l -40 576 l 413 576 l 413 473 l -40 473 z "},"ǈ":{"ha":1129,"x_min":111,"x_max":1049,"o":"m 111 0 l 111 1010 l 263 1010 l 263 131 l 721 131 l 721 0 l 111 0 m 883 758 l 1030 758 l 1030 -49 q 1003 -178 1030 -125 q 922 -257 976 -230 q 790 -284 869 -284 q 775 -284 782 -284 q 760 -284 768 -284 l 760 -157 q 772 -157 767 -157 q 784 -157 777 -157 q 859 -129 836 -157 q 883 -48 883 -101 l 883 758 m 956 874 q 890 900 917 874 q 863 962 863 926 q 890 1025 863 999 q 956 1051 917 1051 q 1022 1025 994 1051 q 1049 962 1049 999 q 1022 900 1049 926 q 956 874 994 874 z "},"M":{"ha":1247,"x_min":111,"x_max":1136,"o":"m 111 1010 l 296 1010 l 618 225 l 629 225 l 951 1010 l 1136 1010 l 1136 0 l 991 0 l 991 731 l 981 731 l 684 1 l 563 1 l 265 731 l 256 731 l 256 0 l 111 0 l 111 1010 z "},"Ḿ":{"ha":1247,"x_min":111,"x_max":1136,"o":"m 111 1010 l 296 1010 l 618 225 l 629 225 l 951 1010 l 1136 1010 l 1136 0 l 991 0 l 991 731 l 981 731 l 684 1 l 563 1 l 265 731 l 256 731 l 256 0 l 111 0 l 111 1010 m 563 1111 l 678 1339 l 834 1339 l 681 1111 l 563 1111 z "},"Ṁ":{"ha":1247,"x_min":111,"x_max":1136,"o":"m 111 1010 l 296 1010 l 618 225 l 629 225 l 951 1010 l 1136 1010 l 1136 0 l 991 0 l 991 731 l 981 731 l 684 1 l 563 1 l 265 731 l 256 731 l 256 0 l 111 0 l 111 1010 m 623 1127 q 558 1153 585 1127 q 530 1215 530 1179 q 558 1277 530 1251 q 623 1303 585 1303 q 689 1277 662 1303 q 717 1215 717 1251 q 689 1153 717 1179 q 623 1127 662 1127 z "},"Ṃ":{"ha":1247,"x_min":111,"x_max":1136,"o":"m 111 1010 l 296 1010 l 618 225 l 629 225 l 951 1010 l 1136 1010 l 1136 0 l 991 0 l 991 731 l 981 731 l 684 1 l 563 1 l 265 731 l 256 731 l 256 0 l 111 0 l 111 1010 m 623 -261 q 558 -236 585 -261 q 530 -174 530 -210 q 558 -111 530 -137 q 623 -86 585 -86 q 689 -111 662 -86 q 717 -174 717 -137 q 689 -236 717 -210 q 623 -261 662 -261 z "},"Ӎ":{"ha":1277,"x_min":111,"x_max":1270,"o":"m 111 1010 l 296 1010 l 618 225 l 629 225 l 951 1010 l 1136 1010 l 1136 0 l 991 0 l 991 731 l 981 731 l 684 1 l 563 1 l 265 731 l 256 731 l 256 0 l 111 0 l 111 1010 m 1269 90 l 1269 -11 q 1258 -104 1269 -58 q 1226 -191 1247 -149 q 1176 -270 1205 -233 l 1073 -240 q 1103 -168 1089 -203 q 1127 -96 1118 -133 q 1136 -17 1136 -59 l 1136 90 l 1269 90 z "},"Μ":{"ha":1247,"x_min":111,"x_max":1136,"o":"m 111 1010 l 296 1010 l 618 225 l 629 225 l 951 1010 l 1136 1010 l 1136 0 l 991 0 l 991 731 l 981 731 l 684 1 l 563 1 l 265 731 l 256 731 l 256 0 l 111 0 l 111 1010 z "},"Ϻ":{"ha":1247,"x_min":111,"x_max":1136,"o":"m 111 1010 l 296 1010 l 618 225 l 629 225 l 951 1010 l 1136 1010 l 1136 0 l 991 0 l 991 731 l 981 731 l 684 1 l 563 1 l 265 731 l 256 731 l 256 0 l 111 0 l 111 1010 z "},"М":{"ha":1247,"x_min":111,"x_max":1136,"o":"m 111 1010 l 296 1010 l 618 225 l 629 225 l 951 1010 l 1136 1010 l 1136 0 l 991 0 l 991 731 l 981 731 l 684 1 l 563 1 l 265 731 l 256 731 l 256 0 l 111 0 l 111 1010 z "},"N":{"ha":1037,"x_min":111,"x_max":926,"o":"m 926 1010 l 926 0 l 786 0 l 273 741 l 263 741 l 263 0 l 111 0 l 111 1010 l 252 1010 l 766 268 l 775 268 l 775 1010 l 926 1010 z "},"Ñ":{"ha":1037,"x_min":111,"x_max":926,"o":"m 926 1010 l 926 0 l 786 0 l 273 741 l 263 741 l 263 0 l 111 0 l 111 1010 l 252 1010 l 766 268 l 775 268 l 775 1010 l 926 1010 m 370 1102 l 271 1105 q 315 1235 271 1187 q 425 1284 360 1284 q 477 1274 455 1284 q 520 1251 500 1264 q 560 1228 540 1238 q 605 1218 580 1218 q 651 1239 633 1218 q 669 1293 669 1261 l 766 1287 q 722 1157 766 1204 q 613 1110 678 1110 q 555 1120 578 1110 q 514 1143 532 1130 q 478 1166 497 1156 q 433 1177 459 1177 q 388 1155 405 1177 q 370 1102 370 1134 z "},"Ń":{"ha":1037,"x_min":111,"x_max":926,"o":"m 926 1010 l 926 0 l 786 0 l 273 741 l 263 741 l 263 0 l 111 0 l 111 1010 l 252 1010 l 766 268 l 775 268 l 775 1010 l 926 1010 m 458 1111 l 574 1339 l 729 1339 l 576 1111 l 458 1111 z "},"Ņ":{"ha":1037,"x_min":111,"x_max":926,"o":"m 926 1010 l 926 0 l 786 0 l 273 741 l 263 741 l 263 0 l 111 0 l 111 1010 l 252 1010 l 766 268 l 775 268 l 775 1010 l 926 1010 m 390 -331 l 447 -80 l 591 -80 l 499 -331 l 390 -331 z "},"Ň":{"ha":1037,"x_min":111,"x_max":926,"o":"m 926 1010 l 926 0 l 786 0 l 273 741 l 263 741 l 263 0 l 111 0 l 111 1010 l 252 1010 l 766 268 l 775 268 l 775 1010 l 926 1010 m 417 1317 l 519 1185 l 620 1317 l 754 1317 l 754 1310 l 580 1101 l 457 1101 l 284 1310 l 284 1317 l 417 1317 z "},"Ǹ":{"ha":1037,"x_min":111,"x_max":926,"o":"m 926 1010 l 926 0 l 786 0 l 273 741 l 263 741 l 263 0 l 111 0 l 111 1010 l 252 1010 l 766 268 l 775 268 l 775 1010 l 926 1010 m 462 1111 l 309 1339 l 465 1339 l 580 1111 l 462 1111 z "},"Ṅ":{"ha":1037,"x_min":111,"x_max":926,"o":"m 926 1010 l 926 0 l 786 0 l 273 741 l 263 741 l 263 0 l 111 0 l 111 1010 l 252 1010 l 766 268 l 775 268 l 775 1010 l 926 1010 m 519 1127 q 453 1153 480 1127 q 426 1215 426 1179 q 453 1277 426 1251 q 519 1303 480 1303 q 585 1277 557 1303 q 612 1215 612 1251 q 585 1153 612 1179 q 519 1127 557 1127 z "},"Ṇ":{"ha":1037,"x_min":111,"x_max":926,"o":"m 926 1010 l 926 0 l 786 0 l 273 741 l 263 741 l 263 0 l 111 0 l 111 1010 l 252 1010 l 766 268 l 775 268 l 775 1010 l 926 1010 m 519 -261 q 453 -236 481 -261 q 426 -174 426 -210 q 453 -111 426 -137 q 519 -86 481 -86 q 585 -111 557 -86 q 612 -174 612 -137 q 585 -236 612 -210 q 519 -261 557 -261 z "},"Ṉ":{"ha":1037,"x_min":111,"x_max":926,"o":"m 926 1010 l 926 0 l 786 0 l 273 741 l 263 741 l 263 0 l 111 0 l 111 1010 l 252 1010 l 766 268 l 775 268 l 775 1010 l 926 1010 m 753 -125 l 753 -229 l 285 -229 l 285 -125 l 753 -125 z "},"Ṋ":{"ha":1037,"x_min":111,"x_max":926,"o":"m 926 1010 l 926 0 l 786 0 l 273 741 l 263 741 l 263 0 l 111 0 l 111 1010 l 252 1010 l 766 268 l 775 268 l 775 1010 l 926 1010 m 620 -280 l 519 -147 l 418 -280 l 284 -280 l 284 -272 l 458 -63 l 581 -63 l 754 -272 l 754 -280 l 620 -280 z "},"Ɲ":{"ha":1049,"x_min":-24,"x_max":938,"o":"m 123 0 l 275 0 l 275 -70 q 257 -167 275 -126 q 208 -234 239 -208 q 138 -272 178 -260 q 54 -284 98 -284 q 13 -283 36 -284 q -24 -279 -9 -283 l -24 -158 q -5 -160 -15 -159 q 15 -161 5 -161 q 92 -141 61 -161 q 123 -68 123 -122 l 123 0 m 938 1010 l 938 0 l 798 0 l 285 741 l 275 741 l 275 0 l 123 0 l 123 1010 l 264 1010 l 778 268 l 787 268 l 787 1010 l 938 1010 z "},"Ŋ":{"ha":1037,"x_min":111,"x_max":926,"o":"m 786 0 l 926 0 l 926 -68 q 896 -192 926 -143 q 813 -265 865 -241 q 693 -289 760 -289 q 656 -288 675 -289 q 623 -282 638 -287 l 623 -162 q 646 -165 633 -164 q 672 -167 659 -167 q 754 -145 721 -167 q 786 -67 786 -123 l 786 0 m 926 1010 l 926 0 l 786 0 l 273 741 l 263 741 l 263 0 l 111 0 l 111 1010 l 252 1010 l 766 268 l 775 268 l 775 1010 l 926 1010 z "},"И":{"ha":1037,"x_min":111,"x_max":926,"o":"m 111 1010 l 262 1010 l 262 268 l 271 268 l 785 1010 l 926 1010 l 926 0 l 774 0 l 774 741 l 764 741 l 252 0 l 111 0 l 111 1010 z "},"Ѝ":{"ha":1037,"x_min":111,"x_max":926,"o":"m 111 1010 l 262 1010 l 262 268 l 271 268 l 785 1010 l 926 1010 l 926 0 l 774 0 l 774 741 l 764 741 l 252 0 l 111 0 l 111 1010 m 462 1111 l 309 1339 l 465 1339 l 580 1111 l 462 1111 z "},"Й":{"ha":1037,"x_min":111,"x_max":926,"o":"m 111 1010 l 262 1010 l 262 268 l 271 268 l 785 1010 l 926 1010 l 926 0 l 774 0 l 774 741 l 764 741 l 252 0 l 111 0 l 111 1010 m 616 1267 l 737 1267 q 678 1131 737 1183 q 519 1079 619 1079 q 361 1131 419 1079 q 302 1267 302 1183 l 423 1267 q 444 1201 423 1230 q 519 1173 466 1173 q 593 1201 571 1173 q 616 1267 616 1229 z "},"Ӣ":{"ha":1037,"x_min":111,"x_max":926,"o":"m 111 1010 l 262 1010 l 262 268 l 271 268 l 785 1010 l 926 1010 l 926 0 l 774 0 l 774 741 l 764 741 l 252 0 l 111 0 l 111 1010 m 753 1263 l 753 1159 l 285 1159 l 285 1263 l 753 1263 z "},"Ӥ":{"ha":1037,"x_min":111,"x_max":926,"o":"m 111 1010 l 262 1010 l 262 268 l 271 268 l 785 1010 l 926 1010 l 926 0 l 774 0 l 774 741 l 764 741 l 252 0 l 111 0 l 111 1010 m 374 1129 q 313 1155 339 1129 q 287 1215 287 1181 q 313 1276 287 1252 q 374 1301 339 1301 q 436 1276 411 1301 q 461 1215 461 1252 q 436 1155 461 1181 q 374 1129 411 1129 m 664 1129 q 603 1155 629 1129 q 577 1215 577 1181 q 603 1276 577 1252 q 664 1301 629 1301 q 726 1276 701 1301 q 751 1215 751 1252 q 726 1155 751 1181 q 664 1129 701 1129 z "},"Ҋ":{"ha":1037,"x_min":111,"x_max":1060,"o":"m 111 1010 l 262 1010 l 262 268 l 271 268 l 785 1010 l 926 1010 l 926 0 l 774 0 l 774 741 l 764 741 l 252 0 l 111 0 l 111 1010 m 616 1267 l 737 1267 q 678 1131 737 1183 q 519 1079 619 1079 q 361 1131 419 1079 q 302 1267 302 1183 l 423 1267 q 444 1201 423 1230 q 519 1173 466 1173 q 593 1201 571 1173 q 616 1267 616 1229 m 1060 90 l 1060 -11 q 1049 -104 1059 -58 q 1017 -191 1038 -149 q 967 -270 996 -233 l 864 -240 q 894 -168 880 -203 q 918 -96 908 -133 q 927 -17 927 -59 l 927 90 l 1060 90 z "},"Ͷ":{"ha":1056,"x_min":120,"x_max":936,"o":"m 120 1010 l 271 1010 l 271 268 l 280 268 l 794 1010 l 935 1010 l 935 0 l 783 0 l 783 741 l 773 741 l 260 0 l 120 0 l 120 1010 z "},"Ν":{"ha":1037,"x_min":111,"x_max":926,"o":"m 926 1010 l 926 0 l 786 0 l 273 741 l 263 741 l 263 0 l 111 0 l 111 1010 l 252 1010 l 766 268 l 775 268 l 775 1010 l 926 1010 z "},"ǋ":{"ha":1358,"x_min":111,"x_max":1277,"o":"m 926 1010 l 926 0 l 786 0 l 273 741 l 263 741 l 263 0 l 111 0 l 111 1010 l 252 1010 l 766 268 l 775 268 l 775 1010 l 926 1010 m 1111 758 l 1259 758 l 1259 -49 q 1231 -178 1259 -125 q 1150 -257 1204 -230 q 1018 -284 1097 -284 q 1003 -284 1011 -284 q 988 -284 996 -284 l 988 -157 q 1000 -157 995 -157 q 1012 -157 1006 -157 q 1088 -129 1064 -157 q 1111 -48 1111 -101 l 1111 758 m 1184 874 q 1118 900 1146 874 q 1091 962 1091 926 q 1118 1025 1091 999 q 1184 1051 1146 1051 q 1250 1025 1223 1051 q 1277 962 1277 999 q 1250 900 1277 926 q 1184 874 1223 874 z "},"O":{"ha":1067,"x_min":78,"x_max":988,"o":"m 988 505 q 929 227 988 343 q 767 49 870 111 q 534 -14 664 -14 q 300 49 402 -14 q 138 227 197 111 q 78 505 78 344 q 138 783 78 667 q 300 962 197 899 q 534 1024 402 1024 q 767 962 664 1024 q 929 783 870 899 q 988 505 988 667 m 837 505 q 798 713 837 628 q 689 841 758 798 q 534 885 620 885 q 378 841 446 885 q 270 713 309 798 q 230 505 230 628 q 270 297 230 382 q 378 169 309 213 q 534 125 446 125 q 689 169 620 125 q 798 297 758 213 q 837 505 837 382 z "},"Ö":{"ha":1067,"x_min":78,"x_max":988,"o":"m 988 505 q 929 227 988 343 q 767 49 870 111 q 534 -14 664 -14 q 300 49 402 -14 q 138 227 197 111 q 78 505 78 344 q 138 783 78 667 q 300 962 197 899 q 534 1024 402 1024 q 767 962 664 1024 q 929 783 870 899 q 988 505 988 667 m 837 505 q 798 713 837 628 q 689 841 758 798 q 534 885 620 885 q 378 841 446 885 q 270 713 309 798 q 230 505 230 628 q 270 297 230 382 q 378 169 309 213 q 534 125 446 125 q 689 169 620 125 q 798 297 758 213 q 837 505 837 382 m 389 1129 q 327 1155 354 1129 q 301 1215 301 1181 q 327 1276 301 1252 q 389 1301 354 1301 q 451 1276 426 1301 q 475 1215 475 1252 q 451 1155 475 1181 q 389 1129 426 1129 m 679 1129 q 618 1155 644 1129 q 591 1215 591 1181 q 618 1276 591 1252 q 679 1301 644 1301 q 741 1276 716 1301 q 765 1215 765 1252 q 741 1155 765 1181 q 679 1129 716 1129 z "},"Õ":{"ha":1067,"x_min":78,"x_max":988,"o":"m 988 505 q 929 227 988 343 q 767 49 870 111 q 534 -14 664 -14 q 300 49 402 -14 q 138 227 197 111 q 78 505 78 344 q 138 783 78 667 q 300 962 197 899 q 534 1024 402 1024 q 767 962 664 1024 q 929 783 870 899 q 988 505 988 667 m 837 505 q 798 713 837 628 q 689 841 758 798 q 534 885 620 885 q 378 841 446 885 q 270 713 309 798 q 230 505 230 628 q 270 297 230 382 q 378 169 309 213 q 534 125 446 125 q 689 169 620 125 q 798 297 758 213 q 837 505 837 382 m 385 1110 l 286 1114 q 330 1244 286 1195 q 439 1293 374 1293 q 492 1283 470 1293 q 535 1260 515 1273 q 575 1236 554 1246 q 619 1226 595 1226 q 666 1248 648 1227 q 684 1302 684 1270 l 781 1295 q 737 1166 781 1213 q 628 1119 692 1119 q 570 1129 593 1119 q 529 1152 546 1139 q 492 1175 511 1165 q 447 1185 473 1185 q 403 1164 420 1185 q 385 1110 385 1143 z "},"Ø":{"ha":1067,"x_min":78,"x_max":988,"o":"m 218 -44 l 136 12 l 845 1052 l 928 996 l 218 -44 m 988 505 q 929 227 988 343 q 767 49 870 111 q 534 -14 664 -14 q 300 49 402 -14 q 138 227 197 111 q 78 505 78 344 q 138 783 78 667 q 300 962 197 899 q 534 1024 402 1024 q 767 962 664 1024 q 929 783 870 899 q 988 505 988 667 m 837 505 q 798 713 837 628 q 689 841 758 798 q 534 885 620 885 q 378 841 446 885 q 270 713 309 798 q 230 505 230 628 q 270 297 230 382 q 378 169 309 213 q 534 125 446 125 q 689 169 620 125 q 798 297 758 213 q 837 505 837 382 z "},"Ơ":{"ha":1093,"x_min":78,"x_max":1074,"o":"m 952 1075 l 1074 1075 q 1009 864 1074 939 q 811 789 944 789 l 811 889 q 919 938 886 889 q 952 1075 952 987 m 988 505 q 929 227 988 343 q 767 49 870 111 q 534 -14 664 -14 q 300 49 402 -14 q 138 227 197 111 q 78 505 78 344 q 138 783 78 667 q 300 962 197 899 q 534 1024 402 1024 q 767 962 664 1024 q 929 783 870 899 q 988 505 988 667 m 837 505 q 798 713 837 628 q 689 841 758 798 q 534 885 620 885 q 378 841 446 885 q 270 713 309 798 q 230 505 230 628 q 270 297 230 382 q 378 169 309 213 q 534 125 446 125 q 689 169 620 125 q 798 297 758 213 q 837 505 837 382 z "},"Ò":{"ha":1067,"x_min":78,"x_max":988,"o":"m 988 505 q 929 227 988 343 q 767 49 870 111 q 534 -14 664 -14 q 300 49 402 -14 q 138 227 197 111 q 78 505 78 344 q 138 783 78 667 q 300 962 197 899 q 534 1024 402 1024 q 767 962 664 1024 q 929 783 870 899 q 988 505 988 667 m 837 505 q 798 713 837 628 q 689 841 758 798 q 534 885 620 885 q 378 841 446 885 q 270 713 309 798 q 230 505 230 628 q 270 297 230 382 q 378 169 309 213 q 534 125 446 125 q 689 169 620 125 q 798 297 758 213 q 837 505 837 382 m 476 1111 l 324 1339 l 479 1339 l 594 1111 l 476 1111 z "},"Ó":{"ha":1067,"x_min":78,"x_max":988,"o":"m 988 505 q 929 227 988 343 q 767 49 870 111 q 534 -14 664 -14 q 300 49 402 -14 q 138 227 197 111 q 78 505 78 344 q 138 783 78 667 q 300 962 197 899 q 534 1024 402 1024 q 767 962 664 1024 q 929 783 870 899 q 988 505 988 667 m 837 505 q 798 713 837 628 q 689 841 758 798 q 534 885 620 885 q 378 841 446 885 q 270 713 309 798 q 230 505 230 628 q 270 297 230 382 q 378 169 309 213 q 534 125 446 125 q 689 169 620 125 q 798 297 758 213 q 837 505 837 382 m 472 1111 l 588 1339 l 743 1339 l 590 1111 l 472 1111 z "},"Ô":{"ha":1067,"x_min":78,"x_max":988,"o":"m 988 505 q 929 227 988 343 q 767 49 870 111 q 534 -14 664 -14 q 300 49 402 -14 q 138 227 197 111 q 78 505 78 344 q 138 783 78 667 q 300 962 197 899 q 534 1024 402 1024 q 767 962 664 1024 q 929 783 870 899 q 988 505 988 667 m 837 505 q 798 713 837 628 q 689 841 758 798 q 534 885 620 885 q 378 841 446 885 q 270 713 309 798 q 230 505 230 628 q 270 297 230 382 q 378 169 309 213 q 534 125 446 125 q 689 169 620 125 q 798 297 758 213 q 837 505 837 382 m 635 1101 l 534 1233 l 432 1101 l 299 1101 l 299 1108 l 472 1317 l 595 1317 l 768 1108 l 768 1101 l 635 1101 z "},"Ō":{"ha":1067,"x_min":78,"x_max":988,"o":"m 988 505 q 929 227 988 343 q 767 49 870 111 q 534 -14 664 -14 q 300 49 402 -14 q 138 227 197 111 q 78 505 78 344 q 138 783 78 667 q 300 962 197 899 q 534 1024 402 1024 q 767 962 664 1024 q 929 783 870 899 q 988 505 988 667 m 837 505 q 798 713 837 628 q 689 841 758 798 q 534 885 620 885 q 378 841 446 885 q 270 713 309 798 q 230 505 230 628 q 270 297 230 382 q 378 169 309 213 q 534 125 446 125 q 689 169 620 125 q 798 297 758 213 q 837 505 837 382 m 767 1263 l 767 1159 l 299 1159 l 299 1263 l 767 1263 z "},"Ŏ":{"ha":1067,"x_min":78,"x_max":988,"o":"m 988 505 q 929 227 988 343 q 767 49 870 111 q 534 -14 664 -14 q 300 49 402 -14 q 138 227 197 111 q 78 505 78 344 q 138 783 78 667 q 300 962 197 899 q 534 1024 402 1024 q 767 962 664 1024 q 929 783 870 899 q 988 505 988 667 m 837 505 q 798 713 837 628 q 689 841 758 798 q 534 885 620 885 q 378 841 446 885 q 270 713 309 798 q 230 505 230 628 q 270 297 230 382 q 378 169 309 213 q 534 125 446 125 q 689 169 620 125 q 798 297 758 213 q 837 505 837 382 m 630 1267 l 752 1267 q 693 1131 752 1183 q 534 1079 634 1079 q 375 1131 434 1079 q 317 1267 317 1183 l 437 1267 q 459 1201 437 1230 q 534 1173 481 1173 q 608 1201 585 1173 q 630 1267 630 1229 z "},"Ő":{"ha":1067,"x_min":78,"x_max":988,"o":"m 988 505 q 929 227 988 343 q 767 49 870 111 q 534 -14 664 -14 q 300 49 402 -14 q 138 227 197 111 q 78 505 78 344 q 138 783 78 667 q 300 962 197 899 q 534 1024 402 1024 q 767 962 664 1024 q 929 783 870 899 q 988 505 988 667 m 837 505 q 798 713 837 628 q 689 841 758 798 q 534 885 620 885 q 378 841 446 885 q 270 713 309 798 q 230 505 230 628 q 270 297 230 382 q 378 169 309 213 q 534 125 446 125 q 689 169 620 125 q 798 297 758 213 q 837 505 837 382 m 565 1094 l 719 1302 l 865 1302 l 683 1094 l 565 1094 m 346 1094 l 463 1302 l 608 1302 l 456 1094 l 346 1094 z "},"Ǒ":{"ha":1067,"x_min":78,"x_max":988,"o":"m 988 505 q 929 227 988 343 q 767 49 870 111 q 534 -14 664 -14 q 300 49 402 -14 q 138 227 197 111 q 78 505 78 344 q 138 783 78 667 q 300 962 197 899 q 534 1024 402 1024 q 767 962 664 1024 q 929 783 870 899 q 988 505 988 667 m 837 505 q 798 713 837 628 q 689 841 758 798 q 534 885 620 885 q 378 841 446 885 q 270 713 309 798 q 230 505 230 628 q 270 297 230 382 q 378 169 309 213 q 534 125 446 125 q 689 169 620 125 q 798 297 758 213 q 837 505 837 382 m 432 1317 l 534 1185 l 635 1317 l 768 1317 l 768 1310 l 595 1101 l 472 1101 l 299 1310 l 299 1317 l 432 1317 z "},"Ǫ":{"ha":1067,"x_min":78,"x_max":988,"o":"m 988 505 q 929 227 988 343 q 767 49 870 111 q 534 -14 664 -14 q 300 49 402 -14 q 138 227 197 111 q 78 505 78 344 q 138 783 78 667 q 300 962 197 899 q 534 1024 402 1024 q 767 962 664 1024 q 929 783 870 899 q 988 505 988 667 m 837 505 q 798 713 837 628 q 689 841 758 798 q 534 885 620 885 q 378 841 446 885 q 270 713 309 798 q 230 505 230 628 q 270 297 230 382 q 378 169 309 213 q 534 125 446 125 q 689 169 620 125 q 798 297 758 213 q 837 505 837 382 m 545 -294 q 442 -260 483 -294 q 397 -164 400 -227 q 409 -88 394 -126 q 458 -16 424 -50 q 551 44 493 18 l 639 -2 q 561 -64 594 -32 q 528 -138 527 -97 q 539 -174 527 -161 q 578 -186 550 -186 q 614 -181 598 -186 q 640 -171 629 -176 l 652 -264 q 608 -284 635 -275 q 545 -294 581 -294 z "},"Ǭ":{"ha":1067,"x_min":78,"x_max":988,"o":"m 988 505 q 929 227 988 343 q 767 49 870 111 q 534 -14 664 -14 q 300 49 402 -14 q 138 227 197 111 q 78 505 78 344 q 138 783 78 667 q 300 962 197 899 q 534 1024 402 1024 q 767 962 664 1024 q 929 783 870 899 q 988 505 988 667 m 837 505 q 798 713 837 628 q 689 841 758 798 q 534 885 620 885 q 378 841 446 885 q 270 713 309 798 q 230 505 230 628 q 270 297 230 382 q 378 169 309 213 q 534 125 446 125 q 689 169 620 125 q 798 297 758 213 q 837 505 837 382 m 545 -294 q 442 -260 483 -294 q 397 -164 400 -227 q 409 -88 394 -126 q 458 -16 424 -50 q 551 44 493 18 l 639 -2 q 561 -64 594 -32 q 528 -138 527 -97 q 539 -174 527 -161 q 578 -186 550 -186 q 614 -181 598 -186 q 640 -171 629 -176 l 652 -264 q 608 -284 635 -275 q 545 -294 581 -294 m 767 1263 l 767 1159 l 299 1159 l 299 1263 l 767 1263 z "},"Ȍ":{"ha":1067,"x_min":78,"x_max":988,"o":"m 988 505 q 929 227 988 343 q 767 49 870 111 q 534 -14 664 -14 q 300 49 402 -14 q 138 227 197 111 q 78 505 78 344 q 138 783 78 667 q 300 962 197 899 q 534 1024 402 1024 q 767 962 664 1024 q 929 783 870 899 q 988 505 988 667 m 837 505 q 798 713 837 628 q 689 841 758 798 q 534 885 620 885 q 378 841 446 885 q 270 713 309 798 q 230 505 230 628 q 270 297 230 382 q 378 169 309 213 q 534 125 446 125 q 689 169 620 125 q 798 297 758 213 q 837 505 837 382 m 368 1111 l 209 1339 l 371 1339 l 486 1111 l 368 1111 m 589 1111 l 474 1339 l 636 1339 l 705 1111 l 589 1111 z "},"Ȏ":{"ha":1067,"x_min":78,"x_max":988,"o":"m 988 505 q 929 227 988 343 q 767 49 870 111 q 534 -14 664 -14 q 300 49 402 -14 q 138 227 197 111 q 78 505 78 344 q 138 783 78 667 q 300 962 197 899 q 534 1024 402 1024 q 767 962 664 1024 q 929 783 870 899 q 988 505 988 667 m 837 505 q 798 713 837 628 q 689 841 758 798 q 534 885 620 885 q 378 841 446 885 q 270 713 309 798 q 230 505 230 628 q 270 297 230 382 q 378 169 309 213 q 534 125 446 125 q 689 169 620 125 q 798 297 758 213 q 837 505 837 382 m 315 1135 q 373 1272 315 1218 q 533 1325 432 1325 q 691 1272 633 1325 q 750 1135 750 1218 l 629 1135 q 606 1201 629 1173 q 533 1230 584 1230 q 457 1201 479 1230 q 436 1135 436 1172 l 315 1135 z "},"Ȫ":{"ha":1067,"x_min":78,"x_max":988,"o":"m 988 505 q 929 227 988 343 q 767 49 870 111 q 534 -14 664 -14 q 300 49 402 -14 q 138 227 197 111 q 78 505 78 344 q 138 783 78 667 q 300 962 197 899 q 534 1024 402 1024 q 767 962 664 1024 q 929 783 870 899 q 988 505 988 667 m 837 505 q 798 713 837 628 q 689 841 758 798 q 534 885 620 885 q 378 841 446 885 q 270 713 309 798 q 230 505 230 628 q 270 297 230 382 q 378 169 309 213 q 534 125 446 125 q 689 169 620 125 q 798 297 758 213 q 837 505 837 382 m 389 1129 q 327 1155 354 1129 q 301 1215 301 1181 q 327 1276 301 1252 q 389 1301 354 1301 q 451 1276 426 1301 q 475 1215 475 1252 q 451 1155 475 1181 q 389 1129 426 1129 m 679 1129 q 618 1155 644 1129 q 591 1215 591 1181 q 618 1276 591 1252 q 679 1301 644 1301 q 741 1276 716 1301 q 765 1215 765 1252 q 741 1155 765 1181 q 679 1129 716 1129 m 767 1515 l 767 1412 l 299 1412 l 299 1515 l 767 1515 z "},"Ȭ":{"ha":1067,"x_min":78,"x_max":988,"o":"m 988 505 q 929 227 988 343 q 767 49 870 111 q 534 -14 664 -14 q 300 49 402 -14 q 138 227 197 111 q 78 505 78 344 q 138 783 78 667 q 300 962 197 899 q 534 1024 402 1024 q 767 962 664 1024 q 929 783 870 899 q 988 505 988 667 m 837 505 q 798 713 837 628 q 689 841 758 798 q 534 885 620 885 q 378 841 446 885 q 270 713 309 798 q 230 505 230 628 q 270 297 230 382 q 378 169 309 213 q 534 125 446 125 q 689 169 620 125 q 798 297 758 213 q 837 505 837 382 m 660 1258 l 728 1239 q 696 1153 728 1190 q 614 1116 664 1116 q 553 1128 577 1116 q 509 1153 530 1140 q 459 1165 489 1165 q 423 1146 437 1165 q 408 1104 408 1128 l 340 1123 q 372 1210 340 1171 q 453 1248 403 1248 q 508 1236 483 1248 q 555 1213 532 1225 q 608 1200 579 1200 q 644 1217 628 1200 q 660 1258 660 1233 m 769 1433 l 769 1326 l 299 1326 l 299 1433 l 769 1433 z "},"Ȯ":{"ha":1067,"x_min":78,"x_max":988,"o":"m 988 505 q 929 227 988 343 q 767 49 870 111 q 534 -14 664 -14 q 300 49 402 -14 q 138 227 197 111 q 78 505 78 344 q 138 783 78 667 q 300 962 197 899 q 534 1024 402 1024 q 767 962 664 1024 q 929 783 870 899 q 988 505 988 667 m 837 505 q 798 713 837 628 q 689 841 758 798 q 534 885 620 885 q 378 841 446 885 q 270 713 309 798 q 230 505 230 628 q 270 297 230 382 q 378 169 309 213 q 534 125 446 125 q 689 169 620 125 q 798 297 758 213 q 837 505 837 382 m 534 1127 q 468 1153 495 1127 q 440 1215 440 1179 q 468 1277 440 1251 q 534 1303 495 1303 q 600 1277 572 1303 q 627 1215 627 1251 q 600 1153 627 1179 q 534 1127 572 1127 z "},"Ȱ":{"ha":1067,"x_min":78,"x_max":988,"o":"m 988 505 q 929 227 988 343 q 767 49 870 111 q 534 -14 664 -14 q 300 49 402 -14 q 138 227 197 111 q 78 505 78 344 q 138 783 78 667 q 300 962 197 899 q 534 1024 402 1024 q 767 962 664 1024 q 929 783 870 899 q 988 505 988 667 m 837 505 q 798 713 837 628 q 689 841 758 798 q 534 885 620 885 q 378 841 446 885 q 270 713 309 798 q 230 505 230 628 q 270 297 230 382 q 378 169 309 213 q 534 125 446 125 q 689 169 620 125 q 798 297 758 213 q 837 505 837 382 m 534 1129 q 470 1154 496 1129 q 443 1215 443 1179 q 470 1275 443 1250 q 534 1301 496 1301 q 597 1275 571 1301 q 624 1215 624 1250 q 597 1154 624 1179 q 534 1129 571 1129 m 767 1515 l 767 1412 l 299 1412 l 299 1515 l 767 1515 z "},"Ṍ":{"ha":1067,"x_min":78,"x_max":988,"o":"m 988 505 q 929 227 988 343 q 767 49 870 111 q 534 -14 664 -14 q 300 49 402 -14 q 138 227 197 111 q 78 505 78 344 q 138 783 78 667 q 300 962 197 899 q 534 1024 402 1024 q 767 962 664 1024 q 929 783 870 899 q 988 505 988 667 m 837 505 q 798 713 837 628 q 689 841 758 798 q 534 885 620 885 q 378 841 446 885 q 270 713 309 798 q 230 505 230 628 q 270 297 230 382 q 378 169 309 213 q 534 125 446 125 q 689 169 620 125 q 798 297 758 213 q 837 505 837 382 m 460 1322 l 601 1480 l 755 1480 l 579 1322 l 460 1322 m 387 1099 l 289 1102 q 333 1229 289 1181 q 440 1277 376 1277 q 492 1267 470 1277 q 534 1244 515 1257 q 574 1222 554 1232 q 618 1212 594 1212 q 664 1233 646 1212 q 682 1286 682 1254 l 778 1279 q 734 1153 777 1199 q 626 1107 690 1107 q 569 1117 592 1107 q 529 1140 546 1127 q 493 1163 511 1153 q 448 1172 474 1172 q 404 1151 422 1172 q 387 1099 387 1130 z "},"Ṏ":{"ha":1067,"x_min":78,"x_max":988,"o":"m 988 505 q 929 227 988 343 q 767 49 870 111 q 534 -14 664 -14 q 300 49 402 -14 q 138 227 197 111 q 78 505 78 344 q 138 783 78 667 q 300 962 197 899 q 534 1024 402 1024 q 767 962 664 1024 q 929 783 870 899 q 988 505 988 667 m 837 505 q 798 713 837 628 q 689 841 758 798 q 534 885 620 885 q 378 841 446 885 q 270 713 309 798 q 230 505 230 628 q 270 297 230 382 q 378 169 309 213 q 534 125 446 125 q 689 169 620 125 q 798 297 758 213 q 837 505 837 382 m 659 1254 l 728 1235 q 696 1148 728 1185 q 614 1112 663 1112 q 553 1124 577 1112 q 509 1149 530 1136 q 459 1161 488 1161 q 423 1143 437 1161 q 408 1100 408 1126 l 340 1119 q 371 1206 340 1167 q 453 1244 402 1244 q 508 1233 483 1244 q 555 1209 532 1221 q 608 1197 579 1197 q 644 1213 628 1197 q 659 1254 659 1230 m 293 1372 q 315 1426 293 1404 q 376 1449 336 1449 q 438 1427 416 1449 q 461 1372 461 1405 q 438 1319 461 1340 q 376 1297 416 1297 q 315 1319 337 1297 q 293 1372 293 1340 m 606 1371 q 628 1426 606 1404 q 690 1449 650 1449 q 751 1426 728 1449 q 773 1372 773 1404 q 751 1318 773 1340 q 690 1295 730 1295 q 628 1317 650 1295 q 606 1371 606 1339 z "},"Ṑ":{"ha":1067,"x_min":78,"x_max":988,"o":"m 988 505 q 929 227 988 343 q 767 49 870 111 q 534 -14 664 -14 q 300 49 402 -14 q 138 227 197 111 q 78 505 78 344 q 138 783 78 667 q 300 962 197 899 q 534 1024 402 1024 q 767 962 664 1024 q 929 783 870 899 q 988 505 988 667 m 837 505 q 798 713 837 628 q 689 841 758 798 q 534 885 620 885 q 378 841 446 885 q 270 713 309 798 q 230 505 230 628 q 270 297 230 382 q 378 169 309 213 q 534 125 446 125 q 689 169 620 125 q 798 297 758 213 q 837 505 837 382 m 477 1309 l 309 1467 l 465 1467 l 610 1309 l 477 1309 m 767 1236 l 767 1133 l 300 1133 l 300 1236 l 767 1236 z "},"Ṓ":{"ha":1067,"x_min":78,"x_max":988,"o":"m 988 505 q 929 227 988 343 q 767 49 870 111 q 534 -14 664 -14 q 300 49 402 -14 q 138 227 197 111 q 78 505 78 344 q 138 783 78 667 q 300 962 197 899 q 534 1024 402 1024 q 767 962 664 1024 q 929 783 870 899 q 988 505 988 667 m 837 505 q 798 713 837 628 q 689 841 758 798 q 534 885 620 885 q 378 841 446 885 q 270 713 309 798 q 230 505 230 628 q 270 297 230 382 q 378 169 309 213 q 534 125 446 125 q 689 169 620 125 q 798 297 758 213 q 837 505 837 382 m 458 1309 l 603 1467 l 760 1467 l 591 1309 l 458 1309 m 767 1236 l 767 1133 l 300 1133 l 300 1236 l 767 1236 z "},"Ọ":{"ha":1067,"x_min":78,"x_max":988,"o":"m 988 505 q 929 227 988 343 q 767 49 870 111 q 534 -14 664 -14 q 300 49 402 -14 q 138 227 197 111 q 78 505 78 344 q 138 783 78 667 q 300 962 197 899 q 534 1024 402 1024 q 767 962 664 1024 q 929 783 870 899 q 988 505 988 667 m 837 505 q 798 713 837 628 q 689 841 758 798 q 534 885 620 885 q 378 841 446 885 q 270 713 309 798 q 230 505 230 628 q 270 297 230 382 q 378 169 309 213 q 534 125 446 125 q 689 169 620 125 q 798 297 758 213 q 837 505 837 382 m 533 -261 q 468 -236 495 -261 q 440 -174 440 -210 q 468 -111 440 -137 q 533 -86 495 -86 q 599 -111 572 -86 q 626 -174 626 -137 q 599 -236 626 -210 q 533 -261 572 -261 z "},"Ỏ":{"ha":1067,"x_min":78,"x_max":988,"o":"m 988 505 q 929 227 988 343 q 767 49 870 111 q 534 -14 664 -14 q 300 49 402 -14 q 138 227 197 111 q 78 505 78 344 q 138 783 78 667 q 300 962 197 899 q 534 1024 402 1024 q 767 962 664 1024 q 929 783 870 899 q 988 505 988 667 m 837 505 q 798 713 837 628 q 689 841 758 798 q 534 885 620 885 q 378 841 446 885 q 270 713 309 798 q 230 505 230 628 q 270 297 230 382 q 378 169 309 213 q 534 125 446 125 q 689 169 620 125 q 798 297 758 213 q 837 505 837 382 m 594 1115 l 477 1115 l 473 1215 q 547 1229 526 1218 q 569 1263 569 1241 q 539 1301 569 1290 q 465 1312 509 1312 l 470 1394 q 639 1358 581 1394 q 697 1263 697 1323 q 665 1191 697 1214 q 594 1162 633 1168 l 594 1115 z "},"Ố":{"ha":1067,"x_min":78,"x_max":990,"o":"m 988 505 q 929 227 988 343 q 767 49 870 111 q 534 -14 664 -14 q 300 49 402 -14 q 138 227 197 111 q 78 505 78 344 q 138 783 78 667 q 300 962 197 899 q 534 1024 402 1024 q 767 962 664 1024 q 929 783 870 899 q 988 505 988 667 m 837 505 q 798 713 837 628 q 689 841 758 798 q 534 885 620 885 q 378 841 446 885 q 270 713 309 798 q 230 505 230 628 q 270 297 230 382 q 378 169 309 213 q 534 125 446 125 q 689 169 620 125 q 798 297 758 213 q 837 505 837 382 m 278 1101 l 478 1272 l 588 1272 l 789 1101 l 644 1101 l 535 1199 l 424 1101 l 278 1101 m 736 1210 l 839 1390 l 990 1390 l 844 1210 l 736 1210 z "},"Ồ":{"ha":1067,"x_min":77,"x_max":988,"o":"m 988 505 q 929 227 988 343 q 767 49 870 111 q 534 -14 664 -14 q 300 49 402 -14 q 138 227 197 111 q 78 505 78 344 q 138 783 78 667 q 300 962 197 899 q 534 1024 402 1024 q 767 962 664 1024 q 929 783 870 899 q 988 505 988 667 m 837 505 q 798 713 837 628 q 689 841 758 798 q 534 885 620 885 q 378 841 446 885 q 270 713 309 798 q 230 505 230 628 q 270 297 230 382 q 378 169 309 213 q 534 125 446 125 q 689 169 620 125 q 798 297 758 213 q 837 505 837 382 m 587 1270 l 789 1098 l 643 1098 l 534 1196 l 424 1098 l 279 1098 l 477 1270 l 587 1270 m 228 1389 l 330 1208 l 224 1208 l 77 1389 l 228 1389 z "},"Ổ":{"ha":1067,"x_min":78,"x_max":988,"o":"m 988 505 q 929 227 988 343 q 767 49 870 111 q 534 -14 664 -14 q 300 49 402 -14 q 138 227 197 111 q 78 505 78 344 q 138 783 78 667 q 300 962 197 899 q 534 1024 402 1024 q 767 962 664 1024 q 929 783 870 899 q 988 505 988 667 m 837 505 q 798 713 837 628 q 689 841 758 798 q 534 885 620 885 q 378 841 446 885 q 270 713 309 798 q 230 505 230 628 q 270 297 230 382 q 378 169 309 213 q 534 125 446 125 q 689 169 620 125 q 798 297 758 213 q 837 505 837 382 m 598 1261 l 788 1090 l 658 1090 l 532 1201 l 407 1090 l 277 1090 l 467 1261 l 598 1261 m 816 1182 l 724 1182 l 721 1267 q 782 1278 763 1270 q 802 1307 802 1286 q 776 1339 802 1330 q 712 1348 751 1348 l 716 1418 q 857 1389 809 1418 q 905 1308 905 1359 q 877 1246 905 1266 q 816 1221 849 1226 l 816 1182 z "},"Ỗ":{"ha":1067,"x_min":78,"x_max":988,"o":"m 988 505 q 929 227 988 343 q 767 49 870 111 q 534 -14 664 -14 q 300 49 402 -14 q 138 227 197 111 q 78 505 78 344 q 138 783 78 667 q 300 962 197 899 q 534 1024 402 1024 q 767 962 664 1024 q 929 783 870 899 q 988 505 988 667 m 837 505 q 798 713 837 628 q 689 841 758 798 q 534 885 620 885 q 378 841 446 885 q 270 713 309 798 q 230 505 230 628 q 270 297 230 382 q 378 169 309 213 q 534 125 446 125 q 689 169 620 125 q 798 297 758 213 q 837 505 837 382 m 582 1241 l 787 1080 l 657 1080 l 532 1177 l 408 1080 l 277 1080 l 482 1241 l 582 1241 m 650 1413 l 711 1393 q 681 1320 711 1353 q 605 1287 651 1287 q 562 1294 580 1287 q 529 1310 544 1301 q 500 1326 515 1319 q 465 1333 484 1333 q 430 1318 445 1333 q 414 1284 414 1303 l 355 1300 q 384 1374 355 1340 q 460 1408 414 1408 q 497 1401 480 1408 q 531 1386 515 1394 q 564 1370 547 1377 q 600 1363 581 1363 q 634 1379 619 1363 q 650 1413 650 1394 z "},"Ộ":{"ha":1067,"x_min":78,"x_max":988,"o":"m 988 505 q 929 227 988 343 q 767 49 870 111 q 534 -14 664 -14 q 300 49 402 -14 q 138 227 197 111 q 78 505 78 344 q 138 783 78 667 q 300 962 197 899 q 534 1024 402 1024 q 767 962 664 1024 q 929 783 870 899 q 988 505 988 667 m 837 505 q 798 713 837 628 q 689 841 758 798 q 534 885 620 885 q 378 841 446 885 q 270 713 309 798 q 230 505 230 628 q 270 297 230 382 q 378 169 309 213 q 534 125 446 125 q 689 169 620 125 q 798 297 758 213 q 837 505 837 382 m 635 1101 l 534 1233 l 432 1101 l 299 1101 l 299 1108 l 472 1317 l 595 1317 l 768 1108 l 768 1101 l 635 1101 m 533 -261 q 468 -236 495 -261 q 440 -174 440 -210 q 468 -111 440 -137 q 533 -86 495 -86 q 599 -111 572 -86 q 626 -174 626 -137 q 599 -236 626 -210 q 533 -261 572 -261 z "},"Ớ":{"ha":1093,"x_min":78,"x_max":1074,"o":"m 952 1075 l 1074 1075 q 1009 864 1074 939 q 811 789 944 789 l 811 889 q 919 938 886 889 q 952 1075 952 987 m 988 505 q 929 227 988 343 q 767 49 870 111 q 534 -14 664 -14 q 300 49 402 -14 q 138 227 197 111 q 78 505 78 344 q 138 783 78 667 q 300 962 197 899 q 534 1024 402 1024 q 767 962 664 1024 q 929 783 870 899 q 988 505 988 667 m 837 505 q 798 713 837 628 q 689 841 758 798 q 534 885 620 885 q 378 841 446 885 q 270 713 309 798 q 230 505 230 628 q 270 297 230 382 q 378 169 309 213 q 534 125 446 125 q 689 169 620 125 q 798 297 758 213 q 837 505 837 382 m 472 1111 l 588 1339 l 743 1339 l 590 1111 l 472 1111 z "},"Ờ":{"ha":1093,"x_min":78,"x_max":1074,"o":"m 952 1075 l 1074 1075 q 1009 864 1074 939 q 811 789 944 789 l 811 889 q 919 938 886 889 q 952 1075 952 987 m 988 505 q 929 227 988 343 q 767 49 870 111 q 534 -14 664 -14 q 300 49 402 -14 q 138 227 197 111 q 78 505 78 344 q 138 783 78 667 q 300 962 197 899 q 534 1024 402 1024 q 767 962 664 1024 q 929 783 870 899 q 988 505 988 667 m 837 505 q 798 713 837 628 q 689 841 758 798 q 534 885 620 885 q 378 841 446 885 q 270 713 309 798 q 230 505 230 628 q 270 297 230 382 q 378 169 309 213 q 534 125 446 125 q 689 169 620 125 q 798 297 758 213 q 837 505 837 382 m 476 1111 l 324 1339 l 479 1339 l 594 1111 l 476 1111 z "},"Ở":{"ha":1093,"x_min":78,"x_max":1074,"o":"m 952 1075 l 1074 1075 q 1009 864 1074 939 q 811 789 944 789 l 811 889 q 919 938 886 889 q 952 1075 952 987 m 988 505 q 929 227 988 343 q 767 49 870 111 q 534 -14 664 -14 q 300 49 402 -14 q 138 227 197 111 q 78 505 78 344 q 138 783 78 667 q 300 962 197 899 q 534 1024 402 1024 q 767 962 664 1024 q 929 783 870 899 q 988 505 988 667 m 837 505 q 798 713 837 628 q 689 841 758 798 q 534 885 620 885 q 378 841 446 885 q 270 713 309 798 q 230 505 230 628 q 270 297 230 382 q 378 169 309 213 q 534 125 446 125 q 689 169 620 125 q 798 297 758 213 q 837 505 837 382 m 594 1115 l 477 1115 l 473 1215 q 547 1229 526 1218 q 569 1263 569 1241 q 539 1301 569 1290 q 465 1312 509 1312 l 470 1394 q 639 1358 581 1394 q 697 1263 697 1323 q 665 1191 697 1214 q 594 1162 633 1168 l 594 1115 z "},"Ỡ":{"ha":1093,"x_min":78,"x_max":1074,"o":"m 952 1075 l 1074 1075 q 1009 864 1074 939 q 811 789 944 789 l 811 889 q 919 938 886 889 q 952 1075 952 987 m 988 505 q 929 227 988 343 q 767 49 870 111 q 534 -14 664 -14 q 300 49 402 -14 q 138 227 197 111 q 78 505 78 344 q 138 783 78 667 q 300 962 197 899 q 534 1024 402 1024 q 767 962 664 1024 q 929 783 870 899 q 988 505 988 667 m 837 505 q 798 713 837 628 q 689 841 758 798 q 534 885 620 885 q 378 841 446 885 q 270 713 309 798 q 230 505 230 628 q 270 297 230 382 q 378 169 309 213 q 534 125 446 125 q 689 169 620 125 q 798 297 758 213 q 837 505 837 382 m 385 1102 l 286 1105 q 330 1235 286 1187 q 439 1284 374 1284 q 492 1274 470 1284 q 535 1251 515 1264 q 575 1228 555 1238 q 619 1218 595 1218 q 666 1239 648 1218 q 684 1293 684 1261 l 781 1287 q 737 1157 781 1204 q 628 1110 692 1110 q 570 1120 593 1110 q 529 1143 547 1130 q 493 1166 511 1156 q 448 1177 474 1177 q 403 1155 420 1177 q 385 1102 385 1134 z "},"Ợ":{"ha":1093,"x_min":78,"x_max":1074,"o":"m 952 1075 l 1074 1075 q 1009 864 1074 939 q 811 789 944 789 l 811 889 q 919 938 886 889 q 952 1075 952 987 m 988 505 q 929 227 988 343 q 767 49 870 111 q 534 -14 664 -14 q 300 49 402 -14 q 138 227 197 111 q 78 505 78 344 q 138 783 78 667 q 300 962 197 899 q 534 1024 402 1024 q 767 962 664 1024 q 929 783 870 899 q 988 505 988 667 m 837 505 q 798 713 837 628 q 689 841 758 798 q 534 885 620 885 q 378 841 446 885 q 270 713 309 798 q 230 505 230 628 q 270 297 230 382 q 378 169 309 213 q 534 125 446 125 q 689 169 620 125 q 798 297 758 213 q 837 505 837 382 m 533 -261 q 468 -236 495 -261 q 440 -174 440 -210 q 468 -111 440 -137 q 533 -86 495 -86 q 599 -111 572 -86 q 626 -174 626 -137 q 599 -236 626 -210 q 533 -261 572 -261 z "},"Ǿ":{"ha":1067,"x_min":78,"x_max":988,"o":"m 218 -44 l 136 12 l 845 1052 l 928 996 l 218 -44 m 988 505 q 929 227 988 343 q 767 49 870 111 q 534 -14 664 -14 q 300 49 402 -14 q 138 227 197 111 q 78 505 78 344 q 138 783 78 667 q 300 962 197 899 q 534 1024 402 1024 q 767 962 664 1024 q 929 783 870 899 q 988 505 988 667 m 837 505 q 798 713 837 628 q 689 841 758 798 q 534 885 620 885 q 378 841 446 885 q 270 713 309 798 q 230 505 230 628 q 270 297 230 382 q 378 169 309 213 q 534 125 446 125 q 689 169 620 125 q 798 297 758 213 q 837 505 837 382 m 472 1111 l 588 1339 l 743 1339 l 590 1111 l 472 1111 z "},"Ο":{"ha":1067,"x_min":78,"x_max":988,"o":"m 988 505 q 929 227 988 343 q 767 49 870 111 q 534 -14 664 -14 q 300 49 402 -14 q 138 227 197 111 q 78 505 78 344 q 138 783 78 667 q 300 962 197 899 q 534 1024 402 1024 q 767 962 664 1024 q 929 783 870 899 q 988 505 988 667 m 837 505 q 798 713 837 628 q 689 841 758 798 q 534 885 620 885 q 378 841 446 885 q 270 713 309 798 q 230 505 230 628 q 270 297 230 382 q 378 169 309 213 q 534 125 446 125 q 689 169 620 125 q 798 297 758 213 q 837 505 837 382 z "},"Ό":{"ha":1096,"x_min":-10,"x_max":1029,"o":"m 1029 505 q 970 227 1029 343 q 808 49 910 111 q 574 -14 705 -14 q 340 49 443 -14 q 178 227 237 111 q 119 505 119 344 q 178 783 119 667 q 340 962 237 899 q 574 1024 443 1024 q 808 962 705 1024 q 970 783 910 899 q 1029 505 1029 667 m 878 505 q 838 713 878 628 q 730 841 799 798 q 574 885 661 885 q 418 841 487 885 q 310 713 350 798 q 270 505 270 628 q 310 297 270 382 q 418 169 350 213 q 574 125 487 125 q 730 169 661 125 q 838 297 799 213 q 878 505 878 382 m -10 844 l 30 1076 l 176 1076 l 85 844 l -10 844 z "},"Ὀ":{"ha":1133,"x_min":-10,"x_max":1066,"o":"m 1066 505 q 1007 227 1066 343 q 845 49 948 111 q 612 -14 742 -14 q 378 49 480 -14 q 216 227 275 111 q 156 505 156 344 q 216 783 156 667 q 378 962 275 899 q 612 1024 480 1024 q 845 962 742 1024 q 1007 783 948 899 q 1066 505 1066 667 m 915 505 q 876 713 915 628 q 767 841 836 798 q 612 885 698 885 q 456 841 524 885 q 347 713 387 798 q 308 505 308 628 q 347 297 308 382 q 456 169 387 213 q 612 125 524 125 q 767 169 698 125 q 876 297 836 213 q 915 505 915 382 m 166 1010 l 166 952 q 152 876 166 911 q 110 813 137 841 q 45 765 83 785 l -10 814 q 22 853 10 832 q 40 900 34 874 q 45 956 45 925 l 45 1010 l 166 1010 z "},"Ὁ":{"ha":1181,"x_min":51,"x_max":1114,"o":"m 1114 505 q 1054 227 1114 343 q 892 49 995 111 q 659 -14 790 -14 q 425 49 528 -14 q 263 227 322 111 q 204 505 204 344 q 263 783 204 667 q 425 962 322 899 q 659 1024 528 1024 q 892 962 790 1024 q 1054 783 995 899 q 1114 505 1114 667 m 963 505 q 923 713 963 628 q 815 841 883 798 q 659 885 746 885 q 503 841 572 885 q 395 713 435 798 q 355 505 355 628 q 395 297 355 382 q 503 169 435 213 q 659 125 572 125 q 815 169 746 125 q 923 297 883 213 q 963 505 963 382 m 51 952 l 51 1010 l 173 1010 l 173 956 q 179 901 173 926 q 196 854 184 875 q 227 814 208 833 l 173 765 q 84 843 117 795 q 51 952 52 891 z "},"Ὂ":{"ha":1398,"x_min":-9,"x_max":1331,"o":"m 1331 505 q 1272 227 1331 343 q 1109 49 1212 111 q 876 -14 1007 -14 q 642 49 745 -14 q 480 227 539 111 q 421 505 421 344 q 480 783 421 667 q 642 962 539 899 q 876 1024 745 1024 q 1109 962 1007 1024 q 1272 783 1212 899 q 1331 505 1331 667 m 1180 505 q 1140 713 1180 628 q 1032 841 1100 798 q 876 885 963 885 q 720 841 789 885 q 612 713 652 798 q 572 505 572 628 q 612 297 572 382 q 720 169 652 213 q 876 125 789 125 q 1032 169 963 125 q 1140 297 1100 213 q 1180 505 1180 382 m 424 794 l 424 784 l 360 784 l 202 999 l 202 1013 l 346 1013 l 424 794 m 171 1013 l 171 958 q 156 883 171 918 q 113 819 141 848 q 45 768 85 790 l -9 810 q 33 877 18 841 q 47 962 47 913 l 47 1013 l 171 1013 z "},"Ὃ":{"ha":1334,"x_min":-25,"x_max":1267,"o":"m 1267 505 q 1208 227 1267 343 q 1046 49 1149 111 q 812 -14 943 -14 q 578 49 681 -14 q 416 227 475 111 q 357 505 357 344 q 416 783 357 667 q 578 962 475 899 q 812 1024 681 1024 q 1046 962 943 1024 q 1208 783 1149 899 q 1267 505 1267 667 m 1116 505 q 1076 713 1116 628 q 968 841 1037 798 q 812 885 899 885 q 656 841 725 885 q 548 713 588 798 q 509 505 509 628 q 548 297 509 382 q 656 169 588 213 q 812 125 725 125 q 968 169 899 125 q 1076 297 1037 213 q 1116 505 1116 382 m 366 793 l 366 781 l 302 781 l 145 996 l 145 1010 l 291 1010 l 366 793 m -25 952 l -25 1010 l 97 1010 l 97 956 q 109 877 97 911 q 151 814 121 842 l 97 765 q 7 843 40 795 q -25 952 -26 891 z "},"Ὄ":{"ha":1284,"x_min":-8,"x_max":1217,"o":"m 1217 505 q 1158 227 1217 343 q 996 49 1099 111 q 763 -14 893 -14 q 528 49 631 -14 q 366 227 426 111 q 307 505 307 344 q 366 783 307 667 q 528 962 426 899 q 763 1024 631 1024 q 996 962 893 1024 q 1158 783 1099 899 q 1217 505 1217 667 m 1066 505 q 1027 713 1066 628 q 918 841 987 798 q 763 885 849 885 q 607 841 675 885 q 498 713 538 798 q 459 505 459 628 q 498 297 459 382 q 607 169 538 213 q 763 125 675 125 q 918 169 849 125 q 1027 297 987 213 q 1066 505 1066 382 m 182 781 l 182 793 l 260 1010 l 404 1010 l 404 996 l 246 781 l 182 781 m 169 1010 l 169 952 q 154 876 169 911 q 112 813 140 841 q 47 765 85 785 l -8 814 q 34 877 21 842 q 47 956 47 911 l 47 1010 l 169 1010 z "},"Ὅ":{"ha":1300,"x_min":-8,"x_max":1233,"o":"m 1233 505 q 1174 227 1233 343 q 1012 49 1115 111 q 778 -14 909 -14 q 544 49 647 -14 q 382 227 441 111 q 323 505 323 344 q 382 783 323 667 q 544 962 441 899 q 778 1024 647 1024 q 1012 962 909 1024 q 1174 783 1115 899 q 1233 505 1233 667 m 1082 505 q 1042 713 1082 628 q 934 841 1003 798 q 778 885 865 885 q 622 841 691 885 q 514 713 554 798 q 474 505 474 628 q 514 297 474 382 q 622 169 554 213 q 778 125 691 125 q 934 169 865 125 q 1042 297 1003 213 q 1082 505 1082 382 m 198 781 l 198 793 l 273 1010 l 419 1010 l 419 996 l 261 781 l 198 781 m 113 765 q 25 842 58 795 q -8 952 -8 890 l -8 1010 l 113 1010 l 113 956 q 127 876 113 910 q 168 814 140 841 l 113 765 z "},"Ὸ":{"ha":1187,"x_min":-9,"x_max":1120,"o":"m 1120 505 q 1060 227 1120 343 q 898 49 1001 111 q 665 -14 796 -14 q 431 49 534 -14 q 269 227 328 111 q 210 505 210 344 q 269 783 210 667 q 431 962 328 899 q 665 1024 534 1024 q 898 962 796 1024 q 1060 783 1001 899 q 1120 505 1120 667 m 969 505 q 929 713 969 628 q 820 841 889 798 q 665 885 752 885 q 509 841 578 885 q 401 713 440 798 q 361 505 361 628 q 401 297 361 382 q 509 169 440 213 q 665 125 578 125 q 820 169 752 125 q 929 297 889 213 q 969 505 969 382 m 148 779 l -9 996 l -9 1010 l 135 1010 l 212 794 l 212 779 l 148 779 z "},"ϴ":{"ha":1067,"x_min":78,"x_max":988,"o":"m 873 564 l 873 446 l 194 446 l 194 564 l 873 564 m 988 505 q 929 227 988 343 q 767 49 870 111 q 534 -14 664 -14 q 300 49 402 -14 q 138 227 197 111 q 78 505 78 344 q 138 783 78 667 q 300 962 197 899 q 534 1024 402 1024 q 767 962 664 1024 q 929 783 870 899 q 988 505 988 667 m 837 505 q 798 713 837 628 q 689 841 758 798 q 534 885 620 885 q 378 841 446 885 q 270 713 309 798 q 230 505 230 628 q 270 297 230 382 q 378 169 309 213 q 534 125 446 125 q 689 169 620 125 q 798 297 758 213 q 837 505 837 382 z "},"Ό":{"ha":1091,"x_min":53,"x_max":1024,"o":"m 1024 505 q 965 227 1024 343 q 803 49 906 111 q 570 -14 700 -14 q 336 49 438 -14 q 174 227 233 111 q 114 505 114 344 q 174 783 114 667 q 336 962 233 899 q 570 1024 438 1024 q 803 962 700 1024 q 965 783 906 899 q 1024 505 1024 667 m 873 505 q 834 713 873 628 q 725 841 794 798 q 570 885 656 885 q 414 841 482 885 q 306 713 345 798 q 266 505 266 628 q 306 297 266 382 q 414 169 345 213 q 570 125 482 125 q 725 169 656 125 q 834 297 794 213 q 873 505 873 382 m 53 852 l 53 867 l 129 1083 l 288 1083 l 288 1069 l 130 852 l 53 852 z "},"О":{"ha":1067,"x_min":78,"x_max":988,"o":"m 988 505 q 929 227 988 343 q 767 49 870 111 q 534 -14 664 -14 q 300 49 402 -14 q 138 227 197 111 q 78 505 78 344 q 138 783 78 667 q 300 962 197 899 q 534 1024 402 1024 q 767 962 664 1024 q 929 783 870 899 q 988 505 988 667 m 837 505 q 798 713 837 628 q 689 841 758 798 q 534 885 620 885 q 378 841 446 885 q 270 713 309 798 q 230 505 230 628 q 270 297 230 382 q 378 169 309 213 q 534 125 446 125 q 689 169 620 125 q 798 297 758 213 q 837 505 837 382 z "},"Ӧ":{"ha":1067,"x_min":78,"x_max":988,"o":"m 988 505 q 929 227 988 343 q 767 49 870 111 q 534 -14 664 -14 q 300 49 402 -14 q 138 227 197 111 q 78 505 78 344 q 138 783 78 667 q 300 962 197 899 q 534 1024 402 1024 q 767 962 664 1024 q 929 783 870 899 q 988 505 988 667 m 837 505 q 798 713 837 628 q 689 841 758 798 q 534 885 620 885 q 378 841 446 885 q 270 713 309 798 q 230 505 230 628 q 270 297 230 382 q 378 169 309 213 q 534 125 446 125 q 689 169 620 125 q 798 297 758 213 q 837 505 837 382 m 389 1129 q 327 1155 354 1129 q 301 1215 301 1181 q 327 1276 301 1252 q 389 1301 354 1301 q 451 1276 426 1301 q 475 1215 475 1252 q 451 1155 475 1181 q 389 1129 426 1129 m 679 1129 q 618 1155 644 1129 q 591 1215 591 1181 q 618 1276 591 1252 q 679 1301 644 1301 q 741 1276 716 1301 q 765 1215 765 1252 q 741 1155 765 1181 q 679 1129 716 1129 z "},"Ɵ":{"ha":1067,"x_min":78,"x_max":988,"o":"m 988 505 q 929 227 988 343 q 767 49 870 111 q 534 -14 664 -14 q 300 49 402 -14 q 138 227 197 111 q 78 505 78 344 q 138 783 78 667 q 300 962 197 899 q 534 1024 402 1024 q 767 962 664 1024 q 929 783 870 899 q 988 505 988 667 m 837 505 q 798 713 837 628 q 689 841 758 798 q 534 885 620 885 q 378 841 446 885 q 270 713 309 798 q 230 505 230 628 q 270 297 230 382 q 378 169 309 213 q 534 125 446 125 q 689 169 620 125 q 798 297 758 213 q 837 505 837 382 m 873 564 l 873 446 l 194 446 l 194 564 l 873 564 z "},"Ө":{"ha":1067,"x_min":78,"x_max":988,"o":"m 988 505 q 929 227 988 343 q 767 49 870 111 q 534 -14 664 -14 q 300 49 402 -14 q 138 227 197 111 q 78 505 78 344 q 138 783 78 667 q 300 962 197 899 q 534 1024 402 1024 q 767 962 664 1024 q 929 783 870 899 q 988 505 988 667 m 837 505 q 798 713 837 628 q 689 841 758 798 q 534 885 620 885 q 378 841 446 885 q 270 713 309 798 q 230 505 230 628 q 270 297 230 382 q 378 169 309 213 q 534 125 446 125 q 689 169 620 125 q 798 297 758 213 q 837 505 837 382 m 873 564 l 873 446 l 194 446 l 194 564 l 873 564 z "},"Ӫ":{"ha":1067,"x_min":78,"x_max":988,"o":"m 988 505 q 929 227 988 343 q 767 49 870 111 q 534 -14 664 -14 q 300 49 402 -14 q 138 227 197 111 q 78 505 78 344 q 138 783 78 667 q 300 962 197 899 q 534 1024 402 1024 q 767 962 664 1024 q 929 783 870 899 q 988 505 988 667 m 837 505 q 798 713 837 628 q 689 841 758 798 q 534 885 620 885 q 378 841 446 885 q 270 713 309 798 q 230 505 230 628 q 270 297 230 382 q 378 169 309 213 q 534 125 446 125 q 689 169 620 125 q 798 297 758 213 q 837 505 837 382 m 873 564 l 873 446 l 194 446 l 194 564 l 873 564 m 389 1129 q 327 1155 354 1129 q 301 1215 301 1181 q 327 1276 301 1252 q 389 1301 354 1301 q 451 1276 426 1301 q 475 1215 475 1252 q 451 1155 475 1181 q 389 1129 426 1129 m 679 1129 q 618 1155 644 1129 q 591 1215 591 1181 q 618 1276 591 1252 q 679 1301 644 1301 q 741 1276 716 1301 q 765 1215 765 1252 q 741 1155 765 1181 q 679 1129 716 1129 z "},"Œ":{"ha":1354,"x_min":78,"x_max":1267,"o":"m 529 0 q 294 62 396 0 q 136 236 193 123 q 78 505 78 350 q 136 774 78 661 q 294 949 193 888 q 529 1010 396 1010 l 1261 1010 l 1261 879 l 780 879 l 780 571 l 1228 571 l 1228 440 l 780 440 l 780 131 l 1267 131 l 1267 0 l 529 0 m 627 131 l 627 879 l 529 879 q 372 835 440 879 q 267 706 305 790 q 229 505 229 622 q 267 304 229 388 q 372 176 305 220 q 529 131 440 131 l 627 131 z "},"P":{"ha":888,"x_min":111,"x_max":821,"o":"m 111 0 l 111 1010 l 471 1010 q 666 967 589 1010 q 782 850 744 924 q 821 683 821 776 q 782 516 821 590 q 666 398 743 441 q 471 355 588 355 l 223 355 l 223 484 l 457 484 q 578 510 531 484 q 646 581 624 536 q 667 683 667 626 q 646 785 667 740 q 577 854 624 829 q 455 879 531 879 l 263 879 l 263 0 l 111 0 z "},"Ṕ":{"ha":888,"x_min":111,"x_max":821,"o":"m 111 0 l 111 1010 l 471 1010 q 666 967 589 1010 q 782 850 744 924 q 821 683 821 776 q 782 516 821 590 q 666 398 743 441 q 471 355 588 355 l 223 355 l 223 484 l 457 484 q 578 510 531 484 q 646 581 624 536 q 667 683 667 626 q 646 785 667 740 q 577 854 624 829 q 455 879 531 879 l 263 879 l 263 0 l 111 0 m 380 1111 l 496 1339 l 651 1339 l 498 1111 l 380 1111 z "},"Ṗ":{"ha":888,"x_min":111,"x_max":821,"o":"m 111 0 l 111 1010 l 471 1010 q 666 967 589 1010 q 782 850 744 924 q 821 683 821 776 q 782 516 821 590 q 666 398 743 441 q 471 355 588 355 l 223 355 l 223 484 l 457 484 q 578 510 531 484 q 646 581 624 536 q 667 683 667 626 q 646 785 667 740 q 577 854 624 829 q 455 879 531 879 l 263 879 l 263 0 l 111 0 m 441 1127 q 376 1153 403 1127 q 348 1215 348 1179 q 376 1277 348 1251 q 441 1303 403 1303 q 507 1277 480 1303 q 535 1215 535 1251 q 507 1153 535 1179 q 441 1127 480 1127 z "},"Ҏ":{"ha":894,"x_min":112,"x_max":822,"o":"m 545 654 l 765 316 l 675 257 l 455 597 l 545 654 m 112 0 l 112 1010 l 472 1010 q 668 967 590 1010 q 784 850 745 924 q 822 683 822 776 q 784 516 822 590 q 668 398 745 441 q 472 355 590 355 l 224 355 l 224 484 l 458 484 q 579 510 533 484 q 647 581 625 536 q 669 683 669 626 q 647 785 669 740 q 579 854 625 829 q 457 879 532 879 l 265 879 l 265 0 l 112 0 z "},"Ƥ":{"ha":1124,"x_min":61,"x_max":1056,"o":"m 201 711 l 61 711 l 61 789 q 88 902 61 852 q 167 981 115 952 q 291 1010 218 1010 l 707 1010 q 902 967 825 1010 q 1018 850 980 924 q 1056 683 1056 776 q 1018 516 1056 590 q 902 398 980 441 q 707 355 824 355 l 500 355 l 500 0 l 347 0 l 347 879 l 293 879 q 233 861 253 879 q 207 815 214 843 q 201 756 201 787 l 201 711 m 500 484 l 692 484 q 814 510 767 484 q 881 581 860 536 q 903 683 903 626 q 881 785 903 740 q 813 854 860 829 q 691 879 766 879 l 500 879 l 500 484 z "},"Ρ":{"ha":888,"x_min":111,"x_max":821,"o":"m 111 0 l 111 1010 l 471 1010 q 666 967 589 1010 q 782 850 744 924 q 821 683 821 776 q 782 516 821 590 q 666 398 743 441 q 471 355 588 355 l 223 355 l 223 484 l 457 484 q 578 510 531 484 q 646 581 624 536 q 667 683 667 626 q 646 785 667 740 q 577 854 624 829 q 455 879 531 879 l 263 879 l 263 0 l 111 0 z "},"Ῥ":{"ha":1074,"x_min":67,"x_max":1003,"o":"m 293 0 l 293 1010 l 653 1010 q 848 967 771 1010 q 964 850 926 924 q 1003 683 1003 776 q 964 516 1003 590 q 848 398 925 441 q 653 355 770 355 l 405 355 l 405 484 l 639 484 q 760 510 713 484 q 828 581 806 536 q 849 683 849 626 q 828 785 849 740 q 759 854 806 829 q 637 879 713 879 l 445 879 l 445 0 l 293 0 m 67 952 l 67 1010 l 188 1010 l 188 956 q 194 901 188 926 q 211 854 199 875 q 243 814 223 833 l 188 765 q 100 843 132 795 q 67 952 67 891 z "},"Q":{"ha":1067,"x_min":78,"x_max":988,"o":"m 482 327 l 632 327 l 738 190 l 788 129 l 956 -91 l 800 -91 l 688 56 l 649 109 l 482 327 m 988 505 q 929 227 988 343 q 767 49 870 111 q 534 -14 664 -14 q 300 49 402 -14 q 138 227 197 111 q 78 505 78 344 q 138 783 78 667 q 300 962 197 899 q 534 1024 402 1024 q 767 962 664 1024 q 929 783 870 899 q 988 505 988 667 m 837 505 q 798 713 837 628 q 689 841 758 798 q 534 885 620 885 q 378 841 446 885 q 270 713 309 798 q 230 505 230 628 q 270 297 230 382 q 378 169 309 213 q 534 125 446 125 q 689 169 620 125 q 798 297 758 213 q 837 505 837 382 z "},"R":{"ha":896,"x_min":111,"x_max":859,"o":"m 111 0 l 111 1010 l 471 1010 q 666 970 588 1010 q 782 858 744 929 q 821 693 821 787 q 782 530 821 601 q 666 421 743 460 q 471 382 588 382 l 198 382 l 198 513 l 457 513 q 577 535 531 513 q 646 596 624 556 q 667 693 667 637 q 645 793 667 751 q 577 857 623 835 q 455 879 530 879 l 263 879 l 263 0 l 111 0 m 610 456 l 859 0 l 686 0 l 441 456 l 610 456 z "},"Ŕ":{"ha":896,"x_min":111,"x_max":859,"o":"m 111 0 l 111 1010 l 471 1010 q 666 970 588 1010 q 782 858 744 929 q 821 693 821 787 q 782 530 821 601 q 666 421 743 460 q 471 382 588 382 l 198 382 l 198 513 l 457 513 q 577 535 531 513 q 646 596 624 556 q 667 693 667 637 q 645 793 667 751 q 577 857 623 835 q 455 879 530 879 l 263 879 l 263 0 l 111 0 m 610 456 l 859 0 l 686 0 l 441 456 l 610 456 m 381 1111 l 497 1339 l 652 1339 l 499 1111 l 381 1111 z "},"Ŗ":{"ha":896,"x_min":111,"x_max":859,"o":"m 111 0 l 111 1010 l 471 1010 q 666 970 588 1010 q 782 858 744 929 q 821 693 821 787 q 782 530 821 601 q 666 421 743 460 q 471 382 588 382 l 198 382 l 198 513 l 457 513 q 577 535 531 513 q 646 596 624 556 q 667 693 667 637 q 645 793 667 751 q 577 857 623 835 q 455 879 530 879 l 263 879 l 263 0 l 111 0 m 610 456 l 859 0 l 686 0 l 441 456 l 610 456 m 330 -331 l 387 -80 l 532 -80 l 439 -331 l 330 -331 z "},"Ř":{"ha":896,"x_min":111,"x_max":859,"o":"m 111 0 l 111 1010 l 471 1010 q 666 970 588 1010 q 782 858 744 929 q 821 693 821 787 q 782 530 821 601 q 666 421 743 460 q 471 382 588 382 l 198 382 l 198 513 l 457 513 q 577 535 531 513 q 646 596 624 556 q 667 693 667 637 q 645 793 667 751 q 577 857 623 835 q 455 879 530 879 l 263 879 l 263 0 l 111 0 m 610 456 l 859 0 l 686 0 l 441 456 l 610 456 m 340 1317 l 442 1185 l 543 1317 l 677 1317 l 677 1310 l 503 1101 l 380 1101 l 207 1310 l 207 1317 l 340 1317 z "},"Ȑ":{"ha":896,"x_min":111,"x_max":859,"o":"m 111 0 l 111 1010 l 471 1010 q 666 970 588 1010 q 782 858 744 929 q 821 693 821 787 q 782 530 821 601 q 666 421 743 460 q 471 382 588 382 l 198 382 l 198 513 l 457 513 q 577 535 531 513 q 646 596 624 556 q 667 693 667 637 q 645 793 667 751 q 577 857 623 835 q 455 879 530 879 l 263 879 l 263 0 l 111 0 m 610 456 l 859 0 l 686 0 l 441 456 l 610 456 m 277 1111 l 117 1339 l 280 1339 l 395 1111 l 277 1111 m 498 1111 l 382 1339 l 545 1339 l 614 1111 l 498 1111 z "},"Ȓ":{"ha":896,"x_min":111,"x_max":859,"o":"m 111 0 l 111 1010 l 471 1010 q 666 970 588 1010 q 782 858 744 929 q 821 693 821 787 q 782 530 821 601 q 666 421 743 460 q 471 382 588 382 l 198 382 l 198 513 l 457 513 q 577 535 531 513 q 646 596 624 556 q 667 693 667 637 q 645 793 667 751 q 577 857 623 835 q 455 879 530 879 l 263 879 l 263 0 l 111 0 m 610 456 l 859 0 l 686 0 l 441 456 l 610 456 m 223 1135 q 282 1272 223 1218 q 441 1325 341 1325 q 600 1272 542 1325 q 658 1135 658 1218 l 538 1135 q 515 1201 538 1173 q 441 1230 493 1230 q 366 1201 388 1230 q 345 1135 344 1172 l 223 1135 z "},"Ṙ":{"ha":896,"x_min":111,"x_max":859,"o":"m 111 0 l 111 1010 l 471 1010 q 666 970 588 1010 q 782 858 744 929 q 821 693 821 787 q 782 530 821 601 q 666 421 743 460 q 471 382 588 382 l 198 382 l 198 513 l 457 513 q 577 535 531 513 q 646 596 624 556 q 667 693 667 637 q 645 793 667 751 q 577 857 623 835 q 455 879 530 879 l 263 879 l 263 0 l 111 0 m 610 456 l 859 0 l 686 0 l 441 456 l 610 456 m 442 1127 q 376 1153 403 1127 q 349 1215 349 1179 q 376 1277 349 1251 q 442 1303 403 1303 q 508 1277 480 1303 q 535 1215 535 1251 q 508 1153 535 1179 q 442 1127 480 1127 z "},"Ṛ":{"ha":896,"x_min":111,"x_max":859,"o":"m 111 0 l 111 1010 l 471 1010 q 666 970 588 1010 q 782 858 744 929 q 821 693 821 787 q 782 530 821 601 q 666 421 743 460 q 471 382 588 382 l 198 382 l 198 513 l 457 513 q 577 535 531 513 q 646 596 624 556 q 667 693 667 637 q 645 793 667 751 q 577 857 623 835 q 455 879 530 879 l 263 879 l 263 0 l 111 0 m 610 456 l 859 0 l 686 0 l 441 456 l 610 456 m 459 -261 q 394 -236 421 -261 q 366 -174 366 -210 q 394 -111 366 -137 q 459 -86 421 -86 q 525 -111 498 -86 q 552 -174 552 -137 q 525 -236 552 -210 q 459 -261 498 -261 z "},"Ṝ":{"ha":896,"x_min":111,"x_max":859,"o":"m 111 0 l 111 1010 l 471 1010 q 666 970 588 1010 q 782 858 744 929 q 821 693 821 787 q 782 530 821 601 q 666 421 743 460 q 471 382 588 382 l 198 382 l 198 513 l 457 513 q 577 535 531 513 q 646 596 624 556 q 667 693 667 637 q 645 793 667 751 q 577 857 623 835 q 455 879 530 879 l 263 879 l 263 0 l 111 0 m 610 456 l 859 0 l 686 0 l 441 456 l 610 456 m 459 -261 q 394 -236 421 -261 q 366 -174 366 -210 q 394 -111 366 -137 q 459 -86 421 -86 q 525 -111 498 -86 q 552 -174 552 -137 q 525 -236 552 -210 q 459 -261 498 -261 m 676 1263 l 676 1159 l 208 1159 l 208 1263 l 676 1263 z "},"Ṟ":{"ha":896,"x_min":111,"x_max":859,"o":"m 111 0 l 111 1010 l 471 1010 q 666 970 588 1010 q 782 858 744 929 q 821 693 821 787 q 782 530 821 601 q 666 421 743 460 q 471 382 588 382 l 198 382 l 198 513 l 457 513 q 577 535 531 513 q 646 596 624 556 q 667 693 667 637 q 645 793 667 751 q 577 857 623 835 q 455 879 530 879 l 263 879 l 263 0 l 111 0 m 610 456 l 859 0 l 686 0 l 441 456 l 610 456 m 693 -125 l 693 -229 l 225 -229 l 225 -125 l 693 -125 z "},"℟":{"ha":899,"x_min":112,"x_max":860,"o":"m 663 1145 l 302 -242 l 224 -228 l 572 1096 l 356 1156 l 382 1229 l 663 1145 m 112 0 l 112 1010 l 472 1010 q 667 970 589 1010 q 783 858 745 929 q 822 693 822 787 q 783 530 822 601 q 667 421 744 460 q 472 382 589 382 l 199 382 l 199 513 l 458 513 q 579 535 532 513 q 647 596 625 556 q 668 693 668 637 q 647 793 668 751 q 578 857 625 835 q 456 879 531 879 l 265 879 l 265 0 l 112 0 m 611 456 l 860 0 l 687 0 l 442 456 l 611 456 z "},"℞":{"ha":987,"x_min":111,"x_max":932,"o":"m 111 1010 l 466 1010 q 664 969 587 1010 q 778 857 741 928 q 815 699 815 787 q 787 560 815 619 q 707 460 759 500 q 584 400 655 420 l 544 387 l 220 387 l 219 520 l 455 520 q 578 542 532 520 q 644 604 623 565 q 664 697 664 644 q 647 785 664 743 q 586 853 629 827 q 466 879 543 879 l 263 879 l 263 0 l 111 0 l 111 1010 m 775 0 l 451 448 l 603 448 l 932 0 l 775 0 m 599 0 l 455 0 l 783 448 l 923 448 l 599 0 z "},"Ɍ":{"ha":912,"x_min":14,"x_max":874,"o":"m 214 387 l 14 387 l 14 514 l 214 514 l 214 387 m 126 0 l 126 1010 l 486 1010 q 681 970 604 1010 q 798 858 759 929 q 836 693 836 787 q 797 530 836 601 q 681 421 759 460 q 486 382 603 382 l 213 382 l 213 513 l 472 513 q 593 535 546 513 q 661 596 639 556 q 683 693 683 637 q 661 793 683 751 q 592 857 639 835 q 471 879 545 879 l 279 879 l 279 0 l 126 0 m 625 456 l 874 0 l 701 0 l 456 456 l 625 456 z "},"S":{"ha":894,"x_min":71,"x_max":823,"o":"m 662 745 q 597 854 654 815 q 453 892 540 892 q 345 873 391 892 q 275 819 300 853 q 250 743 250 786 q 267 681 250 707 q 312 637 284 654 q 372 608 340 619 q 434 589 404 596 l 532 563 q 631 531 581 551 q 726 478 682 511 q 796 396 769 445 q 823 279 823 347 q 779 127 823 193 q 651 22 734 60 q 449 -17 567 -17 q 253 19 335 -17 q 123 122 170 55 q 71 279 76 188 l 224 279 q 260 188 228 224 q 340 134 291 152 q 448 117 389 117 q 563 137 512 117 q 643 195 614 158 q 672 281 672 231 q 646 354 672 326 q 578 401 621 383 q 480 435 535 420 l 361 467 q 169 564 240 500 q 98 734 98 628 q 145 886 98 821 q 274 988 193 951 q 456 1024 355 1024 q 637 988 559 1024 q 762 889 716 952 q 809 745 807 826 l 662 745 z "},"Ś":{"ha":894,"x_min":71,"x_max":823,"o":"m 662 745 q 597 854 654 815 q 453 892 540 892 q 345 873 391 892 q 275 819 300 853 q 250 743 250 786 q 267 681 250 707 q 312 637 284 654 q 372 608 340 619 q 434 589 404 596 l 532 563 q 631 531 581 551 q 726 478 682 511 q 796 396 769 445 q 823 279 823 347 q 779 127 823 193 q 651 22 734 60 q 449 -17 567 -17 q 253 19 335 -17 q 123 122 170 55 q 71 279 76 188 l 224 279 q 260 188 228 224 q 340 134 291 152 q 448 117 389 117 q 563 137 512 117 q 643 195 614 158 q 672 281 672 231 q 646 354 672 326 q 578 401 621 383 q 480 435 535 420 l 361 467 q 169 564 240 500 q 98 734 98 628 q 145 886 98 821 q 274 988 193 951 q 456 1024 355 1024 q 637 988 559 1024 q 762 889 716 952 q 809 745 807 826 l 662 745 m 385 1111 l 501 1339 l 656 1339 l 503 1111 l 385 1111 z "},"Ŝ":{"ha":894,"x_min":71,"x_max":823,"o":"m 662 745 q 597 854 654 815 q 453 892 540 892 q 345 873 391 892 q 275 819 300 853 q 250 743 250 786 q 267 681 250 707 q 312 637 284 654 q 372 608 340 619 q 434 589 404 596 l 532 563 q 631 531 581 551 q 726 478 682 511 q 796 396 769 445 q 823 279 823 347 q 779 127 823 193 q 651 22 734 60 q 449 -17 567 -17 q 253 19 335 -17 q 123 122 170 55 q 71 279 76 188 l 224 279 q 260 188 228 224 q 340 134 291 152 q 448 117 389 117 q 563 137 512 117 q 643 195 614 158 q 672 281 672 231 q 646 354 672 326 q 578 401 621 383 q 480 435 535 420 l 361 467 q 169 564 240 500 q 98 734 98 628 q 145 886 98 821 q 274 988 193 951 q 456 1024 355 1024 q 637 988 559 1024 q 762 889 716 952 q 809 745 807 826 l 662 745 m 547 1101 l 446 1233 l 345 1101 l 212 1101 l 212 1108 l 385 1317 l 508 1317 l 681 1108 l 681 1101 l 547 1101 z "},"Ş":{"ha":894,"x_min":71,"x_max":823,"o":"m 662 745 q 597 854 654 815 q 453 892 540 892 q 345 873 391 892 q 275 819 300 853 q 250 743 250 786 q 267 681 250 707 q 312 637 284 654 q 372 608 340 619 q 434 589 404 596 l 532 563 q 631 531 581 551 q 726 478 682 511 q 796 396 769 445 q 823 279 823 347 q 779 127 823 193 q 651 22 734 60 q 449 -17 567 -17 q 253 19 335 -17 q 123 122 170 55 q 71 279 76 188 l 224 279 q 260 188 228 224 q 340 134 291 152 q 448 117 389 117 q 563 137 512 117 q 643 195 614 158 q 672 281 672 231 q 646 354 672 326 q 578 401 621 383 q 480 435 535 420 l 361 467 q 169 564 240 500 q 98 734 98 628 q 145 886 98 821 q 274 988 193 951 q 456 1024 355 1024 q 637 988 559 1024 q 762 889 716 952 q 809 745 807 826 l 662 745 m 398 4 l 494 4 l 486 -36 q 561 -71 529 -43 q 593 -154 593 -99 q 536 -262 594 -221 q 368 -304 478 -304 l 365 -221 q 449 -207 417 -221 q 481 -159 480 -192 q 456 -112 481 -126 q 377 -94 432 -99 l 398 4 z "},"Š":{"ha":894,"x_min":71,"x_max":823,"o":"m 662 745 q 597 854 654 815 q 453 892 540 892 q 345 873 391 892 q 275 819 300 853 q 250 743 250 786 q 267 681 250 707 q 312 637 284 654 q 372 608 340 619 q 434 589 404 596 l 532 563 q 631 531 581 551 q 726 478 682 511 q 796 396 769 445 q 823 279 823 347 q 779 127 823 193 q 651 22 734 60 q 449 -17 567 -17 q 253 19 335 -17 q 123 122 170 55 q 71 279 76 188 l 224 279 q 260 188 228 224 q 340 134 291 152 q 448 117 389 117 q 563 137 512 117 q 643 195 614 158 q 672 281 672 231 q 646 354 672 326 q 578 401 621 383 q 480 435 535 420 l 361 467 q 169 564 240 500 q 98 734 98 628 q 145 886 98 821 q 274 988 193 951 q 456 1024 355 1024 q 637 988 559 1024 q 762 889 716 952 q 809 745 807 826 l 662 745 m 345 1317 l 446 1185 l 547 1317 l 681 1317 l 681 1310 l 508 1101 l 385 1101 l 212 1310 l 212 1317 l 345 1317 z "},"Ș":{"ha":894,"x_min":71,"x_max":823,"o":"m 662 745 q 597 854 654 815 q 453 892 540 892 q 345 873 391 892 q 275 819 300 853 q 250 743 250 786 q 267 681 250 707 q 312 637 284 654 q 372 608 340 619 q 434 589 404 596 l 532 563 q 631 531 581 551 q 726 478 682 511 q 796 396 769 445 q 823 279 823 347 q 779 127 823 193 q 651 22 734 60 q 449 -17 567 -17 q 253 19 335 -17 q 123 122 170 55 q 71 279 76 188 l 224 279 q 260 188 228 224 q 340 134 291 152 q 448 117 389 117 q 563 137 512 117 q 643 195 614 158 q 672 281 672 231 q 646 354 672 326 q 578 401 621 383 q 480 435 535 420 l 361 467 q 169 564 240 500 q 98 734 98 628 q 145 886 98 821 q 274 988 193 951 q 456 1024 355 1024 q 637 988 559 1024 q 762 889 716 952 q 809 745 807 826 l 662 745 m 320 -346 l 377 -94 l 521 -94 l 429 -346 l 320 -346 z "},"Ṡ":{"ha":894,"x_min":71,"x_max":823,"o":"m 662 745 q 597 854 654 815 q 453 892 540 892 q 345 873 391 892 q 275 819 300 853 q 250 743 250 786 q 267 681 250 707 q 312 637 284 654 q 372 608 340 619 q 434 589 404 596 l 532 563 q 631 531 581 551 q 726 478 682 511 q 796 396 769 445 q 823 279 823 347 q 779 127 823 193 q 651 22 734 60 q 449 -17 567 -17 q 253 19 335 -17 q 123 122 170 55 q 71 279 76 188 l 224 279 q 260 188 228 224 q 340 134 291 152 q 448 117 389 117 q 563 137 512 117 q 643 195 614 158 q 672 281 672 231 q 646 354 672 326 q 578 401 621 383 q 480 435 535 420 l 361 467 q 169 564 240 500 q 98 734 98 628 q 145 886 98 821 q 274 988 193 951 q 456 1024 355 1024 q 637 988 559 1024 q 762 889 716 952 q 809 745 807 826 l 662 745 m 446 1127 q 381 1153 408 1127 q 353 1215 353 1179 q 381 1277 353 1251 q 446 1303 408 1303 q 512 1277 485 1303 q 540 1215 540 1251 q 512 1153 540 1179 q 446 1127 485 1127 z "},"Ṣ":{"ha":894,"x_min":71,"x_max":823,"o":"m 662 745 q 597 854 654 815 q 453 892 540 892 q 345 873 391 892 q 275 819 300 853 q 250 743 250 786 q 267 681 250 707 q 312 637 284 654 q 372 608 340 619 q 434 589 404 596 l 532 563 q 631 531 581 551 q 726 478 682 511 q 796 396 769 445 q 823 279 823 347 q 779 127 823 193 q 651 22 734 60 q 449 -17 567 -17 q 253 19 335 -17 q 123 122 170 55 q 71 279 76 188 l 224 279 q 260 188 228 224 q 340 134 291 152 q 448 117 389 117 q 563 137 512 117 q 643 195 614 158 q 672 281 672 231 q 646 354 672 326 q 578 401 621 383 q 480 435 535 420 l 361 467 q 169 564 240 500 q 98 734 98 628 q 145 886 98 821 q 274 988 193 951 q 456 1024 355 1024 q 637 988 559 1024 q 762 889 716 952 q 809 745 807 826 l 662 745 m 448 -276 q 383 -250 410 -276 q 355 -188 355 -224 q 383 -126 355 -151 q 448 -100 410 -100 q 514 -126 487 -100 q 542 -188 542 -151 q 514 -250 542 -224 q 448 -276 487 -276 z "},"Ṥ":{"ha":894,"x_min":71,"x_max":823,"o":"m 662 745 q 597 854 654 815 q 453 892 540 892 q 345 873 391 892 q 275 819 300 853 q 250 743 250 786 q 267 681 250 707 q 312 637 284 654 q 372 608 340 619 q 434 589 404 596 l 532 563 q 631 531 581 551 q 726 478 682 511 q 796 396 769 445 q 823 279 823 347 q 779 127 823 193 q 651 22 734 60 q 449 -17 567 -17 q 253 19 335 -17 q 123 122 170 55 q 71 279 76 188 l 224 279 q 260 188 228 224 q 340 134 291 152 q 448 117 389 117 q 563 137 512 117 q 643 195 614 158 q 672 281 672 231 q 646 354 672 326 q 578 401 621 383 q 480 435 535 420 l 361 467 q 169 564 240 500 q 98 734 98 628 q 145 886 98 821 q 274 988 193 951 q 456 1024 355 1024 q 637 988 559 1024 q 762 889 716 952 q 809 745 807 826 l 662 745 m 405 1117 l 502 1295 l 650 1295 l 510 1117 l 405 1117 m 259 1312 q 282 1367 259 1344 q 342 1389 304 1389 q 405 1366 384 1389 q 427 1312 427 1343 q 405 1258 427 1280 q 342 1235 384 1235 q 281 1259 302 1235 q 259 1312 259 1282 z "},"Ṧ":{"ha":894,"x_min":71,"x_max":823,"o":"m 662 745 q 597 854 654 815 q 453 892 540 892 q 345 873 391 892 q 275 819 300 853 q 250 743 250 786 q 267 681 250 707 q 312 637 284 654 q 372 608 340 619 q 434 589 404 596 l 532 563 q 631 531 581 551 q 726 478 682 511 q 796 396 769 445 q 823 279 823 347 q 779 127 823 193 q 651 22 734 60 q 449 -17 567 -17 q 253 19 335 -17 q 123 122 170 55 q 71 279 76 188 l 224 279 q 260 188 228 224 q 340 134 291 152 q 448 117 389 117 q 563 137 512 117 q 643 195 614 158 q 672 281 672 231 q 646 354 672 326 q 578 401 621 383 q 480 435 535 420 l 361 467 q 169 564 240 500 q 98 734 98 628 q 145 886 98 821 q 274 988 193 951 q 456 1024 355 1024 q 637 988 559 1024 q 762 889 716 952 q 809 745 807 826 l 662 745 m 363 1381 q 385 1436 363 1415 q 446 1458 407 1458 q 509 1436 487 1458 q 531 1381 531 1413 q 509 1328 531 1349 q 446 1307 486 1307 q 385 1328 407 1307 q 363 1381 363 1349 m 351 1277 l 447 1195 l 543 1277 l 680 1277 l 680 1265 l 497 1114 l 396 1114 l 215 1264 l 215 1277 l 351 1277 z "},"Ṩ":{"ha":894,"x_min":71,"x_max":823,"o":"m 662 745 q 597 854 654 815 q 453 892 540 892 q 345 873 391 892 q 275 819 300 853 q 250 743 250 786 q 267 681 250 707 q 312 637 284 654 q 372 608 340 619 q 434 589 404 596 l 532 563 q 631 531 581 551 q 726 478 682 511 q 796 396 769 445 q 823 279 823 347 q 779 127 823 193 q 651 22 734 60 q 449 -17 567 -17 q 253 19 335 -17 q 123 122 170 55 q 71 279 76 188 l 224 279 q 260 188 228 224 q 340 134 291 152 q 448 117 389 117 q 563 137 512 117 q 643 195 614 158 q 672 281 672 231 q 646 354 672 326 q 578 401 621 383 q 480 435 535 420 l 361 467 q 169 564 240 500 q 98 734 98 628 q 145 886 98 821 q 274 988 193 951 q 456 1024 355 1024 q 637 988 559 1024 q 762 889 716 952 q 809 745 807 826 l 662 745 m 448 -276 q 383 -250 410 -276 q 355 -188 355 -224 q 383 -126 355 -151 q 448 -100 410 -100 q 514 -126 487 -100 q 542 -188 542 -151 q 514 -250 542 -224 q 448 -276 487 -276 m 446 1127 q 381 1153 408 1127 q 353 1215 353 1179 q 381 1277 353 1251 q 446 1303 408 1303 q 512 1277 485 1303 q 540 1215 540 1251 q 512 1153 540 1179 q 446 1127 485 1127 z "},"Ѕ":{"ha":894,"x_min":71,"x_max":823,"o":"m 662 745 q 597 854 654 815 q 453 892 540 892 q 345 873 391 892 q 275 819 300 853 q 250 743 250 786 q 267 681 250 707 q 312 637 284 654 q 372 608 340 619 q 434 589 404 596 l 532 563 q 631 531 581 551 q 726 478 682 511 q 796 396 769 445 q 823 279 823 347 q 779 127 823 193 q 651 22 734 60 q 449 -17 567 -17 q 253 19 335 -17 q 123 122 170 55 q 71 279 76 188 l 224 279 q 260 188 228 224 q 340 134 291 152 q 448 117 389 117 q 563 137 512 117 q 643 195 614 158 q 672 281 672 231 q 646 354 672 326 q 578 401 621 383 q 480 435 535 420 l 361 467 q 169 564 240 500 q 98 734 98 628 q 145 886 98 821 q 274 988 193 951 q 456 1024 355 1024 q 637 988 559 1024 q 762 889 716 952 q 809 745 807 826 l 662 745 z "},"Ƨ":{"ha":894,"x_min":71,"x_max":823,"o":"m 232 745 l 85 745 q 132 889 87 826 q 256 988 178 952 q 437 1024 335 1024 q 620 988 539 1024 q 748 886 701 951 q 796 734 796 821 q 725 564 796 628 q 533 467 654 500 l 413 435 q 316 401 359 420 q 247 354 273 383 q 222 281 222 326 q 251 195 222 231 q 331 137 280 158 q 446 117 381 117 q 554 134 505 117 q 634 188 603 152 q 670 279 665 224 l 823 279 q 771 122 818 188 q 641 19 724 55 q 445 -17 558 -17 q 243 22 327 -17 q 115 127 159 60 q 71 279 71 193 q 98 396 71 347 q 168 478 125 445 q 263 531 212 511 q 362 563 314 551 l 460 589 q 542 617 500 599 q 614 664 585 634 q 644 743 644 694 q 619 819 644 786 q 548 873 594 853 q 441 892 503 892 q 338 875 383 892 q 265 824 293 857 q 232 745 237 792 z "},"ẞ":{"ha":963,"x_min":111,"x_max":892,"o":"m 111 0 l 111 669 q 149 863 111 784 q 259 983 186 942 q 436 1024 331 1024 q 577 1002 510 1024 q 703 945 644 981 q 814 865 763 909 l 589 579 q 752 534 684 572 q 856 434 820 497 q 892 287 892 370 q 848 124 892 191 q 725 22 803 57 q 546 -14 647 -14 q 446 -5 497 -14 q 346 22 394 4 l 392 147 q 459 125 421 135 q 543 114 497 114 q 682 161 633 114 q 732 289 732 208 q 716 371 732 338 q 674 423 699 403 q 620 452 649 442 q 565 463 591 461 q 523 466 539 466 l 426 466 l 426 580 l 622 833 q 545 876 589 856 q 441 895 501 895 q 334 864 372 895 q 279 781 295 832 q 263 669 263 729 l 263 0 l 111 0 z "},"T":{"ha":904,"x_min":61,"x_max":843,"o":"m 61 879 l 61 1010 l 843 1010 l 843 879 l 528 879 l 528 0 l 376 0 l 376 879 l 61 879 z "},"Ţ":{"ha":904,"x_min":61,"x_max":843,"o":"m 61 879 l 61 1010 l 843 1010 l 843 879 l 528 879 l 528 0 l 376 0 l 376 879 l 61 879 m 413 4 l 509 4 l 502 -36 q 577 -71 545 -43 q 609 -154 609 -99 q 551 -262 609 -221 q 384 -304 493 -304 l 381 -221 q 464 -207 432 -221 q 496 -159 496 -192 q 472 -112 497 -126 q 393 -94 447 -99 l 413 4 z "},"Ť":{"ha":904,"x_min":61,"x_max":843,"o":"m 61 879 l 61 1010 l 843 1010 l 843 879 l 528 879 l 528 0 l 376 0 l 376 879 l 61 879 m 351 1317 l 452 1185 l 553 1317 l 687 1317 l 687 1310 l 513 1101 l 391 1101 l 218 1310 l 218 1317 l 351 1317 z "},"Ț":{"ha":904,"x_min":61,"x_max":843,"o":"m 61 879 l 61 1010 l 843 1010 l 843 879 l 528 879 l 528 0 l 376 0 l 376 879 l 61 879 m 323 -331 l 380 -80 l 524 -80 l 432 -331 l 323 -331 z "},"Ṫ":{"ha":904,"x_min":61,"x_max":843,"o":"m 61 879 l 61 1010 l 843 1010 l 843 879 l 528 879 l 528 0 l 376 0 l 376 879 l 61 879 m 452 1127 q 386 1153 414 1127 q 359 1215 359 1179 q 386 1277 359 1251 q 452 1303 414 1303 q 518 1277 491 1303 q 545 1215 545 1251 q 518 1153 545 1179 q 452 1127 491 1127 z "},"Ṭ":{"ha":904,"x_min":61,"x_max":843,"o":"m 61 879 l 61 1010 l 843 1010 l 843 879 l 528 879 l 528 0 l 376 0 l 376 879 l 61 879 m 452 -261 q 386 -236 414 -261 q 359 -174 359 -210 q 386 -111 359 -137 q 452 -86 414 -86 q 518 -111 490 -86 q 545 -174 545 -137 q 518 -236 545 -210 q 452 -261 490 -261 z "},"Ṯ":{"ha":904,"x_min":61,"x_max":843,"o":"m 61 879 l 61 1010 l 843 1010 l 843 879 l 528 879 l 528 0 l 376 0 l 376 879 l 61 879 m 686 -125 l 686 -229 l 218 -229 l 218 -125 l 686 -125 z "},"Ṱ":{"ha":904,"x_min":61,"x_max":843,"o":"m 61 879 l 61 1010 l 843 1010 l 843 879 l 528 879 l 528 0 l 376 0 l 376 879 l 61 879 m 553 -280 l 452 -147 l 351 -280 l 217 -280 l 217 -272 l 391 -63 l 513 -63 l 687 -272 l 687 -280 l 553 -280 z "},"Ƭ":{"ha":957,"x_min":61,"x_max":896,"o":"m 896 1010 l 896 879 l 581 879 l 581 0 l 429 0 l 429 879 l 288 879 q 231 862 251 879 q 202 819 210 845 q 194 763 194 792 l 194 719 l 61 719 l 61 790 q 121 950 61 890 q 288 1010 181 1010 l 896 1010 z "},"Ʈ":{"ha":904,"x_min":61,"x_max":843,"o":"m 528 0 l 528 -70 q 563 -140 528 -124 q 643 -157 598 -157 l 682 -157 l 682 -284 l 605 -284 q 519 -272 560 -284 q 446 -234 478 -260 q 395 -168 414 -209 q 376 -71 376 -128 l 376 0 l 528 0 m 61 879 l 61 1010 l 843 1010 l 843 879 l 528 879 l 528 0 l 376 0 l 376 879 l 61 879 z "},"Ⱦ":{"ha":904,"x_min":61,"x_max":843,"o":"m 189 -128 l 625 1138 l 743 1138 l 307 -128 l 189 -128 m 61 879 l 61 1010 l 843 1010 l 843 879 l 528 879 l 528 0 l 376 0 l 376 879 l 61 879 z "},"Τ":{"ha":904,"x_min":61,"x_max":843,"o":"m 61 879 l 61 1010 l 843 1010 l 843 879 l 528 879 l 528 0 l 376 0 l 376 879 l 61 879 z "},"U":{"ha":1024,"x_min":111,"x_max":913,"o":"m 761 1010 l 913 1010 l 913 346 q 864 158 913 240 q 724 30 814 76 q 512 -17 633 -17 q 301 30 391 -17 q 161 158 211 76 q 111 346 111 240 l 111 1010 l 263 1010 l 263 358 q 294 236 263 290 q 380 153 324 183 q 512 122 436 122 q 645 153 589 122 q 731 236 701 183 q 761 358 761 290 l 761 1010 z "},"Ư":{"ha":1204,"x_min":111,"x_max":1143,"o":"m 1021 1063 l 1143 1063 q 1114 897 1143 965 q 1022 794 1086 830 q 849 759 957 759 l 849 861 q 958 884 920 861 q 1008 953 995 908 q 1021 1063 1021 998 m 761 1010 l 913 1010 l 913 346 q 864 158 913 240 q 724 30 814 76 q 512 -17 633 -17 q 301 30 391 -17 q 161 158 211 76 q 111 346 111 240 l 111 1010 l 263 1010 l 263 358 q 294 236 263 290 q 380 153 324 183 q 512 122 436 122 q 645 153 589 122 q 731 236 701 183 q 761 358 761 290 l 761 1010 z "},"Ù":{"ha":1024,"x_min":111,"x_max":913,"o":"m 761 1010 l 913 1010 l 913 346 q 864 158 913 240 q 724 30 814 76 q 512 -17 633 -17 q 301 30 391 -17 q 161 158 211 76 q 111 346 111 240 l 111 1010 l 263 1010 l 263 358 q 294 236 263 290 q 380 153 324 183 q 512 122 436 122 q 645 153 589 122 q 731 236 701 183 q 761 358 761 290 l 761 1010 m 455 1111 l 302 1339 l 458 1339 l 573 1111 l 455 1111 z "},"Ú":{"ha":1024,"x_min":111,"x_max":913,"o":"m 761 1010 l 913 1010 l 913 346 q 864 158 913 240 q 724 30 814 76 q 512 -17 633 -17 q 301 30 391 -17 q 161 158 211 76 q 111 346 111 240 l 111 1010 l 263 1010 l 263 358 q 294 236 263 290 q 380 153 324 183 q 512 122 436 122 q 645 153 589 122 q 731 236 701 183 q 761 358 761 290 l 761 1010 m 451 1111 l 567 1339 l 722 1339 l 569 1111 l 451 1111 z "},"Û":{"ha":1024,"x_min":111,"x_max":913,"o":"m 761 1010 l 913 1010 l 913 346 q 864 158 913 240 q 724 30 814 76 q 512 -17 633 -17 q 301 30 391 -17 q 161 158 211 76 q 111 346 111 240 l 111 1010 l 263 1010 l 263 358 q 294 236 263 290 q 380 153 324 183 q 512 122 436 122 q 645 153 589 122 q 731 236 701 183 q 761 358 761 290 l 761 1010 m 614 1101 l 512 1233 l 411 1101 l 278 1101 l 278 1108 l 451 1317 l 574 1317 l 747 1108 l 747 1101 l 614 1101 z "},"Ü":{"ha":1024,"x_min":111,"x_max":913,"o":"m 761 1010 l 913 1010 l 913 346 q 864 158 913 240 q 724 30 814 76 q 512 -17 633 -17 q 301 30 391 -17 q 161 158 211 76 q 111 346 111 240 l 111 1010 l 263 1010 l 263 358 q 294 236 263 290 q 380 153 324 183 q 512 122 436 122 q 645 153 589 122 q 731 236 701 183 q 761 358 761 290 l 761 1010 m 367 1129 q 306 1155 332 1129 q 280 1215 280 1181 q 306 1276 280 1252 q 367 1301 332 1301 q 429 1276 404 1301 q 454 1215 454 1252 q 429 1155 454 1181 q 367 1129 404 1129 m 657 1129 q 596 1155 622 1129 q 570 1215 570 1181 q 596 1276 570 1252 q 657 1301 622 1301 q 719 1276 694 1301 q 744 1215 744 1252 q 719 1155 744 1181 q 657 1129 694 1129 z "},"Ũ":{"ha":1024,"x_min":111,"x_max":913,"o":"m 761 1010 l 913 1010 l 913 346 q 864 158 913 240 q 724 30 814 76 q 512 -17 633 -17 q 301 30 391 -17 q 161 158 211 76 q 111 346 111 240 l 111 1010 l 263 1010 l 263 358 q 294 236 263 290 q 380 153 324 183 q 512 122 436 122 q 645 153 589 122 q 731 236 701 183 q 761 358 761 290 l 761 1010 m 363 1102 l 264 1105 q 309 1235 264 1187 q 418 1284 353 1284 q 471 1274 448 1284 q 513 1251 493 1264 q 553 1228 533 1238 q 598 1218 573 1218 q 644 1239 626 1218 q 662 1293 662 1261 l 760 1287 q 715 1157 760 1204 q 606 1110 671 1110 q 548 1120 571 1110 q 508 1143 525 1130 q 471 1166 490 1156 q 426 1177 452 1177 q 381 1155 399 1177 q 363 1102 363 1134 z "},"Ū":{"ha":1024,"x_min":111,"x_max":913,"o":"m 761 1010 l 913 1010 l 913 346 q 864 158 913 240 q 724 30 814 76 q 512 -17 633 -17 q 301 30 391 -17 q 161 158 211 76 q 111 346 111 240 l 111 1010 l 263 1010 l 263 358 q 294 236 263 290 q 380 153 324 183 q 512 122 436 122 q 645 153 589 122 q 731 236 701 183 q 761 358 761 290 l 761 1010 m 746 1263 l 746 1159 l 278 1159 l 278 1263 l 746 1263 z "},"Ŭ":{"ha":1024,"x_min":111,"x_max":913,"o":"m 761 1010 l 913 1010 l 913 346 q 864 158 913 240 q 724 30 814 76 q 512 -17 633 -17 q 301 30 391 -17 q 161 158 211 76 q 111 346 111 240 l 111 1010 l 263 1010 l 263 358 q 294 236 263 290 q 380 153 324 183 q 512 122 436 122 q 645 153 589 122 q 731 236 701 183 q 761 358 761 290 l 761 1010 m 609 1267 l 730 1267 q 672 1131 730 1183 q 512 1079 613 1079 q 354 1131 413 1079 q 295 1267 295 1183 l 416 1267 q 438 1201 416 1230 q 512 1173 460 1173 q 587 1201 564 1173 q 609 1267 609 1229 z "},"Ů":{"ha":1024,"x_min":111,"x_max":913,"o":"m 761 1010 l 913 1010 l 913 346 q 864 158 913 240 q 724 30 814 76 q 512 -17 633 -17 q 301 30 391 -17 q 161 158 211 76 q 111 346 111 240 l 111 1010 l 263 1010 l 263 358 q 294 236 263 290 q 380 153 324 183 q 512 122 436 122 q 645 153 589 122 q 731 236 701 183 q 761 358 761 290 l 761 1010 m 512 1076 q 409 1118 452 1076 q 366 1220 366 1161 q 386 1293 366 1260 q 439 1346 405 1326 q 512 1365 472 1365 q 586 1346 552 1365 q 639 1293 619 1326 q 658 1220 658 1260 q 639 1147 658 1180 q 586 1095 619 1115 q 512 1076 552 1076 m 512 1151 q 562 1171 542 1151 q 581 1220 581 1192 q 562 1270 581 1249 q 512 1290 542 1290 q 463 1270 483 1290 q 443 1220 443 1249 q 463 1171 443 1192 q 512 1151 482 1151 z "},"Ű":{"ha":1024,"x_min":111,"x_max":913,"o":"m 761 1010 l 913 1010 l 913 346 q 864 158 913 240 q 724 30 814 76 q 512 -17 633 -17 q 301 30 391 -17 q 161 158 211 76 q 111 346 111 240 l 111 1010 l 263 1010 l 263 358 q 294 236 263 290 q 380 153 324 183 q 512 122 436 122 q 645 153 589 122 q 731 236 701 183 q 761 358 761 290 l 761 1010 m 544 1094 l 697 1302 l 843 1302 l 662 1094 l 544 1094 m 325 1094 l 442 1302 l 586 1302 l 435 1094 l 325 1094 z "},"Ų":{"ha":1024,"x_min":111,"x_max":913,"o":"m 761 1010 l 913 1010 l 913 346 q 864 158 913 240 q 724 30 814 76 q 512 -17 633 -17 q 301 30 391 -17 q 161 158 211 76 q 111 346 111 240 l 111 1010 l 263 1010 l 263 358 q 294 236 263 290 q 380 153 324 183 q 512 122 436 122 q 645 153 589 122 q 731 236 701 183 q 761 358 761 290 l 761 1010 m 525 -290 q 422 -257 463 -290 q 377 -160 381 -223 q 389 -84 374 -122 q 439 -12 404 -46 q 532 48 474 22 l 619 1 q 541 -60 574 -28 q 508 -134 508 -93 q 519 -170 508 -157 q 558 -182 531 -182 q 594 -177 579 -182 q 620 -167 610 -172 l 633 -260 q 589 -280 616 -271 q 525 -290 562 -290 z "},"Ǔ":{"ha":1024,"x_min":111,"x_max":913,"o":"m 761 1010 l 913 1010 l 913 346 q 864 158 913 240 q 724 30 814 76 q 512 -17 633 -17 q 301 30 391 -17 q 161 158 211 76 q 111 346 111 240 l 111 1010 l 263 1010 l 263 358 q 294 236 263 290 q 380 153 324 183 q 512 122 436 122 q 645 153 589 122 q 731 236 701 183 q 761 358 761 290 l 761 1010 m 411 1317 l 512 1185 l 614 1317 l 747 1317 l 747 1310 l 574 1101 l 451 1101 l 278 1310 l 278 1317 l 411 1317 z "}}}
